<svg width="300" height="211" viewBox="0 0 300 211" fill="none" xmlns="http://www.w3.org/2000/svg">
<rect x="22.4668" y="208.864" width="277.422" height="2.02803" fill="#85848B"/>
<path d="M242.258 173.054C242.258 174.614 233.168 179.162 222.371 179.162C211.573 179.162 203.16 174.614 203.16 173.054C203.16 171.494 211.912 171.997 222.72 171.997C233.528 171.997 242.258 171.492 242.258 173.054Z" fill="#504F60"/>
<path opacity="0.2" d="M242.258 173.054C242.258 174.614 233.168 179.162 222.371 179.162C211.573 179.162 203.16 174.614 203.16 173.054" fill="black"/>
<path d="M133.519 144.429C135.271 144.654 137.09 144.797 138.768 144.252C139.033 144.17 139.323 143.988 139.297 143.723C139.278 143.627 139.237 143.537 139.178 143.459C138.545 142.509 138.014 141.497 137.592 140.437C137.575 140.381 137.541 140.333 137.494 140.299C137.44 140.279 137.38 140.279 137.325 140.299C136.551 140.503 135.882 141.002 135.113 141.217C134.721 141.324 134.311 141.355 133.907 141.306C133.559 141.267 133.083 140.979 132.766 141.016C132.945 142.171 133.384 143.25 133.519 144.429Z" fill="#9E7E44"/>
<path d="M166.663 141.502C167.818 140.709 169.015 139.876 169.697 138.652C169.746 138.579 169.774 138.494 169.779 138.406C169.767 138.32 169.733 138.238 169.681 138.168C169.031 137.135 168.195 136.232 167.215 135.505C166.704 135.867 166.241 136.293 165.84 136.775C165.55 137.081 164.746 137.568 164.738 138.036C164.738 138.3 165.045 138.607 165.188 138.829C165.381 139.115 165.563 139.405 165.737 139.702C165.838 139.847 166.755 141.444 166.663 141.502Z" fill="#9E7E44"/>
<path d="M140.39 147.97C140.41 148.242 140.335 148.513 140.178 148.736C140.055 148.861 139.902 148.952 139.734 149.001C137.284 149.879 134.448 148.784 132.003 149.649C131.501 149.826 131.025 150.082 130.52 150.252C129.918 150.433 129.297 150.543 128.67 150.579C127.805 150.661 126.936 150.714 126.069 150.738C125.41 150.785 124.748 150.727 124.108 150.566C123.46 150.4 122.913 149.967 122.604 149.374C122.471 149.111 122.444 148.807 122.53 148.525C122.568 148.428 122.623 148.339 122.691 148.261C122.857 148.075 123.051 147.917 123.267 147.793L124.168 147.211C124.591 146.912 125.05 146.668 125.535 146.486C125.892 146.37 126.27 146.32 126.632 146.222C127.898 145.852 128.865 144.847 129.764 143.882L130.99 142.573C131.105 142.429 131.251 142.312 131.416 142.232C131.586 142.175 131.767 142.158 131.945 142.182C133.136 142.267 134.286 142.653 135.288 143.303C135.544 143.495 135.821 143.658 136.113 143.789C136.832 144.07 137.754 143.858 138.418 143.504C138.732 143.335 138.664 143.239 138.796 142.938C138.928 142.637 139.25 142.443 139.531 142.718C139.615 142.814 139.675 142.928 139.705 143.052C139.969 143.924 139.869 144.863 139.869 145.778C139.861 145.921 139.879 146.064 139.922 146.201C139.989 146.339 140.07 146.47 140.162 146.592C140.181 146.624 140.198 146.658 140.212 146.693C140.374 147.098 140.435 147.536 140.39 147.97Z" fill="#514E7F"/>
<path d="M140.39 147.97C140.41 148.242 140.335 148.513 140.178 148.736C140.055 148.861 139.902 148.951 139.734 149.001C137.284 149.879 134.448 148.784 132.003 149.649C131.501 149.826 131.025 150.082 130.52 150.251C129.918 150.432 129.297 150.543 128.67 150.579C127.805 150.661 126.936 150.714 126.069 150.738C125.41 150.785 124.748 150.727 124.108 150.566C123.46 150.4 122.913 149.967 122.604 149.374C122.471 149.111 122.444 148.807 122.53 148.525C122.568 148.428 122.623 148.339 122.691 148.26C122.834 148.559 122.937 148.956 123.027 149.099C123.272 149.527 123.69 149.828 124.174 149.926C124.531 149.948 124.89 149.902 125.231 149.791C127.451 149.241 129.812 149.233 131.945 148.401C132.677 148.112 133.375 147.729 134.144 147.554C134.913 147.38 135.73 147.428 136.523 147.361C137.775 147.261 138.989 146.883 140.223 146.685C140.382 147.093 140.44 147.534 140.39 147.97Z" fill="#464353"/>
<path d="M172.273 141.341C172.157 142.272 171.568 143.073 170.92 143.752C170.272 144.432 169.54 145.043 169.025 145.825C168.391 146.796 168.105 147.999 167.28 148.818C166.964 149.116 166.608 149.37 166.223 149.572C165.792 149.827 165.336 150.037 164.862 150.199C163.63 150.593 162.303 150.503 161.016 150.408C160.598 150.404 160.184 150.324 159.795 150.172C159.618 150.082 159.448 149.978 159.287 149.86C158.965 149.661 158.693 149.39 158.494 149.067C158.397 148.891 158.37 148.685 158.418 148.491C158.491 148.276 158.618 148.083 158.785 147.93C159.075 147.629 159.386 147.349 159.716 147.092C160.168 146.8 160.576 146.443 160.926 146.034C161.141 145.711 161.299 145.353 161.394 144.977C161.581 144.317 161.696 143.638 161.735 142.954C161.734 142.499 161.781 142.045 161.875 141.6C162.071 140.902 162.589 140.278 162.531 139.556C162.507 139.453 162.516 139.345 162.557 139.247C162.619 139.17 162.704 139.117 162.8 139.096C163.204 138.935 163.63 138.836 164.064 138.803C164.504 138.772 164.935 138.941 165.237 139.263C165.417 139.479 165.536 139.791 165.8 139.876C165.931 139.912 166.069 139.917 166.202 139.892C166.852 139.826 167.539 139.744 168.052 139.323C168.531 138.893 168.809 138.283 168.819 137.639C168.819 137.399 168.71 137.147 169.083 137.11C169.363 137.073 169.585 137.375 169.728 137.56C170.243 138.25 170.772 138.972 170.965 139.813C171.04 139.783 171.12 139.768 171.2 139.768C171.535 139.765 171.85 139.926 172.043 140.199C172.254 140.54 172.335 140.945 172.273 141.341Z" fill="#514E7F"/>
<path d="M172.275 141.341C172.159 142.272 171.569 143.073 170.922 143.752C170.274 144.432 169.542 145.043 169.026 145.825C168.392 146.796 168.107 147.999 167.282 148.819C166.965 149.117 166.61 149.37 166.225 149.572C165.793 149.827 165.337 150.037 164.863 150.199C163.632 150.593 162.305 150.503 161.018 150.408C160.6 150.404 160.186 150.324 159.797 150.172C159.619 150.082 159.45 149.978 159.289 149.86C158.966 149.662 158.695 149.39 158.496 149.067C158.744 148.948 159.014 148.883 159.289 148.877C159.86 148.908 160.278 149.448 160.825 149.614C161.604 149.85 162.382 149.3 163.172 149.112C163.687 148.99 164.229 149.022 164.739 148.848C165.164 148.683 165.557 148.445 165.9 148.144C166.369 147.809 166.787 147.406 167.139 146.949C167.432 146.492 167.676 146.006 167.866 145.498C168.283 144.524 168.775 143.583 169.336 142.684C169.419 142.542 169.519 142.41 169.634 142.293C169.759 142.179 169.899 142.1 170.039 141.999C170.567 141.6 170.787 140.942 170.972 140.297C171.022 140.1 171.092 139.91 171.181 139.728C171.515 139.725 171.83 139.886 172.024 140.159C172.251 140.508 172.341 140.929 172.275 141.341Z" fill="#464353"/>
<path d="M116.849 58.9029C117.507 59.396 118.049 60.0279 118.435 60.7537C118.805 61.4782 120.938 67.0996 120.814 67.9166C121.509 67.2159 124.25 67.1022 124.953 66.4016C125.247 66.1081 126.83 64.6432 127.068 64.3021C127.306 63.961 129.071 63.2445 129.264 62.8849C129.986 61.5919 124.147 56.6924 124.895 55.4153C124.937 55.3566 124.958 55.2861 124.956 55.2143C124.939 55.154 124.905 55.0999 124.858 55.0583C124.38 54.5692 123.745 54.2651 123.169 53.9028C122.593 53.5406 122.038 53.0356 121.882 52.3693C121.332 52.6223 120.828 52.9635 120.389 53.3793C119.317 54.2977 118.264 55.2346 117.23 56.19C116.826 56.5655 116.043 57.0652 115.855 57.602C115.633 58.1784 116.463 58.5882 116.849 58.9029Z" fill="#A1616A"/>
<path d="M126.301 56.8219C125.406 57.4241 124.568 58.1093 123.801 58.8684C123.077 59.585 122.39 60.4152 122.215 61.4174C122.141 61.8113 122.152 62.2106 122.091 62.6099C121.827 64.3417 120.331 65.6109 119.67 67.2318C119.478 67.732 119.338 68.2502 119.249 68.7786C119.064 69.7801 118.962 70.7955 118.946 71.814C118.93 72.8003 119.897 73.4798 120.251 74.3999C120.605 75.3201 120.701 76.2667 120.88 77.2106C121.219 78.9928 121.84 80.7114 122.466 82.4195C123.769 86.0208 127.993 95.9759 129.296 99.5798C133.29 98.5777 143.921 96.2747 147.457 94.162C148.636 93.4587 139.277 85.5237 140.538 84.9764C140.684 84.9536 140.811 84.8635 140.88 84.733C140.95 84.6025 140.954 84.4468 140.892 84.3127C139.631 78.7971 135.687 74.2651 133.898 68.8949C133.277 67.0308 132.161 65.4391 131.316 63.6675C130.549 62.0625 130.139 60.2883 129.222 58.7627C129.049 58.4484 128.823 58.1665 128.553 57.9298C128.325 57.7543 128.077 57.6045 127.816 57.4829C127.293 57.2291 126.806 57.0784 126.301 56.8219Z" fill="#514E7F"/>
<path d="M117.062 58.2762C120.514 58.2762 123.313 55.4765 123.313 52.0229C123.313 48.5692 120.514 45.7695 117.062 45.7695C113.609 45.7695 110.811 48.5692 110.811 52.0229C110.811 55.4765 113.609 58.2762 117.062 58.2762Z" fill="#A1616A"/>
<path d="M123.42 54.9604C124.058 54.372 124.992 54.2374 125.77 54.622C126.193 54.8415 126.563 55.2857 126.467 55.751L129.568 55.7986C130.061 55.7851 130.555 55.8304 131.038 55.9335C131.523 56.0393 131.957 56.3114 132.264 56.7029C132.301 56.7531 132.343 56.814 132.407 56.8219C132.458 56.8227 132.509 56.8059 132.549 56.7743C133.026 56.535 133.564 56.443 134.093 56.5099C135.769 56.6183 137.318 57.4565 138.631 58.5035C138.868 58.6665 139.052 58.8954 139.16 59.1619C139.268 59.5136 139.139 59.9552 139.424 60.2064C139.424 63.1149 140.423 65.833 141.09 68.6675C141.208 69.1725 141.692 69.6194 142.028 70.016C142.443 70.4557 142.781 70.9615 143.03 71.5126C143.595 72.9827 142.816 74.7119 143.365 76.1874C143.598 76.8114 144.047 77.3243 144.423 77.8664C144.917 78.4923 145.23 79.2424 145.327 80.0345C145.35 80.3888 145.305 80.7458 145.327 81.0922C145.362 81.5686 145.451 82.0395 145.591 82.4962C145.816 83.3494 146.053 84.2017 146.299 85.0531C146.701 86.428 147.224 87.9113 148.456 88.6438C145.482 89.1488 142.348 89.6432 139.514 88.6094C139.119 88.4745 138.744 88.2869 138.399 88.0515C137.376 87.3217 136.882 86.0737 136.44 84.8944C135.949 83.5724 135.449 82.2265 135.349 80.8198C135.35 80.3724 135.286 79.9272 135.161 79.4978C134.873 78.731 134.104 78.2683 133.406 77.8426C132.618 77.4106 131.904 76.8554 131.291 76.1979C130.677 75.5286 130.367 74.6346 130.435 73.7283C130.488 73.2921 130.66 72.8716 130.675 72.4327C130.691 71.9938 130.496 71.4914 130.075 71.3751C127.911 70.7193 126.877 68.1545 126.396 65.9441C126.189 64.8016 126.096 63.6412 126.119 62.4803L126.09 60.2249C125.486 59.6754 125.134 58.9021 125.117 58.0858C125.146 57.8501 125.141 57.6116 125.104 57.3772C124.999 57.0906 124.829 56.8325 124.607 56.6236C124.129 56.1329 123.729 55.572 123.42 54.9604Z" fill="#464353"/>
<path d="M116.761 62.1102C116.69 62.8082 116.849 63.5248 116.693 64.2096C116.632 64.474 116.526 64.7384 116.45 64.9843C116.215 65.97 116.317 67.0057 116.738 67.9272C117.158 68.8396 117.662 69.7114 118.242 70.5317C118.438 70.8117 118.599 71.1144 118.723 71.4333C118.823 71.7681 118.885 72.1132 118.908 72.4619C119.061 73.8621 119.306 75.2506 119.642 76.6184C119.939 77.803 123.301 87.9299 124.083 88.8686C124.225 89.0764 124.44 89.2228 124.686 89.2784C124.863 89.2851 125.039 89.2488 125.198 89.1726L126.784 88.5645C126.919 88.5232 127.044 88.4548 127.152 88.3635C127.3 88.1898 127.381 87.9682 127.379 87.7395C127.493 86.4492 124.123 76.2509 123.694 75.0319C122.399 71.3513 120.676 67.8029 119.833 63.9928C119.598 62.9351 119.473 61.3064 118.699 60.4629C118.379 60.1139 118.487 60.2619 118.104 60.4444C117.91 60.5284 117.723 60.6265 117.544 60.7379C117.089 61.0538 116.802 61.5581 116.761 62.1102Z" fill="#464353"/>
<path d="M121.576 69.0932C122.002 71.3434 122.44 73.5882 122.876 75.8383L129.083 74.2122C129.133 73.5618 128.787 72.9589 128.554 72.3613C127.988 70.9415 127.975 69.3603 127.518 67.9007C127.172 66.7902 126.569 65.7696 126.244 64.6511C126.056 64.0007 125.961 63.3291 125.776 62.6707C125.578 62.0241 125.334 61.3924 125.047 60.7801C124.698 59.8922 124.244 59.0497 123.693 58.2709C122.9 58.567 122.054 58.9107 121.602 59.6273C121.371 60.031 121.238 60.4843 121.217 60.9494C121.108 62.3428 121.613 63.7442 121.447 65.1297C121.275 66.4492 121.319 67.7878 121.576 69.0932Z" fill="#9E7E44"/>
<path d="M129.185 99.0246C129.534 100.347 129.029 101.737 128.617 103.046C127.996 105.018 127.573 107.046 127.353 109.101C127.326 109.624 127.221 110.14 127.041 110.632C126.846 111.074 126.513 111.447 126.285 111.867C125.662 112.972 125.677 114.321 125.812 115.585C125.902 116.418 126.037 117.248 126.203 118.068C126.407 119.07 126.658 120.117 126.365 121.095C126.856 120.987 127.189 121.624 127.158 122.124C127.126 122.623 126.965 123.181 127.205 123.612C127.813 123.834 127.818 124.67 127.8 125.318C127.81 126.441 127.952 127.559 128.223 128.649C129.143 133.074 130.119 137.486 131.151 141.886C133.385 142.578 135.994 143.3 138.124 142.34C138.521 142.163 138.917 141.88 139.007 141.452C139.03 141.221 139.001 140.988 138.922 140.77L137.913 137.095C137.667 136.206 137.421 135.289 137.551 134.376C137.648 133.697 137.944 132.964 137.611 132.364C137.498 132.158 137.318 131.997 137.186 131.801C136.657 131.026 136.935 129.99 136.977 129.051C136.993 128.84 136.979 128.628 136.935 128.422C136.862 128.181 136.761 127.949 136.633 127.732C135.799 126.111 135.398 124.302 135.47 122.481C135.502 122.248 135.47 122.011 135.378 121.796C135.314 121.707 135.256 121.613 135.206 121.515C135.167 121.346 135.186 121.168 135.262 121.01C134.959 120.78 134.685 120.514 134.447 120.217C134.745 120.032 134.94 119.721 134.978 119.374C135.017 119.026 134.893 118.68 134.643 118.435C134.863 118.391 135.039 118.227 135.099 118.01C135.159 117.794 135.092 117.563 134.926 117.412C134.796 117.322 134.625 117.282 134.532 117.147C134.389 116.952 134.506 116.679 134.622 116.47L135.238 115.357C135.698 114.53 135.801 113.506 136.295 112.713C137.003 111.558 137.466 110.27 137.923 108.996L139.702 104.085L140.899 105.125C141.298 105.429 141.632 105.81 141.883 106.246C142.053 106.676 142.161 107.128 142.203 107.589C142.641 110.254 144.317 112.565 144.938 115.191C145.076 115.775 145.168 116.388 145.504 116.888C145.624 117.042 145.732 117.204 145.826 117.375C145.914 117.635 145.959 117.907 145.961 118.181C146.073 119.268 146.652 120.252 147.547 120.878C148.136 121.283 148.869 121.56 149.188 122.2C149.252 122.398 149.341 122.588 149.453 122.763C149.738 123.107 150.354 123.147 150.476 123.578C150.544 123.818 150.417 124.107 150.552 124.318C150.629 124.416 150.73 124.492 150.846 124.538L152.566 125.397C154.491 126.359 155.474 128.57 156.893 130.18C157.383 130.705 157.818 131.279 158.188 131.894C158.802 132.991 159.084 134.368 160.121 135.066C160.399 135.211 160.653 135.399 160.871 135.624C161.196 136.053 161.077 136.653 161.106 137.192C161.136 137.732 161.548 138.374 162.061 138.21C161.881 138.864 161.881 139.553 162.061 140.207C164.312 140.091 166.459 139.221 168.156 137.737C168.658 137.298 169.142 136.738 169.147 136.071C169.155 135.956 169.129 135.841 169.073 135.741C168.971 135.611 168.837 135.509 168.684 135.447C167.075 134.575 166.591 132.552 165.777 130.91C165.066 129.461 164.014 128.213 163.134 126.867C161.22 123.972 159.914 120.468 157.02 118.557C156.383 118.136 155.643 117.763 155.323 117.068C155.146 116.679 155.125 116.235 154.985 115.833C154.845 115.431 154.509 115.04 154.081 115.04C154.319 114.458 154.271 113.75 154.287 113.12C154.303 112.841 154.271 112.561 154.192 112.293C154.082 112.004 153.939 111.729 153.766 111.473C153.011 110.194 152.634 108.727 152.677 107.243C152.699 106.478 152.833 105.69 152.603 104.961C152.487 104.593 152.284 104.257 152.143 103.903C151.932 103.261 151.821 102.59 151.813 101.915L151.655 99.3736C151.631 98.5274 151.521 97.6858 151.327 96.8617C150.798 94.8892 150.269 86.6264 148.459 85.6957C146.648 84.7649 143.537 91.124 141.499 91.2483C140.598 91.2858 139.707 91.4578 138.856 91.7586C137.5 92.2663 136.364 93.2129 135.256 94.1383L131.508 97.2874C130.715 97.9405 130.06 98.5645 129.185 99.0246Z" fill="#464353"/>
<path d="M111.195 45.0794C112.02 43.953 113.437 43.3554 114.832 43.3052C116.228 43.2549 117.602 43.6939 118.853 44.3152C119.222 44.5252 119.616 44.6869 120.026 44.7965C120.687 44.9313 121.422 44.7515 122.019 45.0609C122.812 45.4813 122.965 46.5521 122.897 47.4406C122.828 48.329 122.661 49.3152 123.135 50.0847C123.302 50.3041 123.455 50.5347 123.592 50.7748C123.795 51.2322 123.676 51.761 123.555 52.2449C123.246 51.9805 123.071 51.5812 122.796 51.2745C122.521 50.9678 122.043 50.7616 121.702 50.9916C121.361 51.2216 121.366 51.6394 121.348 52.0149C121.329 52.3903 121.234 52.8398 120.88 52.9615C120.577 53.0304 120.263 52.9078 120.087 52.6521C119.482 51.9118 119.725 50.7298 119.125 49.9842C118.784 49.5611 118.216 49.3549 117.901 48.9107C117.653 48.5617 117.589 48.1175 117.372 47.742C117.156 47.3665 116.651 47.0915 116.315 47.3507C116.201 47.4602 116.105 47.5879 116.032 47.7288C115.601 48.3462 114.803 48.5869 114.103 48.3105C113.843 48.1509 113.562 48.0289 113.268 47.9482C112.875 47.9286 112.505 48.1336 112.313 48.4771C112.124 48.8135 112.032 49.1964 112.049 49.5823C112.049 50.1111 112.144 50.6743 111.843 51.0974C111.728 51.2566 111.585 51.393 111.42 51.4993C110.979 51.7822 110.363 51.9726 109.956 51.65C109.675 51.3886 109.551 50.9998 109.628 50.6241C109.707 50.2561 109.811 49.8939 109.94 49.54C110.172 48.7203 109.868 47.7975 110.122 47.0254C110.388 46.3301 110.749 45.6752 111.195 45.0794Z" fill="#464353"/>
<path d="M114.545 63.7337C114.505 63.9264 114.526 64.1266 114.603 64.3074C114.682 64.4306 114.789 64.533 114.915 64.6062C115.804 65.1601 116.815 65.4879 117.86 65.5607C118.002 65.5632 118.141 65.5994 118.267 65.6665C118.515 65.8304 118.531 66.1953 118.439 66.4862C118.315 66.7605 118.251 67.0579 118.251 67.3587C118.328 67.9113 118.983 68.152 119.536 68.2339C120.31 68.3318 121.158 68.2815 121.772 67.7977C122.187 67.4187 122.504 66.944 122.694 66.4148C124.211 62.9272 124.743 59.0721 126.278 55.5951C126.395 55.3681 126.472 55.1232 126.508 54.8706C126.541 54.6131 126.432 54.3579 126.223 54.2043C125.937 54.0271 125.493 54.1276 125.3 53.85C125.205 53.7098 125.216 53.5195 125.131 53.3714C124.954 53.0567 124.489 53.107 124.172 52.9245C123.923 52.7923 123.751 52.52 123.474 52.4671C123.198 52.4515 122.93 52.5671 122.752 52.7791C121.851 53.6199 121.378 54.8124 120.876 55.9388C120.109 57.6654 119.211 59.3308 118.19 60.9203C118.309 60.7352 117.619 59.3339 117.35 59.273C116.876 59.1779 116.271 60.0081 116.015 60.3175C115.21 61.2933 114.7 62.4783 114.545 63.7337Z" fill="#9E7E44"/>
<path opacity="0.1" d="M124.146 53.1704C123.762 53.1768 123.401 53.3578 123.166 53.6622C122.883 54.0297 122.827 54.5163 122.756 54.9843C122.515 56.467 121.987 57.8881 121.199 59.1673" fill="black"/>
<path opacity="0.1" d="M125.496 54.2255C124.963 54.2373 124.475 54.5299 124.214 54.9949C124.039 55.4108 123.93 55.8515 123.891 56.3011C123.665 57.2978 123.228 58.2345 122.609 59.0483" fill="black"/>
<path d="M188.314 105.918V102.634C188.312 97.5997 184.232 93.5195 179.2 93.5195H49.5551C44.5228 93.5195 40.4429 97.5997 40.4414 102.634V108.689L188.314 105.918Z" fill="#33323D"/>
<path d="M85.6201 89.6697C85.6201 89.6697 85.25 112.636 89.3205 120.193C93.391 127.75 95.1355 160.624 95.1355 160.624C95.1355 160.624 137.807 165.04 167.543 155.336C197.278 145.632 260.55 141.663 260.55 141.663L249.888 69.7727C249.888 69.7727 197.212 66.3935 167.247 80.6903C137.281 94.987 85.6201 89.6697 85.6201 89.6697Z" fill="#8DD070"/>
<path opacity="0.1" d="M85.6201 89.6697C85.6201 89.6697 85.25 112.636 89.3205 120.193C93.391 127.75 95.1355 160.624 95.1355 160.624C95.1355 160.624 137.807 165.04 167.543 155.336C197.278 145.632 260.55 141.663 260.55 141.663L249.888 69.7727C249.888 69.7727 197.212 66.3935 167.247 80.6903C137.281 94.987 85.6201 89.6697 85.6201 89.6697Z" fill="black"/>
<path d="M95.0634 98.0595C95.0634 98.0595 93.7286 117.01 97.0775 123.065C100.426 129.12 100.582 156.151 100.582 156.151C100.582 156.151 138.985 157.933 166.302 148.631C193.619 139.329 251.024 133.295 251.024 133.295L244.5 74.5031C244.5 74.5031 197.003 74.0139 169.281 87.1076C141.559 100.201 95.0634 98.0595 95.0634 98.0595Z" fill="#8DD070"/>
<path opacity="0.1" d="M168.86 137.866C174.324 137.186 177.571 127.13 176.111 115.407C174.651 103.684 169.038 94.732 163.574 95.4128C158.11 96.0937 154.864 106.149 156.324 117.872C157.783 129.596 163.396 138.547 168.86 137.866Z" fill="black"/>
<path opacity="0.2" d="M221.008 34.7516C221.008 34.7516 169.834 47.7077 145.701 70.5132C121.569 93.3186 70.7676 104.117 70.7676 104.117C70.7676 104.117 77.4601 126.087 83.6504 132.031C89.8407 137.975 101.582 168.731 101.582 168.731C101.582 168.731 143.547 159.831 168.869 141.46C194.19 123.089 253.205 99.8866 253.205 99.8866L221.008 34.7516Z" fill="black"/>
<path d="M70 100.828C70 100.828 76.6899 122.8 82.8749 128.744C89.0599 134.688 100.806 165.442 100.806 165.442C100.806 165.442 142.777 156.545 168.101 138.173C193.426 119.802 252.434 96.6079 252.434 96.6079L220.238 31.465C220.238 31.465 169.066 44.4211 144.934 67.2266C120.802 90.032 70 100.828 70 100.828Z" fill="#8DD070"/>
<path opacity="0.1" d="M70 100.828C70 100.828 76.6899 122.8 82.8749 128.744C89.0599 134.688 100.806 165.442 100.806 165.442C100.806 165.442 142.777 156.545 168.101 138.173C193.426 119.802 252.434 96.6079 252.434 96.6079L220.238 31.465C220.238 31.465 169.066 44.4211 144.934 67.2266C120.802 90.032 70 100.828 70 100.828Z" fill="black"/>
<path d="M81.5527 105.915C81.5527 105.915 86.0963 124.363 91.1422 129.096C96.188 133.829 104.622 159.503 104.622 159.503C104.622 159.503 141.717 149.408 164.863 132.169C188.009 114.929 240.799 91.5894 240.799 91.5894L216.558 37.6178C216.558 37.6178 171.204 51.7294 148.835 72.7025C126.466 93.6756 81.5527 105.915 81.5527 105.915Z" fill="#8DD070"/>
<path opacity="0.1" d="M164.007 121.147C168.999 118.822 169.004 108.255 164.018 97.5457C159.033 86.8361 150.945 80.0393 145.953 82.3645C140.962 84.6898 140.957 95.2567 145.942 105.966C150.927 116.676 159.015 123.473 164.007 121.147Z" fill="black"/>
<path opacity="0.1" d="M191.813 109.141V200.363C191.813 202.455 190.982 204.462 189.503 205.941C188.024 207.42 186.017 208.251 183.926 208.25H48.3312C43.9777 208.249 40.4492 204.718 40.4492 200.363V99.9447C44.3347 101.388 44.3347 101.388 48.3312 101.267H183.926C188.276 101.267 191.804 104.79 191.813 109.141Z" fill="black"/>
<path d="M191.813 110.302V201.523C191.812 205.88 188.281 209.411 183.926 209.411H48.3312C43.9777 209.409 40.4492 205.878 40.4492 201.523V101.103C44.3347 102.544 44.3347 102.544 48.3312 102.425H183.926C188.277 102.425 191.806 105.949 191.813 110.302Z" fill="#504F60"/>
<path opacity="0.1" d="M191.426 144.027V173.2H163.144C155.168 173.092 148.758 166.593 148.758 158.614C148.758 150.634 155.168 144.135 163.144 144.027L191.426 144.027Z" fill="black"/>
<path d="M191.813 143.25V172.428H163.531C155.554 172.32 149.145 165.821 149.145 157.842C149.145 149.862 155.554 143.363 163.531 143.255L191.813 143.25Z" fill="#33323D"/>
<path opacity="0.1" d="M164.887 164.302C168.027 164.302 170.572 161.756 170.572 158.615C170.572 155.474 168.027 152.927 164.887 152.927C161.747 152.927 159.201 155.474 159.201 158.615C159.201 161.756 161.747 164.302 164.887 164.302Z" fill="black"/>
<path d="M165.271 163.53C168.411 163.53 170.957 160.984 170.957 157.843C170.957 154.702 168.411 152.155 165.271 152.155C162.131 152.155 159.586 154.702 159.586 157.843C159.586 160.984 162.131 163.53 165.271 163.53Z" fill="#9E7E44"/>
<path d="M240.903 142.999C241.128 145.434 239.286 147.798 239.822 150.183C239.939 150.693 240.158 151.174 240.237 151.69C240.459 153.107 239.616 154.448 238.81 155.632L231.885 165.796C231.608 166.243 231.275 166.654 230.896 167.018C229.575 168.197 227.587 168.076 225.848 168.427C224.625 168.676 223.471 169.186 222.465 169.924C222.377 169.999 222.363 170.128 222.433 170.22C223.017 171.016 223.964 171.461 224.949 171.402C225.132 171.643 224.949 171.994 224.685 172.166C224.312 172.43 223.802 172.494 223.728 173.123C223.702 173.343 223.746 173.565 223.855 173.758C224.134 174.185 224.568 174.488 225.066 174.601C227.463 175.334 230.053 174.046 231.848 172.293C233.643 170.54 234.93 168.327 236.69 166.542C237.666 165.556 238.773 164.71 239.777 163.752C241.781 161.843 243.338 159.522 244.842 157.198C245.294 156.497 245.748 155.778 245.939 154.966C246.129 154.154 246.039 153.335 246.253 152.549C246.533 151.518 247.287 150.699 247.913 149.834C249.142 148.142 249.962 146.071 249.8 143.988C249.639 141.904 248.347 139.844 246.38 139.136C245.771 138.891 245.098 138.85 244.464 139.019C243.658 139.268 243.063 139.934 242.513 140.572L241.192 142.092C240.862 142.426 240.602 142.821 240.425 143.255C240.252 143.701 240.355 144.206 240.689 144.548" fill="#FBBEBE"/>
<path opacity="0.05" d="M240.903 142.999C241.128 145.434 239.286 147.798 239.822 150.183C239.939 150.693 240.158 151.174 240.237 151.69C240.459 153.107 239.616 154.448 238.81 155.632L231.885 165.796C231.608 166.243 231.275 166.654 230.896 167.018C229.575 168.197 227.587 168.076 225.848 168.427C224.625 168.676 223.471 169.186 222.465 169.924C222.377 169.999 222.363 170.128 222.433 170.22C223.017 171.016 223.964 171.461 224.949 171.402C225.132 171.643 224.949 171.994 224.685 172.166C224.312 172.43 223.802 172.494 223.728 173.123C223.702 173.343 223.746 173.565 223.855 173.758C224.134 174.185 224.568 174.488 225.066 174.601C227.463 175.334 230.053 174.046 231.848 172.293C233.643 170.54 234.93 168.327 236.69 166.542C237.666 165.556 238.773 164.71 239.777 163.752C241.781 161.843 243.338 159.522 244.842 157.198C245.294 156.497 245.748 155.778 245.939 154.966C246.129 154.154 246.039 153.335 246.253 152.549C246.533 151.518 247.287 150.699 247.913 149.834C249.142 148.142 249.962 146.071 249.8 143.988C249.639 141.904 248.347 139.844 246.38 139.136C245.771 138.891 245.098 138.85 244.464 139.019C243.658 139.268 243.063 139.934 242.513 140.572L241.192 142.092C240.862 142.426 240.602 142.821 240.425 143.255C240.252 143.701 240.355 144.206 240.689 144.548" fill="black"/>
<path d="M246.146 205.691C244.634 206.613 242.75 206.669 240.992 206.455C240.709 206.42 240.373 206.399 240.199 206.619C239.935 206.936 240.246 207.412 240.569 207.658C241.606 208.436 242.824 208.938 244.108 209.115C245.255 209.277 246.412 209.354 247.571 209.345C250.742 209.4 253.914 209.453 257.036 208.998C257.221 208.984 257.401 208.932 257.565 208.845C257.766 208.704 257.906 208.491 257.956 208.25C258.17 207.436 257.757 206.563 257.134 205.997C256.51 205.431 255.709 205.117 254.927 204.813L252.178 203.742C251.533 203.491 250.499 202.824 249.799 202.877C248.483 202.972 247.238 205.051 246.146 205.691Z" fill="#3F3D56"/>
<path opacity="0.05" d="M246.146 205.691C244.634 206.613 242.75 206.669 240.992 206.455C240.709 206.42 240.373 206.399 240.199 206.619C239.935 206.936 240.246 207.412 240.569 207.658C241.606 208.436 242.824 208.938 244.108 209.115C245.255 209.277 246.412 209.354 247.571 209.345C250.742 209.4 253.914 209.453 257.036 208.998C257.221 208.984 257.401 208.932 257.565 208.845C257.766 208.704 257.906 208.491 257.956 208.25C258.17 207.436 257.757 206.563 257.134 205.997C256.51 205.431 255.709 205.117 254.927 204.813L252.178 203.742C251.533 203.491 250.499 202.824 249.799 202.877C248.483 202.972 247.238 205.051 246.146 205.691Z" fill="black"/>
<path d="M248.073 169.186C246.928 170.709 245.744 172.467 246.027 174.353C246.18 175.368 246.748 176.264 247.166 177.203C247.732 178.478 248.028 179.847 248.318 181.212C248.747 183.205 249.177 185.204 249.439 187.23C249.738 189.517 248.334 196.135 248.205 198.438C248.173 198.993 248.107 199.593 247.721 199.993C247.57 200.151 247.369 200.278 247.301 200.484C247.26 200.683 247.293 200.89 247.393 201.066C248.038 202.52 249.357 203.605 250.829 204.223C252.302 204.842 255.851 205.91 257.456 205.966C257.667 205.989 257.881 205.961 258.08 205.884C258.293 205.754 258.461 205.561 258.561 205.331C259.71 203.131 258.606 195.31 258.621 192.827C258.637 190.757 259.126 188.7 259.036 186.632C258.962 184.971 258.508 183.348 258.357 181.693C258.093 178.98 258.59 176.254 259.089 173.573C259.47 171.516 259.853 169.458 260.342 167.428C260.641 166.188 260.987 164.937 261.664 163.861C262.192 163.007 262.935 162.293 263.551 161.481C265.26 159.239 266.02 156.415 265.665 153.618C265.628 153.353 261.701 154.614 261.354 154.765C259.942 155.364 258.642 156.2 257.511 157.237C256.602 158.105 255.886 159.263 255.09 160.233C253.964 161.606 252.852 162.989 251.754 164.382C250.502 165.974 249.274 167.575 248.073 169.186Z" fill="#464353"/>
<path opacity="0.05" d="M248.073 169.094C246.928 170.617 245.744 172.378 246.027 174.26C246.18 175.278 246.748 176.174 247.166 177.113C247.732 178.385 248.028 179.757 248.318 181.119C248.747 183.115 249.177 185.114 249.439 187.137C249.738 189.427 248.334 196.042 248.205 198.345C248.173 198.901 248.107 199.503 247.721 199.903C247.57 200.059 247.369 200.186 247.301 200.392C247.26 200.591 247.293 200.797 247.393 200.974C248.038 202.431 249.357 203.512 250.829 204.147C252.302 204.781 255.851 205.334 257.456 205.387C257.667 205.41 257.881 205.382 258.08 205.305C258.293 205.176 258.462 204.984 258.561 204.755C259.71 202.555 258.606 195.236 258.621 192.75C258.637 190.677 259.126 188.623 259.036 186.553C258.962 184.892 258.508 183.269 258.357 181.616C258.093 178.901 258.59 176.174 259.089 173.493C259.47 171.439 259.853 169.382 260.342 167.348C260.641 166.108 260.987 164.858 261.664 163.782C262.192 162.928 262.935 162.214 263.551 161.402C265.261 159.16 266.02 156.336 265.665 153.538C265.628 153.274 261.701 154.535 261.354 154.686C259.942 155.286 258.642 156.123 257.511 157.161C256.602 158.025 255.886 159.183 255.09 160.154C253.964 161.527 252.852 162.911 251.754 164.305C250.502 165.884 249.274 167.481 248.073 169.094Z" fill="black"/>
<path d="M235.337 135.643C238.88 135.643 241.752 132.77 241.752 129.226C241.752 125.681 238.88 122.808 235.337 122.808C231.794 122.808 228.922 125.681 228.922 129.226C228.922 132.77 231.794 135.643 235.337 135.643Z" fill="#FBBEBE"/>
<path d="M241.116 128.956C242.313 130.867 244.236 132.209 246.442 132.673L245.958 134.432C245.123 137.451 244.185 140.645 241.853 142.74C242.118 141.716 241.779 140.624 241.203 139.736C240.627 138.847 239.818 138.149 239.025 137.459L235.333 134.26C235.226 134.173 235.136 134.067 235.068 133.948C234.977 133.722 234.977 133.47 235.068 133.245C235.539 131.78 236.882 130.865 237.976 129.876C238.525 129.365 239.015 128.793 239.438 128.173C240.175 127.121 240.632 128.178 241.116 128.956Z" fill="#FBBEBE"/>
<path d="M226.888 122.774L226.743 121.568C227.755 121.833 228.717 120.971 229.365 120.08C230.012 119.189 230.612 118.139 231.598 117.766C232.796 117.317 234.064 118.03 235.209 118.633C236.49 119.345 237.896 119.802 239.351 119.982C239.583 119.99 239.813 120.027 240.035 120.093C240.781 120.357 241.135 121.293 241.243 122.142C241.352 122.991 241.323 123.892 241.69 124.649C241.954 125.222 242.446 125.648 242.747 126.214C243.54 127.732 242.774 129.807 243.601 131.296L241.545 129.411C241.357 129.239 241.093 129.059 240.884 129.204C240.72 129.321 240.707 129.572 240.641 129.773C240.442 130.36 239.708 130.534 239.176 130.302C238.645 130.069 238.256 129.564 237.855 129.104C236.945 128.031 235.862 127.087 234.593 126.629C233.468 126.208 232.217 126.291 231.157 126.857C230.197 127.399 229.494 128.662 228.318 128.707C226.706 128.768 226.034 125.765 225.289 124.577C225.852 124.154 226.03 123.387 225.712 122.758C225.82 122.713 226.864 122.589 226.888 122.774Z" fill="#464353"/>
<path d="M147.542 85.2567C147.026 85.7154 146.55 86.2159 146.117 86.7533C145.681 87.2982 145.449 87.978 145.461 88.6756C145.464 88.8779 145.528 89.0745 145.646 89.2388C145.77 89.3999 145.982 89.4647 146.175 89.4001C146.281 89.3459 146.372 89.2659 146.439 89.1674C146.719 88.8316 147.015 88.5103 147.327 88.2049C147.441 88.0912 147.592 87.9722 147.745 88.0146C147.814 88.0389 147.876 88.0798 147.925 88.1335C148.103 88.2873 148.232 88.4894 148.297 88.7152C148.39 89.1198 148.155 89.5243 147.888 89.8416C147.621 90.1589 147.306 90.463 147.198 90.8623C147.157 90.9677 147.157 91.0847 147.198 91.1901C147.249 91.2664 147.32 91.3269 147.404 91.3646C148.17 91.7867 149.084 91.8467 149.899 91.5286C150.428 91.3144 150.898 90.9469 151.443 90.7565C151.679 90.692 151.907 90.6034 152.125 90.4921C152.439 90.2826 152.657 89.9561 152.73 89.5852C152.799 89.2182 152.812 88.8429 152.77 88.472C152.704 87.0356 152.396 85.6206 151.86 84.2864C151.829 84.2003 151.777 84.1238 151.707 84.0643C151.628 84.0158 151.536 83.991 151.443 83.9929C150.766 83.9215 149.656 83.5751 149.003 83.8263C148.775 83.9515 148.578 84.1269 148.427 84.3392C148.305 84.4741 147.542 85.0796 147.542 85.2567Z" fill="#A1616A"/>
<path d="M147.328 84.6592C147.328 84.014 146.535 82.4566 147.796 82.3535C147.796 81.6634 146.821 81.235 147.003 80.5026C147.061 80.2594 147.267 80.061 147.291 79.8125C147.37 79.1065 146.096 78.7231 146.308 78.0462C146.387 77.7818 146.667 77.6285 146.728 77.3667C146.871 76.7559 145.779 76.4836 145.758 75.8569C145.758 75.6454 145.877 75.4471 145.867 75.2355C145.867 74.9711 145.637 74.7702 145.51 74.5401C145.179 73.9505 145.341 73.0383 144.738 72.7342C145.137 72.7686 145.267 72.1763 145.103 71.8141C144.939 71.4518 144.603 71.1372 144.6 70.7353C144.62 70.5896 144.62 70.442 144.6 70.2963C144.489 69.9103 143.858 69.8786 143.752 69.5031C143.738 69.359 143.734 69.2142 143.739 69.0695C143.696 68.7707 143.39 68.5803 143.102 68.4957C142.802 68.4449 142.514 68.342 142.251 68.1916C142.066 68.0515 141.852 67.8188 141.653 67.9272C141.579 67.9722 141.542 68.0568 141.487 68.1202C141.249 68.3979 140.794 68.2762 140.496 68.0727C139.613 67.4724 139.174 66.3963 138.986 65.3466C138.799 64.2969 138.804 63.2128 138.569 62.1736C138.497 61.8498 138.402 61.5316 138.283 61.2218C138.183 60.9574 137.86 60.5422 137.839 60.2752C137.792 59.667 139.05 60.0822 139.528 60.143C139.993 60.1883 140.452 60.2769 140.9 60.4074C141.378 60.5881 141.847 60.7938 142.304 61.0235C144.212 61.8669 146.517 61.97 148.05 63.3873C148.555 63.8527 148.98 64.4634 149.636 64.675C149.936 64.7326 150.233 64.8095 150.524 64.905C151.251 65.2461 151.364 66.2112 151.761 66.9092C151.885 67.0936 151.994 67.2882 152.086 67.4909C152.162 67.7301 152.198 67.9803 152.192 68.2313L152.247 70.0637C152.337 73.1335 152.427 76.2112 152.099 79.2625C151.993 80.2699 151.835 81.3064 152.133 82.2742C152.213 82.5386 152.324 82.7871 152.398 83.0542C152.463 83.3673 152.497 83.6862 152.498 84.0061L152.541 85.1933C152.555 85.2856 152.534 85.38 152.482 85.4577C152.393 85.5304 152.275 85.5586 152.163 85.5344C150.511 85.3863 148.84 84.4556 147.281 85.0188" fill="#464353"/>
<path d="M222.717 175.881C233.513 175.881 242.266 174.615 242.266 173.054C242.266 171.493 233.513 170.228 222.717 170.228C211.92 170.228 203.168 171.493 203.168 173.054C203.168 174.615 211.92 175.881 222.717 175.881Z" fill="#504F60"/>
<path d="M239.534 173.192C239.191 171.719 238.977 170.426 238.977 170.426C238.977 170.426 239.056 168.824 238.337 167.621V167.219V164.257C238.542 163.72 238.792 163.2 239.085 162.705C239.614 161.775 239.085 158.364 239.085 158.364C239.085 158.364 237.111 153.554 237.589 150.503C238.067 147.451 233.534 136.954 233.534 136.954C233.562 135.942 233.705 134.936 233.96 133.956C234.008 133.75 234.028 133.538 234.018 133.327C234.018 133.3 234.018 133.276 234.018 133.25C234.018 133.223 234.018 133.266 234.018 133.274C233.949 131.262 232.358 127.491 232.358 127.491L232.572 120.304C232.572 120.304 233.587 116.074 231.933 110.376C231.354 108.39 230.984 106.801 230.748 105.574C230.722 105.437 230.696 105.31 230.674 105.175C234.081 104.646 236.685 104.223 236.685 104.223C236.685 104.223 234.708 95.9494 233.373 94.5005C232.038 93.0515 230.97 88.501 230.97 88.501C230.97 88.501 230.275 82.6601 231.399 80.952C232.522 79.244 232.681 76.2984 232.681 76.2984C232.681 76.2984 235.242 74.4475 235.564 73.6094C235.887 72.7712 236.418 70.9203 236.418 69.9393C236.418 68.9584 236.098 68.0885 236.204 67.5596C236.31 67.0308 235.456 65.0768 235.884 64.1461C235.995 63.8602 236.052 63.5564 236.053 63.2497C236.054 63.2409 236.054 63.2321 236.053 63.2233C236.057 62.4088 235.982 61.5959 235.829 60.796C235.088 60.1702 234.223 59.7079 233.291 59.4396L233.236 59.2175L233.09 58.6358C233.009 58.5821 232.925 58.5327 232.839 58.4877V58.2762L232.815 57.4353L233.217 55.5474C234.01 52.2635 229.625 51.7743 229.625 51.7743C229.359 51.2706 228.917 50.8827 228.383 50.6849C227.503 50.3756 228.237 55.6241 228.647 55.9731C228.956 56.2375 229.913 57.8716 230.376 58.6807L230.45 58.8129C230.377 58.878 230.31 58.9488 230.249 59.0244L230.415 60.1641L230.442 60.3386C230.151 60.6996 229.915 61.1014 229.741 61.5311C229.741 61.5311 230.534 62.4089 230.384 63.3819C230.233 64.355 230.63 65.5898 230.648 65.6559C230.6 65.6003 230.037 64.9922 229.474 65.1403C228.911 65.2883 227.339 65.7616 227.339 65.7616C227.339 65.7616 226.165 65.9679 226.281 66.227C226.398 66.4861 225.489 67.6231 225.489 67.6231L222.333 64.63C222.301 64.5401 222.267 64.4502 222.24 64.3655C222.111 63.934 222.023 63.4914 221.976 63.0435C222.32 62.9617 222.657 62.8548 222.985 62.7236C223.317 62.6097 223.616 62.4174 223.858 62.163C224.178 61.7849 224.238 61.2719 224.368 60.8013C224.616 59.8811 225.161 59.0641 225.539 58.1889C226.179 56.71 226.385 55.0795 226.133 53.4877C226.085 52.9971 225.919 52.5255 225.65 52.1127C225.134 51.4041 224.199 51.1159 223.519 50.5501C222.84 49.9842 222.401 49.1196 221.608 48.6992C220.892 48.3158 220.022 48.3607 219.214 48.493C217.634 48.7535 216.116 49.3058 214.739 50.1217C214.279 50.3861 213.771 50.7114 213.243 50.6135C212.788 50.5316 212.45 50.1693 212.164 49.8203C212.168 49.8058 212.172 49.7917 212.178 49.778C212.165 49.7651 212.153 49.7509 212.143 49.7357C211.809 50.4783 211.641 51.2851 211.652 52.0995C211.652 52.2264 211.652 52.3639 211.667 52.4776V52.6098C211.667 52.6468 211.667 52.6839 211.667 52.7182C211.667 52.7746 211.659 52.8307 211.644 52.8848C211.577 53.0466 211.476 53.1918 211.348 53.3105C211.251 53.4208 211.162 53.5383 211.083 53.6622C211.083 53.6199 211.11 53.5776 211.126 53.5326C210.924 53.827 210.81 54.1728 210.798 54.5295C210.783 54.7891 210.868 55.0445 211.036 55.2434C211.194 55.3971 211.366 55.5352 211.551 55.6558C211.488 56.0049 211.456 56.3588 211.456 56.7135C211.468 58.852 212.597 60.8285 214.432 61.925C214.469 62.0123 214.504 62.1022 214.538 62.1894C214.942 63.2471 215.246 64.4898 215.111 65.6268C215.111 65.7088 215.088 65.7934 215.074 65.8753C215.061 65.9573 214.995 65.9626 214.961 66.0075C214.961 66.0075 209.746 66.0604 208.519 64.9499C207.293 63.8394 205.422 67.6654 205.422 67.6654C205.422 67.6654 203.553 68.0276 203.178 67.6654C202.802 67.3032 200.616 67.6152 200.616 67.6152C199.721 66.8184 198.555 66.3929 197.357 66.4253C196.631 65.8735 195.83 65.4283 194.978 65.1033L194.92 65.0821C194.544 64.945 194.142 64.8944 193.744 64.934C193.744 64.934 191.18 62.8187 190.432 61.6765C189.684 60.5342 186.124 56.3169 186.108 56.2984V56.0948L186.068 55.4813C185.962 55.4979 185.856 55.5068 185.748 55.5078C185.73 55.447 185.704 55.3756 185.677 55.2936C185.472 54.6953 185.219 54.1143 184.921 53.5564C184.921 53.5564 184.921 52.7817 185.146 52.586C185.37 52.3904 185.053 49.548 185.053 49.548C185.053 49.548 182.743 44.146 180.674 48.1783C180.674 48.1783 176.762 50.788 180.044 53.8288C180.044 53.8288 181.366 54.4634 181.541 54.9657C181.662 55.291 182.106 56.2032 182.405 56.8166L182.54 57.081L182.503 57.1128L182.55 57.6204L182.571 57.8161C181.953 58.1677 181.533 58.5168 181.636 58.7785C181.818 59.2265 181.943 59.6955 182.008 60.1746C182.008 60.1746 186.549 65.8648 187.136 68.2947C187.136 68.2947 199.313 75.5343 203.318 76.0499L202.609 79.6591C202.506 80.6384 202.453 81.6225 202.451 82.6073C202.504 83.382 201.97 86.8987 201.97 86.8987C201.97 86.8987 201.274 92.0705 200.688 92.795C200.101 93.5195 200.207 96.621 200.207 96.621C200.068 98.1058 199.803 99.576 199.414 101.016C198.827 102.98 199.252 105.413 199.252 105.413C199.252 105.413 197.225 110.066 202.083 106.912C202.083 106.912 204.462 106.764 207.216 106.669C207.216 106.759 207.216 106.851 207.216 106.933C207.216 107.287 207.216 107.671 207.198 108.073C207.161 110.738 207.145 114.419 207.267 117.19C207.481 122.102 208.977 131.825 208.977 131.825V136.719C208.88 137.178 208.832 137.646 208.834 138.115C208.802 139.837 209.261 141.533 210.156 143.004L210.531 146.262C210.531 146.262 211.408 148.409 211.424 149.699C211.421 149.803 211.408 149.906 211.387 150.008C211.353 150.173 211.339 150.34 211.345 150.508C211.295 151.989 212.185 155.532 212.185 155.532C212.185 155.532 212.238 159.099 212.772 159.308C213.23 159.485 212.162 161.362 211.844 161.901C211.836 161.868 211.83 161.835 211.826 161.801L211.76 161.907C211.65 162.196 211.593 162.502 211.593 162.811C211.532 163.308 211.763 163.796 212.185 164.064C213.2 164.686 213.745 165.201 212.883 165.408C212.566 165.457 212.252 165.523 211.942 165.606C211.942 165.566 211.911 165.524 211.897 165.487C211.647 165.585 211.5 165.846 211.546 166.111C211.554 166.53 211.662 166.942 211.86 167.311C212.714 169.226 213.306 169.955 213.306 169.955L213.716 169.91C213.655 170.067 213.575 170.215 213.478 170.352C213.322 170.574 213.115 170.755 212.875 170.881C212.652 171.015 212.402 171.1 212.143 171.132C211.558 171.151 211.008 171.418 210.631 171.867C210.103 172.557 209.764 173.496 210.816 174.321L214.636 175.643C214.636 175.643 221.207 176.497 220.858 175.022C220.509 173.546 220.297 172.256 220.297 172.256C220.326 171.355 220.145 170.46 219.769 169.641C219.7 169.507 219.622 169.378 219.536 169.255L219.769 169.231C219.769 169.231 220.25 165.971 220.889 165.352C221.037 165.209 221.072 165.088 221.037 165.014C221.104 164.836 220.934 164.733 220.72 164.673L220.673 164.802C220.463 164.756 220.25 164.733 220.036 164.731C220.036 164.731 219.822 163.025 220.517 162.404C220.63 162.261 220.679 162.077 220.652 161.896C220.657 161.662 220.632 161.428 220.578 161.201C220.571 161.215 220.563 161.23 220.554 161.243C220.205 159.694 219.021 157.232 219.021 157.232C219.021 157.232 218.968 155.683 219.396 155.061C219.824 154.44 219.341 146.632 219.341 146.632C219.341 146.632 219.502 142.859 219.021 141.1C218.54 139.342 219.607 137.272 219.607 137.272C219.607 137.272 219.607 137.232 219.607 137.161V137.134L219.547 136.539C219.545 136.551 219.545 136.564 219.547 136.576C219.438 135.577 219.235 133.766 219.084 132.93C218.87 131.74 219.14 126.055 219.14 126.055L220.099 123.623L221.809 127.814L223.625 133.398C223.625 133.398 224.524 134.577 224.545 135.778C224.545 135.836 224.545 135.894 224.545 135.952C224.53 136.076 224.523 136.2 224.524 136.325C224.492 137.031 224.685 137.728 225.076 138.316C225.076 138.316 225.557 140.96 226.305 141.624C227.053 142.287 227.053 143.588 227.053 143.588C227.053 143.588 227.96 147.417 228.375 148.083C228.734 148.649 228.753 150.199 228.75 150.683C228.75 150.77 228.75 150.82 228.75 150.82C228.75 150.82 228.877 152.19 228.872 153.337C228.872 153.48 228.872 153.617 228.872 153.747C228.873 153.737 228.873 153.728 228.872 153.718C228.872 154.031 228.834 154.344 228.761 154.649L228.745 154.702C228.745 154.635 228.745 154.572 228.763 154.509C228.578 155.288 228.489 156.087 228.499 156.888C228.475 158.263 228.684 159.892 229.517 160.854C230.96 162.51 231.867 162.303 231.867 162.303C231.867 162.303 231.174 164.371 230.318 164.786C230.285 164.802 230.255 164.821 230.228 164.844C230.228 164.802 230.212 164.762 230.207 164.723C230.014 164.931 229.918 165.212 229.942 165.495C229.881 166.404 230.455 167.875 231 168.559C231.202 168.757 231.45 168.903 231.721 168.982C231.678 169.013 231.633 169.04 231.586 169.064C231.491 169.117 231.393 169.163 231.293 169.205C231.154 169.264 231.007 169.302 230.857 169.318C230.271 169.334 229.719 169.602 229.345 170.053C228.816 170.741 228.478 171.679 229.53 172.504L233.349 173.826C233.349 173.826 239.878 174.665 239.534 173.192Z" fill="url(#paint0_linear)"/>
<path d="M214.448 175.635L210.747 174.313C209.727 173.488 210.052 172.549 210.567 171.859C210.926 171.414 211.46 171.146 212.032 171.124C212.282 171.092 212.523 171.006 212.737 170.873C212.972 170.745 213.173 170.564 213.324 170.344C213.594 169.915 213.74 169.42 213.744 168.914C213.744 168.914 217.804 167.724 218.915 168.914C219.113 169.129 219.278 169.372 219.406 169.635C219.775 170.457 219.956 171.35 219.935 172.25C219.935 172.25 220.141 173.541 220.477 175.016C220.812 176.492 214.448 175.635 214.448 175.635Z" fill="#2D293D"/>
<path d="M232.537 173.811L228.837 172.489C227.817 171.664 228.142 170.725 228.657 170.037C229.013 169.59 229.548 169.322 230.119 169.302C230.265 169.287 230.408 169.249 230.542 169.189C230.64 169.147 230.735 169.101 230.827 169.049C231.861 168.48 231.834 167.084 231.834 167.084C231.834 167.084 235.892 165.894 237.004 167.084C237.153 167.245 237.284 167.423 237.393 167.613C238.088 168.816 238.011 170.421 238.011 170.421C238.011 170.421 238.218 171.714 238.54 173.187C238.862 174.659 232.537 173.811 232.537 173.811Z" fill="#2D293D"/>
<path opacity="0.1" d="M218.918 168.911C219.116 169.126 219.281 169.37 219.409 169.633L213.33 170.339C213.6 169.91 213.746 169.415 213.75 168.908C213.75 168.908 217.808 167.721 218.918 168.911Z" fill="black"/>
<path opacity="0.1" d="M237.4 167.618V168.758C236.454 170.315 231.878 169.974 230.549 169.194C230.647 169.153 230.742 169.106 230.834 169.054C231.868 168.485 231.841 167.089 231.841 167.089C231.841 167.089 235.899 165.9 237.011 167.089C237.16 167.251 237.291 167.428 237.4 167.618Z" fill="black"/>
<path d="M238.121 162.705C237.838 163.202 237.597 163.721 237.399 164.257V168.343C236.363 170.048 230.99 169.48 230.263 168.549C229.536 167.618 228.777 165.196 229.594 164.776C230.411 164.355 231.093 162.293 231.093 162.293C231.093 162.293 230.212 162.499 228.817 160.844C227.421 159.189 227.836 155.519 228.095 154.641C228.354 153.763 228.095 150.815 228.095 150.815C228.095 150.815 228.148 148.744 227.736 148.073C227.323 147.401 226.443 143.578 226.443 143.578C226.443 143.578 226.443 142.285 225.719 141.613C224.995 140.942 224.53 138.303 224.53 138.303C224.106 137.643 223.924 136.858 224.014 136.079C224.168 134.786 223.134 133.39 223.134 133.39L221.376 127.803L219.722 123.615L218.791 126.045C218.791 126.045 218.527 131.732 218.741 132.919C218.955 134.107 219.27 137.264 219.27 137.264C219.27 137.264 218.236 139.331 218.701 141.09C219.167 142.848 218.997 146.627 218.997 146.627C218.997 146.627 219.463 154.432 219.048 155.053C218.633 155.675 218.686 157.227 218.686 157.227C218.686 157.227 220.8 161.775 220.134 162.396C219.468 163.017 219.669 164.723 219.669 164.723C219.669 164.723 221.115 164.723 220.496 165.344C219.878 165.966 219.41 169.223 219.41 169.223L213.159 169.955C213.159 169.955 212.588 169.234 211.76 167.311C210.933 165.389 211.914 165.606 212.746 165.397C213.579 165.188 213.053 164.675 212.07 164.054C211.086 163.432 211.657 162.036 211.657 162.036C211.657 162.036 213.156 159.503 212.638 159.297C212.12 159.091 212.07 155.521 212.07 155.521C212.07 155.521 211.036 151.291 211.295 150.143C211.554 148.996 210.468 146.267 210.468 146.267L210.106 143.009C209 141.161 208.596 138.976 208.969 136.854V131.83C208.969 131.83 207.521 122.11 207.315 117.198C207.182 114.051 207.219 109.757 207.262 107.079C207.288 105.577 207.315 104.58 207.315 104.58L229.644 102.253C229.644 102.253 229.623 103.284 230.049 105.571C230.279 106.798 230.635 108.387 231.196 110.373C232.797 116.061 231.817 120.299 231.817 120.299L231.608 127.488C231.608 127.488 233.572 132.295 233.16 133.951C232.91 134.933 232.77 135.941 232.742 136.954C232.742 136.954 237.135 147.451 236.67 150.503C236.205 153.554 238.116 158.364 238.116 158.364C238.116 158.364 238.639 161.775 238.121 162.705Z" fill="#464353"/>
<path opacity="0.05" d="M225.354 135.767L232.152 134.86C232.152 134.86 228.301 138.792 225.354 135.767Z" fill="black"/>
<path opacity="0.1" d="M231.169 128.216C231.169 128.216 231.402 130.622 229.93 131.526C229.93 131.526 232.565 131.114 231.169 128.216Z" fill="black"/>
<path opacity="0.1" d="M230.751 120.563C230.751 120.563 225.068 125.244 223.001 124.855C220.934 124.466 230.751 120.563 230.751 120.563Z" fill="black"/>
<path opacity="0.1" d="M216.927 137.962C216.927 137.962 212.611 138.943 212.481 140.677C212.352 142.412 216.927 137.962 216.927 137.962Z" fill="black"/>
<path opacity="0.05" d="M217.877 159.527C217.877 159.527 211.779 160.664 213.511 161.439C215.242 162.214 218.086 162.835 218.086 162.835C218.086 162.835 220.055 162.938 217.877 159.527Z" fill="black"/>
<g opacity="0.05">
<path d="M212.279 162.671C211.968 162.477 211.763 162.152 211.721 161.788L211.658 161.896C211.658 161.896 211.089 163.292 212.072 163.911C212.183 163.982 212.292 164.054 212.39 164.123C212.572 164.088 212.768 164.062 212.955 164.014C213.788 163.808 213.262 163.292 212.279 162.671Z" fill="black"/>
<path d="M220.135 162.256C220.304 162.103 220.299 161.706 220.196 161.198C219.932 161.598 219.855 162.222 219.85 162.695C219.914 162.531 220.011 162.381 220.135 162.256Z" fill="black"/>
<path d="M219.196 136.531C218.971 137.143 218.832 137.783 218.783 138.432C218.901 137.984 219.059 137.546 219.256 137.126L219.196 136.531Z" fill="black"/>
<path d="M233.163 133.819C233.204 133.633 233.222 133.443 233.218 133.253C233.142 133.639 233.089 133.996 233.049 134.31C233.084 134.149 233.121 133.996 233.163 133.819Z" fill="black"/>
<path d="M219.052 154.916C219.136 154.789 219.184 154.361 219.205 153.766C219.014 154.226 218.912 154.719 218.906 155.217C218.942 155.111 218.991 155.01 219.052 154.916Z" fill="black"/>
<path d="M220.32 164.667C219.999 165.704 219.761 166.765 219.609 167.84L213.357 168.562C213.357 168.562 212.787 167.84 211.959 165.918C211.892 165.769 211.833 165.618 211.782 165.463C211.407 165.635 211.253 166.024 211.75 167.158C212.578 169.072 213.151 169.802 213.151 169.802L219.402 169.078C219.402 169.078 219.868 165.82 220.486 165.199C220.803 164.9 220.608 164.744 220.32 164.667Z" fill="black"/>
<path d="M212.073 155.381C212.073 155.381 212.124 158.948 212.642 159.154C212.906 158.565 213.078 158.004 212.845 157.912C212.316 157.705 212.277 154.136 212.277 154.136C212.277 154.136 211.243 149.905 211.502 148.758C211.761 147.61 210.675 144.881 210.675 144.881L210.313 141.624C209.207 139.775 208.803 137.59 209.176 135.468V130.445C209.176 130.445 207.728 120.725 207.522 115.812C207.39 112.666 207.427 108.372 207.469 105.693C207.469 105.209 207.485 104.781 207.493 104.419L207.316 104.437C207.316 104.437 207.287 105.431 207.263 106.936C207.22 109.614 207.181 113.908 207.316 117.052C207.522 121.965 208.968 131.687 208.968 131.687V136.711C208.597 138.832 209.001 141.016 210.107 142.864L210.466 146.121C210.466 146.121 211.553 148.861 211.294 150C211.035 151.14 212.073 155.381 212.073 155.381Z" fill="black"/>
<path d="M230.474 167.169C229.966 166.433 229.627 165.594 229.482 164.712C228.845 165.289 229.578 167.525 230.275 168.414C230.997 169.345 236.373 169.913 237.412 168.205V167.221C236.003 168.604 231.156 168.049 230.474 167.169Z" fill="black"/>
<path d="M238.33 161.325C238.046 161.822 237.804 162.341 237.605 162.877V163.61C237.724 163.345 237.891 162.991 238.134 162.573C238.298 162.166 238.375 161.729 238.361 161.291C238.361 161.291 238.338 161.315 238.33 161.325Z" fill="black"/>
<path d="M230.791 162.142C230.987 161.744 231.158 161.333 231.301 160.913C231.301 160.913 230.421 161.119 229.025 159.464C228.01 158.261 227.952 155.987 228.097 154.501C227.833 155.381 227.423 159.051 228.819 160.706C229.731 161.788 230.421 162.073 230.791 162.142Z" fill="black"/>
<path d="M228.096 150.675C228.188 151.693 228.222 152.717 228.199 153.739C228.225 153.578 228.261 153.418 228.305 153.261C228.569 152.38 228.305 149.435 228.305 149.435C228.305 149.435 228.358 147.364 227.943 146.693C227.528 146.021 226.664 142.192 226.664 142.192C226.664 142.192 226.664 140.899 225.939 140.228C225.215 139.556 224.75 136.917 224.75 136.917C224.323 136.259 224.136 135.474 224.221 134.694C224.377 133.401 223.344 132.005 223.344 132.005L221.586 126.42L219.932 122.232L218.999 124.665C218.999 124.665 218.999 124.971 218.967 125.458L219.723 123.483L221.377 127.663L223.135 133.247C223.135 133.247 224.169 134.643 224.013 135.936C223.927 136.716 224.114 137.502 224.541 138.16C224.541 138.16 225.006 140.804 225.731 141.47C226.455 142.137 226.452 143.435 226.452 143.435C226.452 143.435 227.332 147.261 227.745 147.93C228.157 148.599 228.096 150.675 228.096 150.675Z" fill="black"/>
</g>
<path d="M232.435 55.5395L232.047 57.4274L232.071 58.2683L232.087 58.887L229.93 59.1091L229.689 58.6622C229.242 57.8531 228.315 56.2085 228.016 55.9547C227.617 55.6215 226.906 50.3703 227.752 50.6823C228.272 50.8835 228.7 51.2707 228.952 51.769C228.952 51.769 233.199 52.2556 232.435 55.5395Z" fill="#FFCDD3"/>
<path opacity="0.1" d="M232.087 58.8869L229.93 59.1091L229.689 58.6622C230.288 57.9809 231.284 57.8171 232.068 58.2709L232.087 58.8869Z" fill="black"/>
<path d="M232.631 59.9102L229.786 60.5686L229.726 60.1455L229.564 59.0059C229.564 59.0059 230.69 57.5041 232.319 58.6305L232.461 59.2095L232.631 59.9102Z" fill="#9E7E44"/>
<path d="M186.56 55.7458L183.523 57.3746L183.258 56.8034C182.97 56.1979 182.539 55.2857 182.421 54.9525C182.241 54.4502 180.975 53.8156 180.975 53.8156C177.803 50.7775 181.583 48.1651 181.583 48.1651C183.586 44.1328 185.812 49.5348 185.812 49.5348C185.812 49.5348 186.124 52.3825 185.904 52.5728C185.685 52.7632 185.685 53.5432 185.685 53.5432C185.974 54.1021 186.219 54.683 186.417 55.2804C186.51 55.5686 186.56 55.7458 186.56 55.7458Z" fill="#FFCDD3"/>
<path opacity="0.1" d="M186.561 55.7458L183.524 57.3746L183.26 56.8035C183.688 56.4439 185.208 55.217 185.707 55.2672C185.946 55.297 186.187 55.3032 186.426 55.2858C186.511 55.5687 186.561 55.7458 186.561 55.7458Z" fill="black"/>
<path d="M186.87 56.6633L183.458 58.345L183.389 57.6126L183.342 57.1049C183.342 57.1049 185.319 55.41 185.903 55.4761C186.198 55.5189 186.498 55.5189 186.794 55.4761L186.833 56.0896L186.87 56.6633Z" fill="#9E7E44"/>
<path d="M224.164 68.0806C224.164 68.0806 209.288 69.7596 212.069 68.8553C214.004 68.2234 214.773 67.0044 214.934 65.6295C215.066 64.4846 214.77 63.2498 214.382 62.1922C214.032 61.2539 213.589 60.353 213.06 59.5031C213.06 59.5031 224.426 53.2471 222.155 58.9346C221.805 59.7949 221.588 60.7034 221.51 61.629C221.442 62.5488 221.542 63.4734 221.804 64.3577C222.233 65.7925 223.049 67.0809 224.164 68.0806Z" fill="#FFCDD3"/>
<path opacity="0.1" d="M222.148 58.9267C221.798 59.7869 221.58 60.6954 221.503 61.621C220.432 62.5227 219.259 62.4619 217.75 62.4619C216.592 62.4619 215.307 62.7421 214.382 62.1842C214.033 61.246 213.59 60.3451 213.061 59.4952C213.061 59.4952 224.424 53.2392 222.148 58.9267Z" fill="black"/>
<path d="M217.549 62.8584C220.946 62.8584 223.7 60.1037 223.7 56.7056C223.7 53.3075 220.946 50.5527 217.549 50.5527C214.152 50.5527 211.398 53.3075 211.398 56.7056C211.398 60.1037 214.152 62.8584 217.549 62.8584Z" fill="#FFCDD3"/>
<path opacity="0.1" d="M224.164 68.0805C224.164 68.0805 209.288 69.7596 212.069 68.8553C214.004 68.2233 214.773 67.0044 214.934 65.6295C215.674 64.8362 217.162 64.2466 218.106 63.9399C218.978 63.6464 219.92 63.6307 220.802 63.8949C221.149 63.9994 221.479 64.1525 221.783 64.3497C222.216 65.7898 223.04 67.0814 224.164 68.0805Z" fill="black"/>
<path opacity="0.1" d="M232.631 59.9102L229.787 60.5686L229.727 60.1455C230.35 59.2883 231.444 58.914 232.462 59.2095L232.631 59.9102Z" fill="black"/>
<path opacity="0.1" d="M186.87 56.6633L183.457 58.345L183.389 57.6126C184.494 57.0181 185.643 56.5081 186.825 56.0869L186.87 56.6633Z" fill="black"/>
<path opacity="0.1" d="M230.049 105.577C224.284 106.497 216.09 107.671 214.789 107.274C213.708 106.946 210.262 106.981 207.262 107.084C207.288 105.582 207.315 104.585 207.315 104.585L229.644 102.258C229.644 102.258 229.623 103.29 230.049 105.577Z" fill="black"/>
<path d="M235.795 104.223C235.795 104.223 216.825 107.48 214.79 106.867C212.755 106.254 202.301 106.917 202.301 106.917C197.596 110.072 199.56 105.418 199.56 105.418C199.56 105.418 199.148 102.988 199.716 101.023C200.098 99.5811 200.358 98.1094 200.496 96.6237C200.496 96.6237 200.393 93.5195 200.961 92.795C201.529 92.0705 202.203 86.9013 202.203 86.9013C202.203 86.9013 202.719 83.3846 202.668 82.6099C202.618 81.8352 202.822 79.6617 202.822 79.6617L203.496 76.0419C199.618 75.5263 187.832 68.2867 187.832 68.2867C187.264 65.8568 182.871 60.1693 182.871 60.1693C182.807 59.691 182.685 59.2223 182.509 58.7732C182.2 57.9456 186.852 56.2904 186.852 56.2904C186.852 56.2904 190.314 60.521 191.038 61.6685C191.763 62.8161 194.242 64.9261 194.242 64.9261C194.627 64.8864 195.016 64.9371 195.379 65.0741L195.439 65.0926C196.27 65.4189 197.049 65.8643 197.752 66.4147C198.918 66.387 200.048 66.8137 200.905 67.6046C200.905 67.6046 203.02 67.2925 203.387 67.6548C203.755 68.017 205.557 67.6548 205.557 67.6548C205.557 67.6548 207.365 63.8288 208.555 64.9393C209.744 66.0498 214.79 65.9969 214.79 65.9969C215.461 65.1032 217.097 64.4634 218.12 64.1461C218.993 63.8538 219.935 63.8381 220.816 64.1011C221.197 64.2147 221.555 64.3936 221.874 64.6299L224.942 67.6284C224.942 67.6284 225.82 66.4887 225.717 66.2323C225.614 65.9758 226.75 65.7669 226.75 65.7669C226.75 65.7669 228.249 65.3015 228.817 65.1455C229.386 64.9895 229.906 65.6056 229.954 65.6611C229.935 65.595 229.547 64.3391 229.69 63.3872C229.832 62.4353 229.068 61.5363 229.068 61.5363C230.876 57.0889 234.96 60.8118 234.96 60.8118C234.96 60.8118 235.425 63.2418 235.013 64.1725C234.601 65.1032 235.425 67.0678 235.322 67.586C235.219 68.1043 235.531 68.9821 235.531 69.9657C235.531 70.9494 235.002 72.8082 234.704 73.6358C234.405 74.4634 231.912 76.3248 231.912 76.3248C231.912 76.3248 231.756 79.273 230.67 80.9785C229.584 82.6839 230.266 88.5168 230.266 88.5168C230.266 88.5168 231.299 93.0673 232.592 94.5163C233.884 95.9653 235.795 104.223 235.795 104.223Z" fill="#3F3D56"/>
<path opacity="0.1" d="M208.142 70.1985C208.142 70.1985 207.573 68.4931 207.055 68.3477C206.541 68.1584 206.04 67.934 205.557 67.676L205.89 67.0388C205.89 67.0388 207.83 67.5676 208.142 68.1414C208.454 68.7152 208.142 70.1985 208.142 70.1985Z" fill="black"/>
<path opacity="0.1" d="M197.752 66.4254C197.649 66.9542 193.047 67.4063 193.047 67.4063L195.373 65.0742L195.431 65.0954C196.265 65.4234 197.047 65.8715 197.752 66.4254Z" fill="black"/>
<path d="M184.44 59.741C184.667 59.741 184.852 59.5563 184.852 59.3285C184.852 59.1007 184.667 58.916 184.44 58.916C184.212 58.916 184.027 59.1007 184.027 59.3285C184.027 59.5563 184.212 59.741 184.44 59.741Z" fill="#575988"/>
<path d="M184.969 60.5686C185.197 60.5686 185.381 60.3839 185.381 60.1561C185.381 59.9283 185.197 59.7437 184.969 59.7437C184.741 59.7437 184.557 59.9283 184.557 60.1561C184.557 60.3839 184.741 60.5686 184.969 60.5686Z" fill="#575988"/>
<path d="M185.487 61.3328C185.714 61.3328 185.899 61.1481 185.899 60.9203C185.899 60.6925 185.714 60.5078 185.487 60.5078C185.259 60.5078 185.074 60.6925 185.074 60.9203C185.074 61.1481 185.259 61.3328 185.487 61.3328Z" fill="#575988"/>
<path d="M186.03 62.1577C186.257 62.1577 186.442 61.9731 186.442 61.7452C186.442 61.5174 186.257 61.3328 186.03 61.3328C185.802 61.3328 185.617 61.5174 185.617 61.7452C185.617 61.9731 185.802 62.1577 186.03 62.1577Z" fill="#575988"/>
<path d="M234.754 62.0361C234.939 62.0361 235.089 61.8858 235.089 61.7003C235.089 61.5148 234.939 61.3645 234.754 61.3645C234.568 61.3645 234.418 61.5148 234.418 61.7003C234.418 61.8858 234.568 62.0361 234.754 62.0361Z" fill="#575988"/>
<path d="M234.806 62.8003C234.992 62.8003 235.142 62.6499 235.142 62.4645C235.142 62.279 234.992 62.1287 234.806 62.1287C234.621 62.1287 234.471 62.279 234.471 62.4645C234.471 62.6499 234.621 62.8003 234.806 62.8003Z" fill="#575988"/>
<path d="M234.851 63.5617C235.037 63.5617 235.187 63.4114 235.187 63.2259C235.187 63.0405 235.037 62.8901 234.851 62.8901C234.666 62.8901 234.516 63.0405 234.516 63.2259C234.516 63.4114 234.666 63.5617 234.851 63.5617Z" fill="#575988"/>
<path opacity="0.1" d="M208.16 84.2122C208.11 84.1514 219.764 98.8712 228.809 90.3651C228.817 90.3677 214.525 92.3058 208.16 84.2122Z" fill="black"/>
<path opacity="0.1" d="M201.473 91.8644C201.473 91.8644 208.445 92.0548 209.175 94.0616V96.1505C208.771 96.3745 208.281 96.3745 207.877 96.1505C207.174 95.7697 202.958 93.628 201.473 94.6592V91.8644Z" fill="black"/>
<path d="M201.604 91.8644C201.604 91.8644 208.272 92.0468 208.97 93.9612V95.9495C208.584 96.1642 208.114 96.1642 207.728 95.9495C207.056 95.5899 203.026 93.546 201.604 94.5296L201.604 91.8644Z" fill="#3F3D56"/>
<path opacity="0.1" d="M205.279 76.7189C205.992 78.3684 206.899 79.9263 207.983 81.3593C209.162 82.9431 210.59 84.3247 212.212 85.4497C212.212 85.4497 205.396 77.676 205.279 76.7189Z" fill="black"/>
<path opacity="0.1" d="M202.998 68.6146C202.998 68.6146 204.161 73.6384 207.158 75.3439L202.998 68.6146Z" fill="black"/>
<path opacity="0.1" d="M201.213 69.1223C201.184 69.0297 200.18 73.0884 205.078 75.3439C205.078 75.3439 202.997 74.6379 201.213 69.1223Z" fill="black"/>
<path opacity="0.1" d="M231.66 65.7537C231.583 65.7537 234.076 67.3402 234.755 68.0805C234.755 68.0805 233.132 65.648 231.66 65.7537Z" fill="black"/>
<path d="M215.887 62.282C215.889 62.5534 216.004 62.8116 216.205 62.994C216.406 63.1764 216.674 63.2663 216.944 63.2418C218.818 63.3582 220.771 63.4402 222.495 62.713C222.818 62.5976 223.108 62.4052 223.341 62.1525C223.647 61.7744 223.708 61.2614 223.832 60.7908C224.075 59.8706 224.593 59.0536 224.966 58.1784C225.597 56.6997 225.808 55.0759 225.577 53.4851C225.528 52.9974 225.367 52.5277 225.106 52.1128C224.609 51.4015 223.703 51.1133 223.045 50.5475C222.386 49.9816 221.963 49.117 221.194 48.6966C220.502 48.3106 219.653 48.3581 218.874 48.4904C217.34 48.7509 215.87 49.3029 214.544 50.1165C214.097 50.3809 213.608 50.7061 213.096 50.6083C212.646 50.5237 212.319 50.1456 212.038 49.7913C211.678 50.6374 211.526 51.558 211.597 52.475C211.616 52.6096 211.612 52.7466 211.584 52.8796C211.519 53.0404 211.421 53.1855 211.296 53.3053C210.833 53.8341 210.545 54.6934 211.002 55.2381C211.2 55.4734 211.507 55.603 211.7 55.8436C212.046 56.2746 211.93 56.9013 211.922 57.4512C211.903 57.6433 211.952 57.836 212.059 57.9959C212.263 58.1856 212.551 58.2548 212.818 58.1784C213.08 58.0995 213.355 58.0734 213.627 58.1017C213.913 58.1949 214.161 58.381 214.33 58.6305C215.184 59.7437 215.522 60.9547 215.887 62.282Z" fill="#2D293D"/>
<g opacity="0.1">
<path d="M223.558 61.6844C223.326 61.9372 223.035 62.1296 222.712 62.245C220.978 62.9668 219.027 62.8849 217.161 62.7738C216.961 62.7758 216.763 62.7315 216.583 62.6442C216.297 62.4777 216.189 62.1286 216.101 61.8113C215.737 60.4893 215.401 59.2756 214.534 58.173C214.367 57.9187 214.119 57.7278 213.831 57.631C213.559 57.6053 213.285 57.6314 213.022 57.7077C212.755 57.7848 212.468 57.7166 212.264 57.5279C212.156 57.3679 212.107 57.1752 212.126 56.9832C212.126 56.4279 212.25 55.8066 211.904 55.3756C211.711 55.135 211.405 55.0054 211.206 54.7674C210.943 54.41 210.897 53.9366 211.087 53.5353C210.757 54.0641 210.617 54.7278 211 55.1826C211.198 55.4179 211.505 55.5474 211.698 55.7881C212.044 56.2217 211.928 56.8457 211.92 57.3957C211.9 57.5874 211.947 57.7802 212.055 57.9404C212.259 58.131 212.548 58.2003 212.816 58.1228C213.078 58.0439 213.353 58.0178 213.625 58.0461C213.911 58.1393 214.159 58.3254 214.328 58.575C215.192 59.6775 215.531 60.8885 215.895 62.2159C215.938 62.5425 216.101 62.8414 216.353 63.0541C216.534 63.1414 216.733 63.1849 216.934 63.181C218.808 63.2973 220.761 63.3819 222.485 62.6522C222.808 62.5375 223.099 62.345 223.331 62.0916C223.447 61.9427 223.537 61.7744 223.595 61.5945C223.598 61.6289 223.579 61.658 223.558 61.6844Z" fill="black"/>
<path d="M211.595 52.7183C211.679 52.6281 211.742 52.5219 211.783 52.4063C211.807 52.2725 211.807 52.1355 211.783 52.0017C211.732 51.2479 211.83 50.4913 212.071 49.7754L212.037 49.7357C211.675 50.5806 211.524 51.5006 211.595 52.4168C211.603 52.5172 211.603 52.618 211.595 52.7183Z" fill="black"/>
</g>
<path opacity="0.1" d="M214.789 66.0102C214.789 66.0102 222.473 67.0308 223.163 65.8754L214.789 66.0102Z" fill="black"/>
<path opacity="0.1" d="M229.727 62.8293C229.727 62.8293 233.998 62.8293 234.936 64.437L229.727 62.8293Z" fill="black"/>
<path d="M253.623 205.651C252.356 206.784 250.71 207.399 249.011 207.375C248.577 207.375 247.977 207.457 247.975 207.891C247.985 208.018 248.029 208.14 248.101 208.245C248.638 209.139 249.485 209.805 250.48 210.114C251.405 210.395 252.394 210.347 253.359 210.297L256.174 210.151C256.702 210.122 257.231 210.096 257.76 210.03C258.288 209.964 258.864 209.855 259.417 209.765C260.774 209.572 262.147 209.509 263.516 209.575C263.881 209.588 264.309 209.575 264.526 209.311C264.743 209.046 264.632 208.541 264.55 208.144C264.381 207.327 264.55 206.471 264.394 205.651C264.13 204.213 262.885 203.11 261.521 202.589C260.252 202.108 258.005 201.555 256.805 202.359C255.539 203.203 254.765 204.612 253.623 205.651Z" fill="#3F3D56"/>
<path d="M256.42 157.459C256.668 158.641 257.813 159.546 257.845 160.751C257.874 161.719 257.184 162.531 256.687 163.358C256.219 164.216 255.823 165.111 255.505 166.034C254.57 168.439 253.409 170.75 252.038 172.935C251.377 173.993 250.637 175.122 250.787 176.352C250.893 176.927 251.096 177.479 251.387 177.986L253.37 181.925C253.804 182.712 254.144 183.547 254.382 184.414C254.554 185.162 254.57 185.937 254.67 186.698C254.982 189.115 256.116 191.547 255.445 193.89C255.386 194.091 255.18 194.334 255.019 194.194C255.675 195.418 256.201 196.65 256.15 198.039C256.124 198.766 255.902 199.525 256.169 200.201C256.282 200.484 256.481 200.749 256.478 201.053C256.478 201.254 256.386 201.442 256.364 201.637C256.309 202.195 256.822 202.661 257.353 202.838C257.884 203.015 258.463 203.002 259 203.163C260.03 203.472 260.768 204.361 261.643 204.977C262.54 205.595 263.598 205.94 264.688 205.968C264.843 205.985 265 205.953 265.137 205.878C265.294 205.741 265.385 205.543 265.386 205.334C265.483 204.331 265.074 203.345 264.297 202.705C264.129 202.6 263.99 202.455 263.892 202.282C263.843 202.13 263.83 201.968 263.855 201.809C264.015 199.642 263.976 197.465 263.739 195.305C263.632 194.62 263.597 193.926 263.636 193.234C263.691 192.658 263.866 192.087 263.802 191.513C263.739 190.939 263.445 190.416 263.274 189.863C262.967 188.879 263.052 187.822 263.009 186.793C262.956 185.006 262.547 183.25 262.14 181.505C261.979 180.82 261.801 180.104 261.318 179.596C260.905 179.165 260.239 178.752 260.395 178.179C260.482 177.967 260.61 177.776 260.773 177.615C261.16 177.13 261.33 176.506 261.244 175.892C261.602 175.983 261.975 175.808 262.134 175.474C265.354 173.953 267.949 170.913 269.107 167.541C269.175 167.291 269.281 167.052 269.419 166.833C269.718 166.415 270.236 166.235 270.696 166.005C272.139 165.278 273.135 163.916 274.05 162.584C274.579 161.812 275.107 161.013 275.345 160.104C275.47 159.515 275.529 158.915 275.522 158.313L275.604 155.207C275.622 155.002 275.602 154.796 275.546 154.599C275.468 154.414 275.353 154.247 275.21 154.107C274.331 153.177 273.177 152.554 271.917 152.33C271.071 152.179 270.207 152.208 269.35 152.137C267.69 151.999 266.052 151.484 264.392 151.608C261.783 151.801 259.46 153.61 258.23 155.921C257.8 156.735 257.345 157.444 256.42 157.459Z" fill="#464353"/>
<path d="M241.935 137.259C241.971 137.738 241.906 138.22 241.745 138.673C241.542 139.107 241.031 139.445 240.585 139.268C240.72 138.964 240.363 138.618 240.03 138.655C239.697 138.731 239.423 138.967 239.298 139.284C239.077 139.728 239.003 140.231 239.086 140.72C239.192 141.328 239.543 141.912 239.451 142.523C239.377 143.031 239.004 143.536 239.202 144.006C239.331 144.221 239.492 144.415 239.681 144.58C240.223 145.248 240.148 146.224 239.509 146.801L244.51 146.902C244.327 147.737 244.703 148.591 245.131 149.334C247.562 153.475 251.792 156.238 256.56 156.798C256.303 156.949 256.126 157.207 256.08 157.502C256.033 157.796 256.121 158.096 256.32 158.319C256.727 158.723 257.416 158.673 257.927 158.411C258.437 158.15 258.836 157.716 259.301 157.38C260.122 156.798 261.124 156.528 262.127 156.619C262.753 156.68 263.361 156.883 263.99 156.915C265.84 157.013 267.426 155.68 269.208 155.135C270.505 154.736 271.978 154.736 273.067 153.924C273.537 153.575 273.923 153.002 273.786 152.436C273.672 152.111 273.492 151.812 273.257 151.561C272.631 150.749 272.261 149.773 271.811 148.85C270.921 147.023 269.695 145.38 268.198 144.006C267.068 143.018 265.87 142.11 264.614 141.288C264.31 141.064 263.986 140.868 263.646 140.704C263.208 140.511 262.721 140.418 262.325 140.175C261.738 139.805 261.4 139.152 260.948 138.626C259.957 137.467 258.434 136.936 257.213 136.026C256.394 135.416 255.669 134.612 254.691 134.318C254.216 134.173 253.711 134.162 253.235 134.019C252.154 133.692 251.366 132.732 250.306 132.343C249.468 132.036 248.543 132.116 247.663 132.007C246.671 131.885 245.723 131.524 244.901 130.955C244.636 130.739 244.339 130.566 244.021 130.442C242.681 130.035 242.572 132.531 242.435 133.395C242.258 134.681 241.935 135.958 241.935 137.259Z" fill="#9E7E44"/>
<path d="M243.241 145.63C243.465 148.068 241.626 150.429 242.162 152.816C242.276 153.324 242.495 153.808 242.575 154.324C242.799 155.738 241.954 157.079 241.147 158.263L234.222 168.43C233.944 168.876 233.612 169.287 233.234 169.651C231.912 170.828 229.925 170.709 228.185 171.058C226.964 171.309 225.81 171.82 224.802 172.555C224.708 172.628 224.689 172.763 224.76 172.859C225.343 173.654 226.289 174.098 227.273 174.041C227.456 174.279 227.273 174.633 227.022 174.805C226.652 175.069 226.139 175.13 226.065 175.762C226.04 175.982 226.085 176.204 226.192 176.397C226.472 176.823 226.906 177.124 227.403 177.237C229.8 177.973 232.391 176.682 234.185 174.929C235.98 173.176 237.267 170.963 239.028 169.181C240.003 168.192 241.11 167.348 242.115 166.391C244.118 164.48 245.678 162.161 247.179 159.837C247.631 159.136 248.088 158.417 248.276 157.605C248.464 156.793 248.376 155.971 248.591 155.186C248.871 154.157 249.624 153.335 250.25 152.473C251.48 150.78 252.302 148.71 252.138 146.624C251.974 144.538 250.684 142.481 248.717 141.772C248.107 141.53 247.436 141.489 246.801 141.656C245.995 141.904 245.4 142.571 244.851 143.21L243.529 144.728C243.207 145.064 242.955 145.46 242.786 145.894C242.612 146.34 242.716 146.847 243.051 147.19" fill="#FBBEBE"/>
<path d="M246.751 135.63C245.842 135.683 244.84 135.772 244.198 136.423C243.929 136.722 243.711 137.063 243.553 137.433C242.929 138.705 242.321 140.035 242.276 141.452C242.239 142.584 242.567 143.692 242.739 144.81C242.882 145.741 242.519 146.69 242.451 147.631C243.579 147.285 245.07 146.814 246.093 146.23C246.791 145.831 247.465 145.376 248.226 145.122C249.312 144.76 251.134 145.386 252.167 145.889C252.223 145.164 251.678 143.9 251.736 143.173C251.744 142.867 251.799 142.564 251.897 142.274C252.052 141.968 252.235 141.676 252.445 141.404C253.252 140.092 253.123 138.409 252.125 137.235C251.208 136.203 249.772 135.817 248.403 135.648C247.541 135.548 246.672 135.518 245.805 135.558" fill="#9E7E44"/>
<defs>
<linearGradient id="paint0_linear" x1="239.541" y1="175.881" x2="239.541" y2="46.6738" gradientUnits="userSpaceOnUse">
<stop stop-color="#808080" stop-opacity="0.25"/>
<stop offset="0.54" stop-color="#808080" stop-opacity="0.12"/>
<stop offset="1" stop-color="#808080" stop-opacity="0.1"/>
</linearGradient>
</defs>
</svg>
