
<svg width="362px" height="180px" viewBox="0 0 362 180" version="1.1" xmlns="http://www.w3.org/2000/svg" xmlns:xlink="http://www.w3.org/1999/xlink">
    <g id="Page-1" stroke="none" stroke-width="1" fill="none" fill-rule="evenodd" opacity="0.1">
        <g id="Pro-Page" transform="translate(-426.000000, -3122.000000)">
            <g id="Calendar" transform="translate(426.000000, 3122.000000)">
                <rect id="Rectangle" fill="#999999" x="0" y="0" width="93" height="28"></rect>
                <rect id="Rectangle-Copy-4" fill="#DDDDDD" x="0" y="38" width="93" height="28"></rect>
                <rect id="Rectangle-Copy" fill="#DDDDDD" x="100" y="0" width="93" height="28"></rect>
                <rect id="Rectangle-Copy-5" fill="#DDDDDD" x="100" y="38" width="93" height="28"></rect>
                <rect id="Rectangle-Copy-2" fill="#DDDDDD" x="200" y="0" width="93" height="28"></rect>
                <rect id="Rectangle-Copy-6" fill="#999999" x="200" y="38" width="93" height="28"></rect>
                <rect id="Rectangle-Copy-3" fill="#DDDDDD" x="300" y="0" width="62" height="28"></rect>
                <rect id="Rectangle-Copy-7" fill="#DDDDDD" x="300" y="38" width="62" height="28"></rect>
                <rect id="Rectangle-Copy-11" fill="#DDDDDD" x="0" y="76" width="93" height="28"></rect>
                <rect id="Rectangle-Copy-10" fill="#999999" x="100" y="76" width="93" height="28"></rect>
                <rect id="Rectangle-Copy-9" fill="#DDDDDD" x="200" y="76" width="93" height="28"></rect>
                <rect id="Rectangle-Copy-8" fill="#999999" x="300" y="76" width="62" height="28"></rect>
                <rect id="Rectangle-Copy-15" fill="#666666" x="0" y="114" width="93" height="28"></rect>
                <rect id="Rectangle-Copy-14" fill="#DDDDDD" x="100" y="114" width="93" height="28"></rect>
                <rect id="Rectangle-Copy-13" fill="#DDDDDD" x="200" y="114" width="93" height="28"></rect>
                <rect id="Rectangle-Copy-12" fill="#999999" x="300" y="114" width="62" height="28"></rect>
                <rect id="Rectangle-Copy-19" fill="#DDDDDD" x="0" y="152" width="93" height="28"></rect>
                <rect id="Rectangle-Copy-18" fill="#DDDDDD" x="100" y="152" width="93" height="28"></rect>
                <rect id="Rectangle-Copy-17" fill="#999999" x="200" y="152" width="93" height="28"></rect>
                <rect id="Rectangle-Copy-16" fill="#DDDDDD" x="300" y="152" width="62" height="28"></rect>
            </g>
        </g>
    </g>
</svg>