<svg width="241" height="190" viewBox="0 0 241 190" fill="none" xmlns="http://www.w3.org/2000/svg">
<rect x="10" width="231" height="153" fill="url(#paint0_linear)"/>
<rect x="13" y="18" width="226" height="130" fill="white"/>
<rect x="13" y="3" width="226" height="15" fill="#9E7E44"/>
<rect x="16" y="27" width="220" height="113" fill="url(#paint1_linear)"/>
<rect opacity="0.5" x="18" y="30" width="27" height="21" fill="#9E7E44"/>
<rect x="45" y="30" width="27" height="21" fill="white"/>
<rect opacity="0.2" x="72" y="30" width="27" height="21" fill="#9E7E44"/>
<rect x="99" y="30" width="27" height="21" fill="white"/>
<rect x="125" y="30" width="27" height="21" fill="white"/>
<rect opacity="0.5" x="152" y="30" width="27" height="21" fill="#9E7E44"/>
<rect x="178" y="30" width="27" height="21" fill="white"/>
<rect opacity="0.2" x="205" y="30" width="27" height="21" fill="#9E7E44"/>
<rect opacity="0.2" x="18" y="51" width="27" height="21" fill="#9E7E44"/>
<rect opacity="0.2" x="45" y="51" width="27" height="21" fill="#9E7E44"/>
<rect x="72" y="51" width="27" height="21" fill="white"/>
<rect opacity="0.5" x="99" y="51" width="27" height="21" fill="#9E7E44"/>
<rect x="125" y="51" width="27" height="21" fill="white"/>
<rect opacity="0.2" x="152" y="51" width="27" height="21" fill="#9E7E44"/>
<rect opacity="0.5" x="178" y="51" width="27" height="21" fill="#9E7E44"/>
<rect x="205" y="51" width="27" height="21" fill="white"/>
<rect x="18" y="72" width="27" height="21" fill="white"/>
<rect x="45" y="72" width="27" height="21" fill="white"/>
<rect opacity="0.2" x="72" y="72" width="27" height="21" fill="#9E7E44"/>
<rect x="99" y="72" width="27" height="21" fill="white"/>
<rect opacity="0.2" x="125" y="72" width="27" height="21" fill="#9E7E44"/>
<rect x="152" y="72" width="27" height="21" fill="white"/>
<rect x="178" y="72" width="27" height="21" fill="white"/>
<rect opacity="0.2" x="205" y="72" width="27" height="21" fill="#9E7E44"/>
<rect x="18" y="93" width="27" height="21" fill="white"/>
<rect opacity="0.5" x="45" y="93" width="27" height="21" fill="#9E7E44"/>
<rect opacity="0.5" x="72" y="93" width="27" height="21" fill="#9E7E44"/>
<rect x="99" y="93" width="27" height="21" fill="white"/>
<rect x="125" y="93" width="27" height="21" fill="white"/>
<rect opacity="0.5" x="152" y="93" width="27" height="21" fill="#9E7E44"/>
<rect x="178" y="93" width="27" height="21" fill="white"/>
<rect opacity="0.5" x="205" y="93" width="27" height="21" fill="#9E7E44"/>
<rect opacity="0.5" x="18" y="115" width="27" height="21" fill="#9E7E44"/>
<rect opacity="0.2" x="45" y="115" width="27" height="21" fill="#9E7E44"/>
<rect x="72" y="115" width="27" height="21" fill="white"/>
<rect opacity="0.5" x="99" y="115" width="27" height="21" fill="#9E7E44"/>
<rect opacity="0.2" x="125" y="115" width="27" height="21" fill="#9E7E44"/>
<rect x="152" y="115" width="27" height="21" fill="white"/>
<rect opacity="0.2" x="178" y="115" width="27" height="21" fill="#9E7E44"/>
<rect x="205" y="115" width="27" height="21" fill="white"/>
<rect x="20" y="75" width="8" height="8" fill="#69F0AE"/>
<rect x="101" y="32" width="8" height="8" fill="#69F0AE"/>
<rect x="101" y="75" width="8" height="8" fill="#69F0AE"/>
<rect x="127" y="95" width="8" height="8" fill="#69F0AE"/>
<rect x="180" y="75" width="8" height="8" fill="#69F0AE"/>
<path d="M50 190C77.6142 190 100 167.838 100 140.5C100 113.162 77.6142 91 50 91C22.3858 91 0 113.162 0 140.5C0 167.838 22.3858 190 50 190Z" fill="url(#paint2_linear)"/>
<path d="M50 189C76.5097 189 98 167.286 98 140.5C98 113.714 76.5097 92 50 92C23.4903 92 2 113.714 2 140.5C2 167.286 23.4903 189 50 189Z" fill="#9E7E44"/>
<path d="M48.5 180C70.3152 180 88 162.315 88 140.5C88 118.685 70.3152 101 48.5 101C26.6848 101 9 118.685 9 140.5C9 162.315 26.6848 180 48.5 180Z" fill="white"/>
<path d="M49.5 143C50.8807 143 52 141.881 52 140.5C52 139.119 50.8807 138 49.5 138C48.1193 138 47 139.119 47 140.5C47 141.881 48.1193 143 49.5 143Z" fill="url(#paint3_linear)"/>
<path d="M63 111L50 141L63 111Z" fill="#9E7E44"/>
<path d="M50.5 141L49 140.529L62.5 111L64 111.659L50.5 141Z" fill="url(#paint4_linear)"/>
<path d="M49.3236 140.711L62.0211 110.618L62.9453 111.008L50.2478 141.102L49.3236 140.711Z" fill="#2196F3"/>
<path d="M50 142L58 158L50 142Z" fill="#9E7E44"/>
<path d="M57.5294 157L49 141.571L50.1765 141L59 156.143L57.5294 157Z" fill="url(#paint5_linear)"/>
<path d="M49.3422 141.499L50.2237 141.02L58.5772 156.403L57.6958 156.882L49.3422 141.499Z" fill="#2196F3"/>
<path d="M86 143C86.5523 143 87 142.552 87 142C87 141.448 86.5523 141 86 141C85.4477 141 85 141.448 85 142C85 142.552 85.4477 143 86 143Z" fill="#9E7E44"/>
<path d="M19.2077 123.543C19.5675 122.92 19.354 122.122 18.7308 121.762C18.1076 121.402 17.3107 121.616 16.9508 122.239C16.591 122.863 16.8046 123.661 17.4278 124.021C18.051 124.381 18.8479 124.167 19.2077 123.543Z" fill="url(#paint6_linear)"/>
<path d="M19.0648 161.135C19.688 160.775 19.9015 159.977 19.5417 159.354C19.1819 158.73 18.385 158.516 17.7618 158.877C17.1385 159.237 16.925 160.034 17.2848 160.658C17.6446 161.281 18.4416 161.495 19.0648 161.135Z" fill="url(#paint7_linear)"/>
<path d="M13 143C13.5523 143 14 142.552 14 142C14 141.448 13.5523 141 13 141C12.4477 141 12 141.448 12 142C12 142.552 12.4477 143 13 143Z" fill="url(#paint8_linear)"/>
<path d="M32.0277 110.646C32.6509 110.286 32.8644 109.489 32.5046 108.865C32.1448 108.241 31.3479 108.028 30.7247 108.388C30.1014 108.748 29.8879 109.545 30.2477 110.169C30.6075 110.792 31.4044 111.006 32.0277 110.646Z" fill="url(#paint9_linear)"/>
<path d="M50.0726 105.967C50.6958 105.606 50.9093 104.809 50.5495 104.185C50.1897 103.562 49.3928 103.348 48.7696 103.708C48.1464 104.068 47.9328 104.866 48.2926 105.489C48.6525 106.113 49.4494 106.327 50.0726 105.967Z" fill="url(#paint10_linear)"/>
<path d="M68.1175 110.647C68.7407 110.287 68.9543 109.49 68.5944 108.866C68.2346 108.243 67.4377 108.029 66.8145 108.389C66.1913 108.749 65.9777 109.547 66.3376 110.17C66.6974 110.794 67.4943 111.008 68.1175 110.647Z" fill="url(#paint11_linear)"/>
<path d="M81.4827 124.023C82.106 123.663 82.3195 122.865 81.9597 122.242C81.5999 121.618 80.803 121.405 80.1797 121.765C79.5565 122.125 79.343 122.922 79.7028 123.546C80.0626 124.169 80.8595 124.383 81.4827 124.023Z" fill="url(#paint12_linear)"/>
<path d="M81.1507 161.138C81.7739 160.778 81.9875 159.98 81.6276 159.357C81.2678 158.733 80.4709 158.519 79.8477 158.879C79.2245 159.24 79.0109 160.037 79.3708 160.661C79.7306 161.284 80.5275 161.498 81.1507 161.138Z" fill="url(#paint13_linear)"/>
<path d="M67.4495 174.177C68.0728 173.817 68.2863 173.02 67.9265 172.396C67.5667 171.773 66.7697 171.559 66.1465 171.919C65.5233 172.279 65.3098 173.076 65.6696 173.7C66.0294 174.324 66.8263 174.537 67.4495 174.177Z" fill="url(#paint14_linear)"/>
<path d="M50.0726 178.192C50.6958 177.832 50.9093 177.034 50.5495 176.411C50.1897 175.787 49.3928 175.573 48.7696 175.933C48.1464 176.293 47.9328 177.091 48.2926 177.715C48.6525 178.338 49.4494 178.552 50.0726 178.192Z" fill="url(#paint15_linear)"/>
<path d="M32.6976 174.179C33.3208 173.819 33.5343 173.021 33.1745 172.398C32.8147 171.774 32.0178 171.56 31.3946 171.92C30.7714 172.281 30.5578 173.078 30.9176 173.702C31.2775 174.325 32.0744 174.539 32.6976 174.179Z" fill="url(#paint16_linear)"/>
<path d="M50 106C50.5523 106 51 105.552 51 105C51 104.448 50.5523 104 50 104C49.4477 104 49 104.448 49 105C49 105.552 49.4477 106 50 106Z" fill="#69F0AE"/>
<path d="M68.3665 110.142C68.6436 109.662 68.4792 109.048 67.9993 108.771C67.5195 108.493 66.906 108.658 66.6289 109.138C66.3519 109.618 66.5163 110.232 66.9961 110.509C67.476 110.786 68.0895 110.622 68.3665 110.142Z" fill="#69F0AE"/>
<path d="M81.2083 123.729C81.6882 123.452 81.8526 122.838 81.5755 122.358C81.2985 121.877 80.685 121.713 80.2051 121.99C79.7253 122.267 79.5609 122.881 79.8379 123.361C80.115 123.842 80.7285 124.006 81.2083 123.729Z" fill="#69F0AE"/>
<path d="M81.3665 160.508C81.6436 160.028 81.4792 159.414 80.9993 159.137C80.5195 158.86 79.906 159.024 79.6289 159.504C79.3519 159.985 79.5163 160.599 79.9961 160.876C80.476 161.153 81.0895 160.988 81.3665 160.508Z" fill="#69F0AE"/>
<path d="M67.2982 173.849C67.778 173.572 67.9424 172.958 67.6654 172.478C67.3883 171.998 66.7748 171.833 66.295 172.11C65.8151 172.387 65.6507 173.001 65.9278 173.482C66.2048 173.962 66.8184 174.126 67.2982 173.849Z" fill="#69F0AE"/>
<path d="M31.9095 110.512C32.3893 110.235 32.5537 109.621 32.2767 109.141C31.9997 108.661 31.3861 108.496 30.9063 108.774C30.4265 109.051 30.2621 109.665 30.5391 110.145C30.8161 110.625 31.4297 110.79 31.9095 110.512Z" fill="#69F0AE"/>
<path d="M19.0716 123.362C19.3487 122.882 19.1843 122.268 18.7044 121.991C18.2246 121.713 17.6111 121.878 17.334 122.358C17.057 122.838 17.2214 123.452 17.7012 123.729C18.181 124.007 18.7946 123.842 19.0716 123.362Z" fill="#69F0AE"/>
<path d="M86.4984 143.083C87.1216 142.723 87.3351 141.925 86.9753 141.302C86.6155 140.678 85.8186 140.464 85.1954 140.825C84.5721 141.185 84.3586 141.982 84.7184 142.606C85.0782 143.229 85.8751 143.443 86.4984 143.083Z" fill="#69F0AE"/>
<path d="M18.9154 160.875C19.3952 160.598 19.5596 159.984 19.2826 159.504C19.0055 159.024 18.392 158.859 17.9122 159.136C17.4323 159.414 17.2679 160.028 17.545 160.508C17.822 160.988 18.4355 161.152 18.9154 160.875Z" fill="#69F0AE"/>
<path d="M32.9798 173.483C33.2569 173.003 33.0925 172.389 32.6126 172.111C32.1328 171.834 31.5193 171.999 31.2422 172.479C30.9652 172.959 31.1296 173.573 31.6094 173.85C32.0893 174.127 32.7028 173.963 32.9798 173.483Z" fill="#69F0AE"/>
<path d="M14 143C14.5523 143 15 142.552 15 142C15 141.448 14.5523 141 14 141C13.4477 141 13 141.448 13 142C13 142.552 13.4477 143 14 143Z" fill="#69F0AE"/>
<path d="M50 177C50.5523 177 51 176.552 51 176C51 175.448 50.5523 175 50 175C49.4477 175 49 175.448 49 176C49 176.552 49.4477 177 50 177Z" fill="#69F0AE"/>
<path opacity="0.2" d="M12.0019 144.433C12.0072 126.579 23.9175 110.96 41.0306 106.363C58.1437 101.767 76.1841 109.343 85 124.827C79.2675 111.403 66.6368 102.28 52.1848 101.124C37.7328 99.968 23.833 106.97 16.0726 119.314C8.31214 131.659 7.96558 147.319 15.1722 160C13.074 155.083 11.9952 149.785 12.0019 144.433Z" fill="#9E7E44"/>
<path d="M49.5 142C50.3284 142 51 141.328 51 140.5C51 139.672 50.3284 139 49.5 139C48.6716 139 48 139.672 48 140.5C48 141.328 48.6716 142 49.5 142Z" fill="#69F0AE"/>
<defs>
<linearGradient id="paint0_linear" x1="241" y1="153" x2="241" y2="0" gradientUnits="userSpaceOnUse">
<stop stop-color="#808080" stop-opacity="0.25"/>
<stop offset="0.54" stop-color="#808080" stop-opacity="0.12"/>
<stop offset="1" stop-color="#808080" stop-opacity="0.1"/>
</linearGradient>
<linearGradient id="paint1_linear" x1="236" y1="140" x2="236" y2="27" gradientUnits="userSpaceOnUse">
<stop stop-color="#808080" stop-opacity="0.25"/>
<stop offset="0.54" stop-color="#808080" stop-opacity="0.12"/>
<stop offset="1" stop-color="#808080" stop-opacity="0.1"/>
</linearGradient>
<linearGradient id="paint2_linear" x1="100" y1="190" x2="100" y2="91" gradientUnits="userSpaceOnUse">
<stop stop-color="#808080" stop-opacity="0.25"/>
<stop offset="0.54" stop-color="#808080" stop-opacity="0.12"/>
<stop offset="1" stop-color="#808080" stop-opacity="0.1"/>
</linearGradient>
<linearGradient id="paint3_linear" x1="52.0015" y1="143" x2="52.0015" y2="137.997" gradientUnits="userSpaceOnUse">
<stop stop-color="#808080" stop-opacity="0.25"/>
<stop offset="0.54" stop-color="#808080" stop-opacity="0.12"/>
<stop offset="1" stop-color="#808080" stop-opacity="0.1"/>
</linearGradient>
<linearGradient id="paint4_linear" x1="64" y1="141" x2="64" y2="111" gradientUnits="userSpaceOnUse">
<stop stop-color="#808080" stop-opacity="0.25"/>
<stop offset="0.54" stop-color="#808080" stop-opacity="0.12"/>
<stop offset="1" stop-color="#808080" stop-opacity="0.1"/>
</linearGradient>
<linearGradient id="paint5_linear" x1="59" y1="157" x2="59" y2="141" gradientUnits="userSpaceOnUse">
<stop stop-color="#808080" stop-opacity="0.25"/>
<stop offset="0.54" stop-color="#808080" stop-opacity="0.12"/>
<stop offset="1" stop-color="#808080" stop-opacity="0.1"/>
</linearGradient>
<linearGradient id="paint6_linear" x1="17.6031" y1="124.67" x2="19.8586" y2="123.369" gradientUnits="userSpaceOnUse">
<stop stop-color="#808080" stop-opacity="0.25"/>
<stop offset="0.54" stop-color="#808080" stop-opacity="0.12"/>
<stop offset="1" stop-color="#808080" stop-opacity="0.1"/>
</linearGradient>
<linearGradient id="paint7_linear" x1="19.7157" y1="161.306" x2="19.7161" y2="158.701" gradientUnits="userSpaceOnUse">
<stop stop-color="#808080" stop-opacity="0.25"/>
<stop offset="0.54" stop-color="#808080" stop-opacity="0.12"/>
<stop offset="1" stop-color="#808080" stop-opacity="0.1"/>
</linearGradient>
<linearGradient id="paint8_linear" x1="13.3637" y1="143.365" x2="14.3637" y2="141.633" gradientUnits="userSpaceOnUse">
<stop stop-color="#808080" stop-opacity="0.25"/>
<stop offset="0.54" stop-color="#808080" stop-opacity="0.12"/>
<stop offset="1" stop-color="#808080" stop-opacity="0.1"/>
</linearGradient>
<linearGradient id="paint9_linear" x1="30.0734" y1="110.82" x2="32.68" y2="110.82" gradientUnits="userSpaceOnUse">
<stop stop-color="#808080" stop-opacity="0.25"/>
<stop offset="0.54" stop-color="#808080" stop-opacity="0.12"/>
<stop offset="1" stop-color="#808080" stop-opacity="0.1"/>
</linearGradient>
<linearGradient id="paint10_linear" x1="48.1166" y1="106.141" x2="50.7233" y2="106.14" gradientUnits="userSpaceOnUse">
<stop stop-color="#808080" stop-opacity="0.25"/>
<stop offset="0.54" stop-color="#808080" stop-opacity="0.12"/>
<stop offset="1" stop-color="#808080" stop-opacity="0.1"/>
</linearGradient>
<linearGradient id="paint11_linear" x1="66.1634" y1="110.822" x2="68.7671" y2="110.821" gradientUnits="userSpaceOnUse">
<stop stop-color="#808080" stop-opacity="0.25"/>
<stop offset="0.54" stop-color="#808080" stop-opacity="0.12"/>
<stop offset="1" stop-color="#808080" stop-opacity="0.1"/>
</linearGradient>
<linearGradient id="paint12_linear" x1="79.5292" y1="124.197" x2="82.1359" y2="124.197" gradientUnits="userSpaceOnUse">
<stop stop-color="#808080" stop-opacity="0.25"/>
<stop offset="0.54" stop-color="#808080" stop-opacity="0.12"/>
<stop offset="1" stop-color="#808080" stop-opacity="0.1"/>
</linearGradient>
<linearGradient id="paint13_linear" x1="79.195" y1="161.311" x2="81.8017" y2="161.311" gradientUnits="userSpaceOnUse">
<stop stop-color="#808080" stop-opacity="0.25"/>
<stop offset="0.54" stop-color="#808080" stop-opacity="0.12"/>
<stop offset="1" stop-color="#808080" stop-opacity="0.1"/>
</linearGradient>
<linearGradient id="paint14_linear" x1="65.4947" y1="174.35" x2="68.0984" y2="174.349" gradientUnits="userSpaceOnUse">
<stop stop-color="#808080" stop-opacity="0.25"/>
<stop offset="0.54" stop-color="#808080" stop-opacity="0.12"/>
<stop offset="1" stop-color="#808080" stop-opacity="0.1"/>
</linearGradient>
<linearGradient id="paint15_linear" x1="48.1174" y1="178.365" x2="50.7241" y2="178.364" gradientUnits="userSpaceOnUse">
<stop stop-color="#808080" stop-opacity="0.25"/>
<stop offset="0.54" stop-color="#808080" stop-opacity="0.12"/>
<stop offset="1" stop-color="#808080" stop-opacity="0.1"/>
</linearGradient>
<linearGradient id="paint16_linear" x1="30.7436" y1="174.352" x2="33.3474" y2="174.352" gradientUnits="userSpaceOnUse">
<stop stop-color="#808080" stop-opacity="0.25"/>
<stop offset="0.54" stop-color="#808080" stop-opacity="0.12"/>
<stop offset="1" stop-color="#808080" stop-opacity="0.1"/>
</linearGradient>
</defs>
</svg>
