
<svg width="362px" height="180px" viewBox="0 0 362 180" version="1.1" xmlns="http://www.w3.org/2000/svg" xmlns:xlink="http://www.w3.org/1999/xlink">
    <g id="Page-1" stroke="none" stroke-width="1" fill="none" fill-rule="evenodd" opacity="0.30609654">
        <g id="Pro-Page" transform="translate(-426.000000, -3122.000000)" stroke="#FFFFFF">
            <g id="Calendar-Copy" transform="translate(426.000000, 3122.000000)">
                <rect id="Rectangle" x="0.5" y="0.5" width="92" height="27"></rect>
                <rect id="Rectangle-Copy-4" x="0.5" y="38.5" width="92" height="27"></rect>
                <rect id="Rectangle-Copy" x="100.5" y="0.5" width="92" height="27"></rect>
                <rect id="Rectangle-Copy-5" x="100.5" y="38.5" width="92" height="27"></rect>
                <rect id="Rectangle-Copy-2" x="200.5" y="0.5" width="92" height="27"></rect>
                <rect id="Rectangle-Copy-6" x="200.5" y="38.5" width="92" height="27"></rect>
                <rect id="Rectangle-Copy-3" x="300.5" y="0.5" width="61" height="27"></rect>
                <rect id="Rectangle-Copy-7" x="300.5" y="38.5" width="61" height="27"></rect>
                <rect id="Rectangle-Copy-11" x="0.5" y="76.5" width="92" height="27"></rect>
                <rect id="Rectangle-Copy-10" x="100.5" y="76.5" width="92" height="27"></rect>
                <rect id="Rectangle-Copy-9" x="200.5" y="76.5" width="92" height="27"></rect>
                <rect id="Rectangle-Copy-8" x="300.5" y="76.5" width="61" height="27"></rect>
                <rect id="Rectangle-Copy-15" x="0.5" y="114.5" width="92" height="27"></rect>
                <rect id="Rectangle-Copy-14" x="100.5" y="114.5" width="92" height="27"></rect>
                <rect id="Rectangle-Copy-13" x="200.5" y="114.5" width="92" height="27"></rect>
                <rect id="Rectangle-Copy-12" x="300.5" y="114.5" width="61" height="27"></rect>
                <rect id="Rectangle-Copy-19" x="0.5" y="152.5" width="92" height="27"></rect>
                <rect id="Rectangle-Copy-18" x="100.5" y="152.5" width="92" height="27"></rect>
                <rect id="Rectangle-Copy-17" x="200.5" y="152.5" width="92" height="27"></rect>
                <rect id="Rectangle-Copy-16" x="300.5" y="152.5" width="61" height="27"></rect>
            </g>
        </g>
    </g>
</svg>