
<svg width="25px" height="24px" viewBox="0 0 25 24" version="1.1" xmlns="http://www.w3.org/2000/svg" xmlns:xlink="http://www.w3.org/1999/xlink">
    <g id="Symbols" stroke="none" stroke-width="1" fill="none" fill-rule="evenodd">
        <g id="Footers-#6" transform="translate(-738.000000, -72.000000)" fill="#45007D">
            <path d="M750.8,84.91 C750.95,84.84 751.15,84.79 751.38,84.74 C751.57,85.26 751.74,85.81 751.89,86.37 C752.12,87.25 752.28,88.11 752.38,88.96 C751.79,89.18 751.16,89.31 750.5,89.31 C749.27,89.31 748.15,88.89 747.25,88.19 C747.95,86.79 749.21,85.63 750.8,84.91 L750.8,84.91 Z M750.68,83.05 C750.81,83.31 750.93,83.58 751.04,83.86 C750.86,83.9 750.7,83.95 750.57,84 C748.74,84.77 747.3,86.01 746.52,87.5 C745.7,86.57 745.19,85.34 745.19,84 L745.2,83.75 C745.5,83.76 745.81,83.77 746.12,83.76 C747.79,83.74 749.35,83.48 750.68,83.05 L750.68,83.05 Z M746.18,82.72 C745.9,82.72 745.63,82.71 745.36,82.69 C745.74,81.2 746.75,79.96 748.1,79.27 C748.87,80.03 749.59,81.01 750.21,82.14 C749.02,82.51 747.64,82.72 746.18,82.72 L746.18,82.72 Z M751.28,81.76 C750.66,80.62 749.95,79.64 749.19,78.86 C749.61,78.76 750.05,78.69 750.5,78.69 C751.79,78.69 752.97,79.15 753.89,79.92 C753.31,80.65 752.41,81.28 751.28,81.76 L751.28,81.76 Z M752.17,83.69 C752.03,83.34 751.89,82.99 751.73,82.66 C753,82.11 753.98,81.39 754.54,80.57 C755.26,81.41 755.71,82.48 755.79,83.65 C754.64,83.59 753.27,83.59 752.17,83.69 L752.17,83.69 Z M753.37,88.46 C753.27,87.61 753.11,86.73 752.87,85.84 C752.76,85.41 752.63,85 752.49,84.59 C753.53,84.5 754.78,84.51 755.77,84.59 C755.59,86.21 754.68,87.62 753.37,88.46 L753.37,88.46 Z M750.5,77.63 C746.98,77.63 744.13,80.48 744.13,84 C744.13,87.52 746.98,90.37 750.5,90.37 C754.02,90.37 756.87,87.52 756.87,84 C756.87,80.48 754.02,77.63 750.5,77.63 L750.5,77.63 Z M750.5,96 C743.87,96 738.5,90.63 738.5,84 C738.5,77.37 743.87,72 750.5,72 C757.13,72 762.5,77.37 762.5,84 C762.5,90.63 757.13,96 750.5,96 L750.5,96 Z" id="Dribbble-Icon"></path>
        </g>
    </g>
</svg>