
<svg width="24px" height="25px" viewBox="0 0 24 25" version="1.1" xmlns="http://www.w3.org/2000/svg" xmlns:xlink="http://www.w3.org/1999/xlink">
    <g id="Symbols" stroke="none" stroke-width="1" fill="none" fill-rule="evenodd">
        <g id="Footers-#6" transform="translate(-670.000000, -71.000000)" fill="#45007D">
            <path d="M684.02,83.5 L682.72,83.5 L682.72,88.19 L680.78,88.19 L680.78,83.5 L679.81,83.5 L679.81,81.88 L680.78,81.88 L680.78,80.91 C680.78,79.6 681.33,78.81 682.88,78.81 L684.18,78.81 L684.18,80.43 L683.37,80.43 C682.76,80.43 682.72,80.65 682.72,81.07 L682.72,81.88 L684.19,81.88 L684.02,83.5 L684.02,83.5 Z M682,71.5 C675.37,71.5 670,76.87 670,83.5 C670,90.13 675.37,95.5 682,95.5 C688.63,95.5 694,90.13 694,83.5 C694,76.87 688.63,71.5 682,71.5 L682,71.5 Z" id="Facebook-Icon"></path>
        </g>
    </g>
</svg>