<svg width="300" height="212" viewBox="0 0 300 212" fill="none" xmlns="http://www.w3.org/2000/svg">
<path opacity="0.1" d="M278.708 177.37C277.793 178.176 276.858 178.958 275.903 179.718C275.742 179.848 275.577 179.973 275.414 180.106C272.006 182.754 268.429 185.175 264.705 187.354L264.009 187.76C263.841 187.862 263.675 187.957 263.499 188.051C259.608 190.302 255.572 192.374 251.488 194.336L251.444 194.359L251.136 194.504C247.842 196.086 244.498 197.6 241.106 199.046L241.024 199.077C239.494 199.723 237.964 200.351 236.435 200.962C235.81 201.218 235.183 201.455 234.556 201.698C233.375 202.15 232.192 202.595 230.999 203.021L230.851 203.078L230.596 203.167L230.277 203.285C227.165 204.398 224.011 205.427 220.816 206.371L220.759 206.386C218.531 207.037 216.288 207.639 214.031 208.192L213.722 208.269C210.408 209.071 207.04 209.761 203.651 210.313L202.871 210.438C200.393 210.828 197.898 211.146 195.385 211.393C181.263 212.76 166.972 211.649 152.936 209.743C124.595 205.89 96.6275 198.668 71.1209 187.349C66.2256 185.177 61.4255 182.852 56.7205 180.374C56.6823 180.354 56.6492 180.333 56.6109 180.316C53.7944 178.832 51.0161 177.287 48.2761 175.679C47.473 175.214 46.6749 174.739 45.882 174.261C44.9063 173.672 43.9349 173.076 42.9678 172.473C41.6929 171.676 40.4181 170.858 39.1433 170.023L38.5467 169.624L38.3172 169.468C37.9934 169.251 37.6747 169.034 37.3535 168.814C25.3701 160.64 14.6846 150.732 9.63629 138.335C3.80271 124.029 7.53539 105.89 21.9842 97.4344C26.9509 94.5221 32.7233 92.9407 38.5569 91.6353L39.1535 91.5024C40.1402 91.2853 41.1269 91.0758 42.1085 90.8663C45.548 90.1357 49.0053 89.4102 52.4295 88.6003C54.2142 88.1788 55.9811 87.7368 57.7378 87.2591L58.4568 87.0599C62.6935 85.921 66.8368 84.4589 70.8507 82.6863H70.8762C71.307 82.4947 71.7328 82.2954 72.151 82.091C72.4212 81.9633 72.6915 81.8356 72.9618 81.695C77.2962 79.5338 81.8855 76.5372 85.4168 72.9657C85.6998 72.6796 85.9751 72.3884 86.2428 72.0971C86.4494 71.8698 86.6533 71.6399 86.8497 71.4099C89.3254 68.5181 91.0387 65.3068 91.3651 61.8989C91.475 60.7537 91.4235 59.5988 91.2121 58.468C90.8118 56.3246 90.4243 54.2272 90.1387 52.1809C89.6058 48.3361 89.4248 44.66 90.1642 41.1166C90.9163 37.5043 92.6221 34.0274 95.8779 30.6553C96.3692 30.1443 96.8987 29.6334 97.4664 29.1225C100.099 26.8078 103.079 24.9217 106.296 23.5328C106.694 23.3625 107.094 23.1922 107.497 23.0219C116.441 19.3943 127.188 18.6381 137.228 19.1388C146.609 19.6225 155.929 20.9218 165.085 23.0219C165.812 23.1854 166.539 23.3566 167.26 23.5328C175.049 25.4233 182.713 27.7978 190.207 30.6425C209.681 37.9821 228.062 48.1726 245.233 59.4183C245.402 59.5282 245.57 59.638 245.743 59.7504C246.461 60.2188 247.174 60.6888 247.883 61.1606C249.254 62.0718 250.614 62.9889 251.962 63.912L252.872 64.5328C253.321 64.8393 253.767 65.1467 254.211 65.455L255.577 66.4028C255.642 66.4415 255.703 66.4851 255.761 66.5331L256.924 67.3403C257.597 67.8104 258.265 68.283 258.935 68.7582L260.373 69.7801C260.672 69.9947 260.972 70.2067 261.271 70.4238L262.8 71.5428L263.142 71.7983C263.214 71.8493 263.285 71.9004 263.354 71.9566L263.397 71.9847C267.543 75.0325 271.589 78.1926 275.38 81.5418L275.87 81.9761L275.921 82.022C276.334 82.3899 276.747 82.7629 277.152 83.1384C282.104 87.6551 286.54 92.509 290.166 97.8738C306.82 122.654 301.876 156.966 278.708 177.37Z" fill="#9E7E44"/>
<path fill-rule="evenodd" clip-rule="evenodd" d="M289.204 103.515C289.551 104.301 290.156 105.673 290.038 105.993C289.971 106.175 290.179 106.607 290.418 107.105C290.765 107.825 291.177 108.682 290.919 109.117C290.548 109.77 290.219 110.445 289.935 111.14C289.935 111.14 288.005 114.78 287.024 115.469C286.042 116.159 281.533 121.944 281.533 121.944C281.533 121.944 276.695 127.446 276.695 129.145C276.695 129.145 276.554 128.907 276.297 128.519C276.204 128.36 276.096 128.194 275.973 128.008L276.042 129.221L276.695 140.135C276.695 140.135 275.009 141.55 274.639 141.714C274.402 141.875 274.135 141.985 273.853 142.038C272.15 142.391 269.95 140.976 269.56 140.664C269.316 140.465 267.705 140.516 266.276 140.605V140.822C266.556 147.2 265.248 148.431 265.248 148.431L265.086 154.138C265.086 154.138 265.289 162.837 264.675 164.212C264.061 165.586 264.061 171.131 264.061 171.131C264.061 171.131 264.472 173.759 264.02 174.326C263.568 174.893 263.894 176.99 264.223 178.086C264.552 179.182 264.264 181.892 264.264 181.892L264.236 187.698C264.059 187.8 263.892 187.894 263.722 187.989C259.801 190.239 255.729 192.311 251.618 194.272C251.65 194.001 251.68 193.772 251.703 193.601C251.707 193.567 251.711 193.535 251.715 193.506C251.836 192.535 252.455 187.843 252.455 187.843C252.455 187.843 252.129 181.894 252.373 181.652C252.617 181.409 253.439 179.059 253.028 178.293C252.617 177.527 251.959 172.482 251.959 172.201C251.959 171.92 251.43 165.363 251.43 165.363C251.43 165.363 250.942 160.791 251.063 159.821C251.183 158.85 250.731 155.249 250.731 155.249C250.731 152.255 248.971 149.016 248.971 149.016L248.927 149.134L248.809 149.43L245.225 158.986C245.225 158.986 244.611 161.979 244.076 163.678C243.74 164.831 243.474 166.004 243.28 167.19L243.241 167.407C243.237 167.434 243.231 167.46 243.226 167.485C243.215 167.542 243.205 167.592 243.205 167.634L243.18 167.798C243.18 167.798 243.46 169.943 243.013 170.633C242.566 171.322 242.072 173.386 242.072 173.953C242.072 174.52 242.113 176.707 242.113 176.707C242.113 176.707 242.288 181.036 241.826 181.521C241.363 182.007 241.62 182.41 241.62 182.41C241.62 182.41 242.37 185.693 242.031 186.541C241.692 187.389 241.949 189.368 241.949 189.368C241.949 189.368 241.283 195.669 241.211 195.966C241.139 196.262 240.787 198.19 241.024 198.816C241.045 198.895 241.098 198.962 241.17 199C239.642 199.645 238.101 200.274 236.545 200.885C235.916 201.135 235.284 201.378 234.652 201.621L234.652 201.621C233.462 202.073 232.27 202.517 231.067 202.944L230.918 203L230.795 202.88C229.659 201.779 229.41 200.665 229.446 199.856V199.835C229.487 199.11 229.754 198.63 229.814 198.63C229.934 198.63 230.222 195.516 230.222 195.516C230.374 194.687 230.432 193.844 230.397 193.003C230.384 192.929 230.384 192.855 230.384 192.781C230.366 192.581 230.34 192.387 230.304 192.196C230.029 190.742 229.772 186.209 229.772 186.209V186.163V186.142C229.788 185.871 229.839 184.816 229.821 183.739V183.368C229.819 183.305 229.815 183.241 229.812 183.178C229.805 183.057 229.798 182.937 229.798 182.819L229.797 182.803C229.792 182.726 229.787 182.647 229.78 182.564C229.777 182.529 229.773 182.496 229.768 182.463C229.761 182.41 229.754 182.359 229.754 182.308C229.742 182.27 229.742 182.232 229.742 182.196C229.715 181.968 229.672 181.743 229.613 181.521C229.525 181.188 229.486 180.844 229.498 180.5C229.498 180.425 229.502 180.348 229.506 180.272C229.511 180.195 229.516 180.117 229.516 180.04L229.531 179.848C229.531 179.832 229.53 179.82 229.529 179.808C229.527 179.784 229.526 179.76 229.531 179.705C229.534 179.672 229.54 179.639 229.545 179.607C229.554 179.559 229.562 179.512 229.562 179.465C229.664 178.731 229.831 178.044 229.922 177.666C229.941 177.589 229.956 177.525 229.968 177.476C229.997 177.188 229.997 176.898 229.968 176.61C229.967 176.585 229.967 176.56 229.967 176.535C229.966 176.459 229.966 176.378 229.952 176.298C229.942 176.236 229.941 176.166 229.94 176.098C229.939 176.048 229.939 175.999 229.934 175.956C229.932 175.933 229.93 175.91 229.927 175.887C229.918 175.805 229.909 175.72 229.909 175.637C229.896 175.568 229.896 175.501 229.896 175.432L229.862 175.018C229.862 175.007 229.863 174.998 229.864 174.99C229.865 174.974 229.866 174.957 229.862 174.911C229.86 174.884 229.857 174.856 229.853 174.828C229.847 174.786 229.842 174.743 229.842 174.702L229.819 174.388C229.817 174.358 229.813 174.33 229.809 174.302C229.804 174.261 229.798 174.221 229.798 174.181V174.078C229.795 174.04 229.79 174.001 229.785 173.962C229.778 173.901 229.77 173.839 229.77 173.78L229.754 173.578C229.749 173.498 229.74 173.418 229.732 173.341C229.729 173.315 229.726 173.289 229.724 173.264C229.721 173.236 229.718 173.209 229.714 173.182C229.706 173.112 229.698 173.044 229.698 172.978C229.698 172.968 229.7 172.962 229.702 172.956C229.705 172.945 229.708 172.934 229.698 172.901C229.683 172.85 229.683 172.799 229.683 172.753V172.625C229.679 172.59 229.675 172.555 229.671 172.523C229.665 172.474 229.659 172.429 229.659 172.39V172.347V172.278V172.216V172.15L229.664 172.125C229.691 171.955 229.802 171.274 229.862 170.446V170.324V170.099V169.974V169.657V169.453V169.302C229.865 169.253 229.865 169.203 229.862 169.154V168.858C229.852 168.643 229.832 168.434 229.803 168.234C229.768 167.965 229.747 167.694 229.742 167.422V167.121V166.462V166.245V165.747V165.522V165.435V165.077V164.822C229.76 164.684 229.76 164.559 229.76 164.429V164.234V164.035C229.776 163.656 229.799 163.281 229.821 162.931L229.826 162.842V162.661C229.826 162.64 229.825 162.619 229.824 162.598C229.821 162.556 229.818 162.513 229.826 162.467C229.839 162.398 229.839 162.311 229.839 162.265V162.132C229.855 162.048 229.855 161.966 229.855 161.89C229.865 161.801 229.87 161.716 229.87 161.634C229.876 161.56 229.882 161.49 229.889 161.423C229.902 161.281 229.914 161.154 229.914 161.042C229.929 160.973 229.929 160.911 229.929 160.858V160.712V160.567V160.441L230.667 153.405C230.667 153.405 230.895 152.462 231.034 151.563C231.038 151.537 231.042 151.511 231.046 151.485C231.057 151.416 231.067 151.349 231.067 151.282C231.117 150.966 231.135 150.646 231.119 150.327C231.102 150.137 231.102 149.947 231.119 149.757C231.137 149.553 231.168 149.333 231.201 149.106C231.34 148.112 231.597 146.891 231.687 146.475L231.72 146.324C231.706 146.048 231.715 145.771 231.746 145.497C231.78 145.112 231.88 144.735 232.041 144.383C232.182 144.056 232.279 143.713 232.332 143.361C232.335 143.342 232.338 143.319 232.342 143.297C232.347 143.264 232.352 143.233 232.355 143.218C232.356 143.21 232.359 143.201 232.361 143.192C232.367 143.172 232.373 143.15 232.373 143.129C232.22 143.018 232.075 142.896 231.941 142.764C231.362 142.18 230.881 141.507 230.518 140.771L230.487 140.705C230.413 140.577 230.355 140.466 230.313 140.385C230.298 140.356 230.285 140.33 230.273 140.309C230.261 140.285 230.25 140.26 230.24 140.235L230.844 137.512L230.862 137.446C230.862 137.446 230.872 136.432 230.939 135.349C230.942 135.307 230.946 135.266 230.95 135.225C230.959 135.136 230.967 135.048 230.967 134.96C231.034 134.082 231.139 133.226 231.312 132.917C231.712 132.189 231.969 130.087 231.969 130.087C231.969 130.087 232.586 126.284 232.799 124.823C232.802 124.799 232.808 124.766 232.813 124.741C232.817 124.721 232.82 124.705 232.82 124.7V124.675V124.636C232.823 124.612 232.827 124.589 232.831 124.567C232.839 124.525 232.845 124.486 232.845 124.452C232.812 124.445 232.779 124.441 232.745 124.44C232.646 124.433 232.545 124.439 232.447 124.458H232.416C232.416 124.458 232.424 124.414 232.442 124.327C232.448 124.299 232.455 124.265 232.462 124.228C232.477 124.152 232.495 124.059 232.519 123.949C232.416 123.941 232.312 123.946 232.211 123.965H232.17C232.17 123.965 233.93 115.183 234.873 113.201C235.063 112.768 235.2 112.313 235.281 111.847C235.28 111.842 235.28 111.837 235.281 111.832C235.641 110.031 235.656 107.554 235.656 106.414V106.088V106.075V105.796L235.451 105.863L235.402 105.878C234.893 106.054 233.794 106.476 233.732 106.849C233.65 107.334 231.27 110.608 231.27 110.608C231.27 110.608 230.744 112.591 228.282 113.888C225.821 115.186 223.115 113.651 222.707 113.122C222.445 112.787 218.757 111.114 216.126 109.95C215.898 109.852 215.715 109.773 215.479 109.666C215.316 109.592 215.161 109.524 215.013 109.46C214.947 109.431 214.882 109.403 214.819 109.375L213.811 108.933L213.752 108.907C213.66 108.872 213.575 108.836 213.495 108.798L213.511 108.716C213.512 108.701 213.512 108.687 213.511 108.672L213.254 108.557L213.526 108.642C213.565 108.468 213.637 108.156 213.752 107.75C213.755 107.741 213.758 107.734 213.761 107.726C213.766 107.713 213.771 107.699 213.778 107.671C213.78 107.662 213.782 107.654 213.784 107.646C213.79 107.617 213.796 107.593 213.814 107.538C213.825 107.505 213.836 107.469 213.847 107.433C213.858 107.395 213.87 107.355 213.883 107.316C213.886 107.307 213.89 107.298 213.894 107.288C213.901 107.271 213.909 107.253 213.909 107.237C213.923 107.19 213.938 107.143 213.954 107.096C213.963 107.065 213.973 107.034 213.983 107.002V106.966C214.091 106.639 214.222 106.282 214.374 105.914C214.385 105.884 214.397 105.854 214.409 105.823C214.418 105.802 214.427 105.78 214.436 105.758L214.032 105.247L213.752 104.892L213.59 104.685L213.382 104.43C213.356 104.413 213.33 104.394 213.304 104.374C213.287 104.362 213.271 104.35 213.254 104.338L209.734 101.068L208.691 100.098L208.354 99.7862C207.485 98.9781 206.995 97.8466 207 96.6639C207.005 95.4813 207.506 94.3543 208.382 93.5539C208.465 93.4641 208.579 93.4085 208.701 93.3981C208.95 93.3981 209.076 93.7378 209.126 93.8734C209.135 93.896 209.141 93.913 209.145 93.9217C210.628 94.1082 212.624 95.3495 214.284 96.573C214.613 96.8182 214.926 97.0583 215.222 97.2933C216.519 98.3176 217.442 99.1758 217.442 99.1758L218.087 99.891L218.328 100.146C218.381 99.9272 218.357 99.6968 218.262 99.4925C218.102 99.2754 219.133 100.226 219.616 100.68C219.615 100.679 219.615 100.677 219.615 100.675C219.615 100.672 219.615 100.668 219.616 100.665L219.636 100.696C219.775 100.821 219.862 100.908 219.862 100.908C220.602 102.203 223.837 102.93 223.837 102.93L225.232 102.08C225.356 100.504 227.609 98.6419 227.609 98.6419C227.609 98.6419 228.267 97.9217 228.637 96.3431C229.007 94.7646 230.358 94.9664 230.358 94.9664L230.52 92.6676C231.046 92.3666 231.432 91.8721 231.594 91.2909C231.633 91.1192 231.644 90.9425 231.628 90.7673C231.629 90.7571 231.629 90.7468 231.628 90.7366C231.504 89.4416 232.941 86.9334 232.941 86.9334C232.941 86.9334 233.429 86.752 233.645 85.0535V85.0177C233.673 84.775 233.696 84.5043 233.714 84.2003V84.1697V84.1416C233.835 81.5925 235.065 81.4316 235.065 81.4316L238.55 81.2272C238.842 80.2566 246.294 79.0842 246.294 79.0842C246.294 79.0842 247.609 78.6066 248.303 77.5517C248.46 77.2946 248.68 77.0811 248.943 76.931C249.092 76.8477 249.26 76.8046 249.431 76.8059C249.536 76.8047 249.64 76.8256 249.737 76.8672L249.85 76.9719C249.845 76.922 249.838 76.8755 249.831 76.8263C249.828 76.8025 249.825 76.778 249.822 76.7522C249.811 76.673 249.798 76.5836 249.786 76.4968C249.637 76.4227 249.493 76.3435 249.346 76.2593C246.474 74.6582 244.619 71.7138 244.423 68.4459V68.2134V67.889V67.7511V67.4957C244.391 67.5118 244.357 67.5259 244.324 67.5398C244.305 67.548 244.285 67.5562 244.266 67.5647C244.049 67.6599 243.824 67.7376 243.593 67.7971H243.568C243.555 67.8033 243.541 67.8076 243.526 67.8099C243.482 67.8225 243.436 67.8328 243.39 67.8405C243.115 67.8993 242.834 67.9217 242.553 67.9069C242.484 67.9031 242.415 67.8954 242.347 67.8839C242.244 67.8715 242.141 67.8501 242.041 67.8201L241.987 67.8073L241.933 67.792C241.975 67.6668 242.018 67.5366 242.064 67.4114C242.471 66.313 243.101 65.3102 243.917 64.4664C244.02 64.3669 244.116 64.2611 244.205 64.1497C244.274 64.0679 244.33 63.9756 244.369 63.8764C244.445 63.6771 244.458 63.46 244.408 63.2531C244.314 62.9283 244.187 62.6141 244.028 62.3157C244.019 62.2888 244.007 62.2631 243.992 62.2391C243.988 62.2298 243.983 62.2202 243.978 62.2106C243.967 62.1887 243.956 62.1667 243.956 62.1471C243.927 62.0872 243.903 62.0258 243.881 61.9632C243.883 61.9522 243.883 61.9411 243.881 61.93C243.86 61.8764 243.83 61.7819 243.83 61.7615V61.7053C243.826 61.6861 243.822 61.6669 243.818 61.6478C243.807 61.5981 243.796 61.5489 243.796 61.5009V61.4703C243.792 61.409 243.792 61.3476 243.796 61.2864C243.796 61.277 243.796 61.2691 243.795 61.2611C243.794 61.2452 243.793 61.2293 243.796 61.2021C243.798 61.1864 243.801 61.1707 243.804 61.1551C243.809 61.1302 243.814 61.1056 243.814 61.082C243.821 61.0465 243.831 61.0115 243.843 60.9773C243.85 60.9479 243.86 60.9189 243.871 60.8905C244.027 60.4889 244.289 60.1362 244.629 59.8688C244.813 59.7171 245.01 59.5835 245.206 59.4502C245.231 59.4331 245.256 59.416 245.281 59.3988C245.585 59.2121 245.872 58.9984 246.137 58.7602C246.657 58.2708 247.002 57.6143 247.346 56.9597C247.724 56.2408 248.1 55.5242 248.706 55.0336C249.714 54.2214 251.101 54.2342 252.355 54.4078C252.535 54.4327 252.715 54.46 252.896 54.4874C253.979 54.6511 255.079 54.8175 256.114 54.487C256.595 54.334 257.038 54.082 257.481 53.8303C257.873 53.607 258.266 53.384 258.683 53.2303C260.551 52.5381 262.825 53.4577 263.789 55.2967C264.115 55.9194 264.296 56.6077 264.477 57.297C264.616 57.8236 264.754 58.3508 264.958 58.8496C265.109 59.2251 265.3 59.5806 265.49 59.9368C265.685 60.3002 265.88 60.6644 266.034 61.0514C266.394 61.9538 266.539 62.927 266.456 63.8942C266.44 64.0679 266.42 64.2365 266.389 64.4051C266.382 64.4596 266.372 64.5132 266.358 64.566C266.337 64.6891 266.31 64.811 266.276 64.9313C266.272 64.9474 266.267 64.9635 266.262 64.9795C266.251 65.0143 266.24 65.0487 266.24 65.082C266.189 65.248 266.132 65.4268 266.076 65.5749C266.019 65.7231 265.955 65.8712 265.888 66.0168C265.73 66.3631 265.549 66.6988 265.368 67.0335C265.284 67.19 265.199 67.3463 265.117 67.5034C264.849 67.9931 264.645 68.515 264.511 69.0563C264.512 69.0605 264.512 69.0649 264.511 69.0691C264.457 69.3145 264.427 69.5619 264.396 69.8129C264.391 69.8493 264.387 69.8857 264.382 69.9222C264.379 69.9518 264.374 69.9818 264.37 70.0118C264.362 70.0593 264.354 70.1067 264.354 70.1521C264.354 70.163 264.355 70.1717 264.356 70.1805C264.359 70.1986 264.361 70.2173 264.354 70.2568C264.351 70.2757 264.346 70.2945 264.342 70.3136C264.333 70.3538 264.323 70.3948 264.323 70.4382L264.308 70.5403C264.298 70.6042 264.277 70.6987 264.269 70.7268C264.267 70.735 264.264 70.7436 264.261 70.7525C264.254 70.774 264.246 70.797 264.246 70.8187C264.226 70.8979 264.2 70.9873 264.172 71.0742C264.065 71.3724 263.889 71.6411 263.658 71.8583L263.576 71.9324C263.489 72.0029 263.394 72.0622 263.293 72.1086L263.182 72.1495C263.099 72.1748 263.013 72.1893 262.925 72.1929C262.902 72.2367 262.879 72.2821 262.857 72.3278C262.84 72.3621 262.822 72.3965 262.805 72.4305C262.707 72.6127 262.604 72.7889 262.496 72.9592C262.48 72.9844 262.464 73.0098 262.447 73.0353C262.389 73.1262 262.33 73.2182 262.268 73.304V73.3168C261.974 73.7403 261.646 74.14 261.289 74.5122C261.296 74.5381 261.303 74.5632 261.31 74.5877C261.319 74.621 261.327 74.6534 261.338 74.6858C261.425 74.99 261.533 75.2878 261.661 75.5773L261.682 75.6054C261.815 75.8301 262.73 77.3474 263.224 77.7203L264.984 79.0561C264.984 79.0561 266.749 79.8658 267.363 79.8658C267.977 79.8658 271.297 80.7138 271.708 81.1608C271.905 81.316 272.152 81.3965 272.404 81.3881C272.692 81.3692 272.978 81.3333 273.262 81.2809L273.427 81.3345C273.624 81.3064 273.758 81.2809 273.758 81.2809C273.758 81.2809 275.076 81.7151 276.253 81.9986H276.297C276.821 82.1238 277.237 82.5759 277.494 83.1046C277.833 83.7687 277.951 84.563 277.815 84.9922C277.612 85.77 277.828 86.597 278.386 87.1786C278.869 87.6639 279.126 89.2398 279.126 89.2398C279.727 89.4358 280.227 89.8586 280.518 90.4173C280.803 91.0329 280.821 92.1542 280.821 92.7825C280.806 93.0635 280.806 93.2474 280.806 93.2474L280.809 93.2475C280.94 93.2509 283.264 93.3111 283.509 95.3138C283.756 97.3342 286.012 98.2665 286.012 98.2665C286.012 98.2665 287.689 99.9216 287.689 100.693C287.689 101.244 288.346 102.103 288.72 102.592C288.87 102.787 288.974 102.924 288.974 102.959C288.974 102.993 289.07 103.21 289.204 103.515ZM275.066 114.851C275.334 114.537 275.521 114.163 275.611 113.76C275.639 113.347 276.87 111.883 278.046 110.994C278.276 110.815 278.518 110.652 278.771 110.506C278.985 110.377 279.222 110.29 279.47 110.251C279.47 110.251 279.675 108.593 279.144 108.552C278.612 108.511 278.159 107.216 278.159 107.216C278.159 107.216 275.593 104.238 274.765 101.684L274.719 101.748C274.719 101.748 274.737 102.68 274.719 103.658C274.706 104.517 274.665 105.411 274.549 105.748C274.408 106.169 274.716 110.476 275.004 114.036V114.103C275.015 114.23 275.025 114.354 275.035 114.477C275.045 114.6 275.056 114.723 275.066 114.851Z" fill="url(#paint0_linear)"/>
<path d="M213 110.016C213 110.016 214.524 102.042 219.419 102L223 109.358L220.592 110.992C220.592 110.992 215.419 111.156 213 110.016Z" fill="#65617D"/>
<path opacity="0.1" d="M223 109.346L220.6 110.992C220.6 110.992 216.947 111.107 214.336 110.469C213.877 110.362 213.429 110.21 213 110.016C213 110.016 213 109.971 213.026 109.888C213.025 109.877 213.025 109.867 213.026 109.856C213.252 108.855 213.562 107.874 213.954 106.925C214.103 106.567 214.276 106.198 214.46 105.829C215.178 104.449 216.187 103.097 217.568 102.427C218.078 102.177 218.633 102.032 219.2 102H219.347H219.418L219.499 102.162L220.71 104.651L223 109.346Z" fill="black"/>
<path d="M262.647 141.673C262.647 141.673 267.658 141.184 268.099 141.551C268.54 141.917 271.386 143.798 273.072 142.613C274.757 141.428 273.633 137.302 273.633 137.139C273.633 136.975 273.472 131.134 273.472 131.134L270.465 127.008L266.696 119.779L259 119L259.199 130.479L259.161 136.362L262.647 141.673Z" fill="#65617D"/>
<path opacity="0.1" d="M262.647 141.673C262.647 141.673 267.658 141.184 268.099 141.551C268.54 141.917 271.386 143.798 273.072 142.613C274.757 141.428 273.633 137.302 273.633 137.139C273.633 136.975 273.472 131.134 273.472 131.134L270.465 127.008L266.696 119.779L259 119L259.199 130.479L259.161 136.362L262.647 141.673Z" fill="black"/>
<path d="M219 101.173C219 101.173 218.585 105.926 215.373 106C215.373 106 214.468 105.504 213.247 104.65C210.436 102.704 205.979 98.9627 207.21 95.4812C208.977 90.4957 217.562 99.6937 217.562 99.6937L218.224 100.378L219 101.173Z" fill="#A5636D"/>
<path opacity="0.1" d="M219 100.853C219 100.853 218.586 105.921 215.385 106C215.385 106 214.483 105.472 213.267 104.56L213 104.214C213.541 104.495 214.137 104.654 214.747 104.682C215.548 104.697 216.45 104.417 217.028 103.258C217.363 102.605 217.658 101.934 217.912 101.247C218.063 100.844 218.17 100.426 218.232 100L219 100.853Z" fill="black"/>
<path d="M216.745 110L216.129 109.125L214.069 106.18L213 104.676C213.464 104.944 213.975 105.096 214.497 105.121C215.184 105.139 215.957 104.868 216.454 103.759C216.742 103.135 216.995 102.493 217.212 101.835C217.553 100.763 217.546 100.212 217.425 100.025C217.303 99.838 218.189 100.745 218.615 101.193L218.631 101.208L218.828 101.415L218.903 101.577L219.945 103.88C219.945 103.88 219.945 103.913 219.945 103.976C220.041 104.707 220.391 109.343 216.745 110Z" fill="#E7EFFD"/>
<path d="M241.001 198.93C240.926 198.867 240.843 198.813 240.755 198.769H240.734C240.244 198.564 240.693 196.032 240.776 195.705C240.86 195.377 241.515 189.061 241.515 189.061C241.515 189.061 241.27 187.064 241.598 186.204C241.927 185.345 241.186 182.049 241.186 182.049C241.186 182.049 240.941 181.641 241.392 181.15C241.844 180.659 241.679 176.291 241.679 176.291C241.679 176.291 241.64 174.089 241.64 173.515C241.64 172.941 242.131 170.863 242.582 170.167C243.034 169.471 242.747 167.31 242.747 167.31L242.77 167.144C242.783 167.084 242.794 167.006 242.807 166.915L242.846 166.697C242.846 166.645 242.864 166.591 242.875 166.531C242.898 166.401 242.924 166.271 242.953 166.105C242.969 166.011 242.987 165.913 243.008 165.814C243.068 165.502 243.138 165.16 243.214 164.809C243.237 164.7 243.264 164.588 243.29 164.479C243.316 164.37 243.352 164.219 243.386 164.084C243.407 164.004 243.425 163.926 243.449 163.845C243.509 163.606 243.574 163.375 243.645 163.155C244.167 161.438 244.796 158.417 244.796 158.417L248.609 148.449L248.653 148.33L248.773 148.561C249.17 149.358 250.415 152.072 250.415 154.615C250.415 154.615 250.869 158.251 250.744 159.228C250.618 160.204 251.114 164.822 251.114 164.822C251.114 164.822 251.636 171.434 251.636 171.72C251.636 172.006 252.294 177.112 252.704 177.886C253.113 178.66 252.294 181.031 252.046 181.262C251.798 181.493 252.13 187.511 252.13 187.511C252.13 187.511 251.514 192.245 251.388 193.224C251.362 193.458 251.31 193.85 251.255 194.331L251.571 194.183L251.615 194.159C255.791 192.165 259.928 190.058 263.911 187.77L263.945 181.509C263.945 181.509 264.232 178.771 263.906 177.67C263.579 176.569 263.248 174.444 263.697 173.87C264.146 173.296 263.741 170.647 263.741 170.647C263.741 170.647 263.741 165.053 264.354 163.666C264.968 162.279 264.767 153.498 264.767 153.498L264.929 147.743C264.929 147.743 266.268 146.473 265.952 139.845C265.918 139.139 265.866 138.373 265.793 137.536C265.566 135.035 265.336 132.77 265.127 130.81C265.109 130.641 265.09 130.475 265.072 130.314C265.051 130.095 265.025 129.88 265.004 129.669C264.955 129.225 264.908 128.799 264.861 128.394C264.845 128.275 264.832 128.158 264.819 128.041C264.751 127.459 264.688 126.923 264.629 126.431C264.608 126.239 264.582 126.049 264.561 125.87C264.527 125.61 264.495 125.35 264.467 125.109C264.467 125.052 264.451 124.995 264.443 124.937C264.443 124.834 264.42 124.735 264.407 124.639C264.271 123.579 264.19 123 264.19 123H264.154L260.027 123.036L251.02 123.122H250.757L246.059 123.166H245.772L243.517 123.19H243.133L238.435 123.234H238.151L236.222 131.145L232.283 140.128C232.283 140.128 232.223 141.113 232.085 142.073V142.131C232.085 142.164 232.085 142.196 232.069 142.224C232.054 142.253 232.054 142.323 232.046 142.37C231.991 142.805 231.88 143.232 231.714 143.64C231.584 143.924 231.496 144.226 231.453 144.536C231.402 144.864 231.382 145.198 231.393 145.53C231.393 145.567 231.393 145.585 231.393 145.585C231.393 145.585 231.08 147 230.898 148.205C230.864 148.436 230.832 148.66 230.814 148.868C230.779 149.12 230.766 149.374 230.778 149.629C230.792 149.889 230.782 150.149 230.749 150.408C230.749 150.501 230.728 150.597 230.715 150.693C230.587 151.649 230.329 152.719 230.329 152.719L229.587 159.825C229.588 159.833 229.588 159.841 229.587 159.848C229.587 159.877 229.587 159.929 229.587 159.996C229.587 160.064 229.587 160.09 229.587 160.144C229.587 160.199 229.587 160.261 229.572 160.331C229.572 160.5 229.546 160.7 229.527 160.934C229.527 161.017 229.522 161.104 229.512 161.194C229.512 161.272 229.512 161.355 229.496 161.44C229.496 161.485 229.496 161.529 229.496 161.575C229.496 161.622 229.496 161.711 229.483 161.781C229.47 161.851 229.483 161.913 229.483 161.978C229.483 162.043 229.483 162.1 229.483 162.162C229.462 162.544 229.436 162.957 229.418 163.375C229.418 163.443 229.418 163.51 229.418 163.578V163.775C229.418 163.908 229.418 164.035 229.399 164.175C229.399 164.264 229.399 164.354 229.399 164.435C229.399 164.515 229.399 164.679 229.399 164.799V164.908C229.399 164.986 229.399 165.063 229.399 165.136C229.399 165.31 229.399 165.479 229.399 165.643C229.399 165.715 229.399 165.791 229.399 165.863C229.399 166.099 229.399 166.322 229.399 166.533C229.399 166.64 229.399 166.741 229.399 166.84C229.402 167.13 229.423 167.42 229.462 167.707C229.488 167.9 229.509 168.097 229.522 168.299C229.522 168.401 229.522 168.502 229.522 168.601C229.522 168.699 229.522 168.803 229.522 168.905C229.522 169.006 229.522 169.045 229.522 169.112C229.522 169.221 229.522 169.328 229.522 169.434C229.522 169.479 229.522 169.52 229.522 169.562C229.522 169.603 229.522 169.715 229.522 169.79V169.915C229.457 170.808 229.334 171.533 229.316 171.647C229.316 171.647 229.316 171.671 229.316 171.715C229.316 171.759 229.316 171.754 229.316 171.777C229.316 171.8 229.316 171.821 229.316 171.847C229.316 171.873 229.316 171.876 229.316 171.891C229.316 171.956 229.332 172.039 229.339 172.13C229.339 172.172 229.339 172.213 229.339 172.26C229.339 172.307 229.339 172.359 229.355 172.411C229.371 172.463 229.355 172.46 229.355 172.489C229.355 172.582 229.371 172.678 229.381 172.78C229.392 172.881 229.402 172.99 229.413 173.099L229.428 173.304C229.428 173.403 229.449 173.507 229.457 173.608V173.712C229.457 173.782 229.473 173.85 229.478 173.922L229.501 174.242C229.501 174.312 229.517 174.385 229.522 174.455V174.564L229.556 174.985C229.556 175.055 229.556 175.122 229.569 175.192C229.569 175.301 229.585 175.413 229.595 175.517C229.606 175.621 229.595 175.756 229.613 175.865C229.632 175.974 229.627 176.083 229.629 176.182C229.656 176.465 229.656 176.75 229.629 177.034C229.457 177.71 229.321 178.395 229.222 179.085C229.222 179.166 229.199 179.246 229.191 179.33C229.183 179.413 229.191 179.426 229.191 179.475L229.175 179.67C229.175 179.826 229.157 179.984 229.157 180.137C229.15 180.467 229.19 180.797 229.274 181.116C229.345 181.4 229.393 181.688 229.418 181.979C229.439 182.145 229.452 182.321 229.462 182.498C229.473 182.675 229.478 182.867 229.486 183.056C229.486 183.181 229.486 183.316 229.486 183.433C229.501 184.667 229.433 185.846 229.433 185.846C229.433 185.856 229.433 185.867 229.433 185.877V185.898C229.459 186.417 229.694 190.513 229.955 191.889C230.001 192.133 230.031 192.38 230.047 192.627C230.047 192.702 230.047 192.778 230.06 192.853C230.079 193.653 230.017 194.452 229.874 195.24C229.874 195.24 229.491 198.411 229.368 198.411C229.306 198.411 228.992 198.987 229 199.831V199.852C229 200.647 229.308 201.67 230.355 202.709L230.647 203C231.868 202.566 233.079 202.114 234.288 201.655C234.93 201.408 235.572 201.161 236.211 200.907C237.791 200.285 239.357 199.646 240.909 198.99L241.001 198.93Z" fill="#3F3D56"/>
<path d="M262 77.603L256.306 84C256.306 84 249 80.9109 249.768 79.8812C250.067 79.4745 250.013 78.1899 249.847 76.7715C249.577 74.5294 249 71.9474 249 71.9474C249 71.9474 261.77 69.7619 260.691 72.0298C260.299 72.8561 260.366 73.8317 260.61 74.7173C260.924 75.7509 261.394 76.7251 262 77.603Z" fill="#A5636D"/>
<path opacity="0.1" d="M259.934 72.0629C259.534 72.9164 259.342 72.9988 259.592 73.924C257.888 75.8703 255.72 78 253.025 78C251.581 78.0028 250.157 77.6478 248.864 76.963C248.589 74.6472 248 71.9805 248 71.9805C248 71.9805 261.035 69.7205 259.934 72.0629Z" fill="black"/>
<path d="M263 68.4645C263 73.7308 258.747 78 253.5 78C248.253 78 244 73.7308 244 68.4645C244 68.4186 244 68.3727 244 68.3269C244.114 63.1163 248.374 58.9626 253.566 59.0003C258.759 59.0379 262.959 63.2528 262.997 68.4645H263Z" fill="#A5636D"/>
<path opacity="0.1" d="M264 132.834C262.765 132.834 258.698 132.884 254.142 132.966H254.086L252.581 132.994H252.534C247.131 133.093 241.807 131.891 239.67 132.119C235.124 132.606 241.3 127.335 241.3 127.335C244.687 128.271 248.17 128.672 251.652 128.528L252.959 128.449C257.087 128.185 261.238 127.743 263.407 127C263.558 128.373 263.778 130.363 264 132.834Z" fill="black"/>
<path d="M264 130.834C262.765 130.834 258.698 130.882 254.142 130.966H254.086L252.581 130.994H252.534C247.131 131.093 241.807 129.891 239.67 130.119C235.124 130.603 241.3 125.335 241.3 125.335C244.687 126.271 248.17 126.671 251.652 126.525L252.959 126.449C257.087 126.185 261.238 125.74 263.407 125C263.558 126.373 263.778 128.369 264 130.834Z" fill="#5F5D7E"/>
<path opacity="0.1" d="M250.578 80.4512L243.476 83.9056L238 128C238 128 241.24 126.467 243.093 127.438C244.947 128.409 250.656 127.52 250.656 127.52C250.656 127.52 254.829 127.264 255.44 127.76C256.051 128.256 263.315 125.752 263.315 125.752C263.315 125.752 264.625 122.698 263.621 122.218C262.618 121.738 263.931 116.988 263.931 116.988L263.315 85.1755L262.087 81.0874L258.769 79L255.374 81.8105L253.754 82.0532L250.578 80.4512Z" fill="black"/>
<path d="M250.578 80.4385L243.479 83.8931L238 128C238 128 241.24 126.467 243.093 127.438C244.947 128.409 250.656 127.517 250.656 127.517C250.656 127.517 254.829 127.277 255.44 127.757C256.051 128.238 263.315 125.749 263.315 125.749C263.315 125.749 264.625 122.698 263.621 122.215C262.618 121.732 263.931 116.992 263.931 116.992L263.315 85.1783L262.087 81.0901L258.769 79L255.374 81.8107L253.754 82.0508L250.578 80.4385Z" fill="#E7EFFD"/>
<path opacity="0.1" d="M249.814 81.6502C249.814 81.6502 251.975 84.2047 251.934 84.7336C251.892 85.2626 251.812 86.5166 251.812 86.5166L250.195 89.8039C250.195 89.8039 249.298 93.9013 249.298 94.7528C249.298 95.6043 247.872 102.986 247.872 102.986L246.162 114.34L244 129.228L246.201 133L248.808 130.809L252.268 104.284L253.002 99.0515C253.002 99.0515 253.779 89.6413 253.779 88.6685C253.779 87.6958 253.331 85.1387 253.331 85.1387C253.331 85.1387 253.862 82.7056 256.063 82.1379C258.263 81.5702 255.899 82.014 255.899 82.014L254.637 81L253.536 81.4464C253.536 81.4464 250.467 80.5149 249.814 81.6502Z" fill="black"/>
<path d="M249.828 81.6503C249.828 81.6503 251.987 84.2048 251.948 84.7312C251.909 85.2576 251.823 86.5169 251.823 86.5169L250.193 89.8043C250.193 89.8043 249.297 93.8994 249.297 94.7509C249.297 95.6024 247.871 102.987 247.871 102.987L246.159 114.341L244 129.227L246.2 133L248.807 130.809L252.266 104.285L253 99.0524C253 99.0524 253.777 89.6417 253.777 88.6663C253.777 87.6909 253.329 85.1389 253.329 85.1389C253.329 85.1389 253.847 82.7031 256.058 82.1354C258.268 81.5677 255.897 82.0141 255.897 82.0141L254.632 81L253.534 81.4464C253.534 81.4464 250.481 80.5123 249.828 81.6503Z" fill="#9E7E44"/>
<path opacity="0.1" d="M248.539 78C248.539 78 248.23 78.2378 248.155 79.8291C248.079 81.4203 247 85 247 85C247 85 250.999 82.1362 253 82.455L248.539 78Z" fill="black"/>
<path d="M248.539 77C248.539 77 248.23 77.2403 248.155 78.8291C248.079 80.4178 247 84 247 84C247 84 250.999 81.1362 253 81.455L248.539 77Z" fill="#E7EFFD"/>
<path opacity="0.1" d="M260.968 77L255 82.8288C255 82.8288 260.031 86.1474 260.688 86.9481C261.344 87.7488 262 79.0159 262 79.0159L260.968 77Z" fill="black"/>
<path d="M260.979 77L255 82.8288C255 82.8288 260.031 86.1474 260.687 86.9481C261.344 87.7488 262 79.0133 262 79.0133L260.979 77Z" fill="#E7EFFD"/>
<path opacity="0.1" d="M249.878 78.061C249.878 78.061 249.165 77.6978 248.493 78.7438C247.821 79.7897 246.555 80.2782 246.555 80.2782C246.555 80.2782 239.351 81.4443 239.075 82.4084L235.712 82.6079C235.712 82.6079 234.524 82.7537 234.413 85.311C234.302 87.8684 233.658 88.0832 233.658 88.0832C233.658 88.0832 232.271 90.5766 232.399 91.8629C232.528 93.1492 231.33 93.7937 231.33 93.7937L236.286 106.846C236.286 106.846 236.444 112.235 235.531 114.204C234.617 116.173 232.918 124.898 232.918 124.898C232.918 124.898 233.63 124.737 233.59 125.221C233.55 125.704 232.719 130.97 232.719 130.97C232.719 130.97 232.483 133.059 232.087 133.783C231.692 134.506 231.652 138.286 231.652 138.286L231 141.02C231 141.02 232.51 144.437 234.801 143.953C237.091 143.47 241.249 134.345 241.249 134.345L243.9 124.497L245.959 114.766L246.553 108.174L247.502 93.5789L248.886 83.9301C248.886 83.9301 250.439 78.7438 249.878 78.061Z" fill="black"/>
<path d="M247.88 77.06C247.88 77.06 247.168 76.6995 246.495 77.7453C245.823 78.791 244.554 79.2793 244.554 79.2793C244.554 79.2793 237.351 80.4452 237.074 81.4091L233.711 81.6111C233.711 81.6111 232.522 81.7722 232.404 84.3034C232.286 86.8347 231.649 87.0775 231.649 87.0775C231.649 87.0775 230.264 89.5704 230.39 90.8565C230.516 92.1425 229.322 92.7843 229.322 92.7843L234.262 105.839C234.262 105.839 234.421 111.226 233.507 113.195C232.593 115.164 230.896 123.888 230.896 123.888C230.896 123.888 231.608 123.727 231.568 124.21C231.528 124.693 230.697 129.957 230.697 129.957C230.697 129.957 230.46 132.046 230.065 132.77C229.67 133.494 229.629 137.272 229.629 137.272L229 140.018C229 140.018 230.511 143.434 232.799 142.954C235.088 142.473 239.252 133.345 239.252 133.345L241.903 123.499L243.963 113.783L244.554 107.192L245.506 92.6028L246.891 82.956C246.891 82.956 248.434 77.7453 247.88 77.06Z" fill="#65617D"/>
<path opacity="0.1" d="M223 109.393L220.66 110.992C220.66 110.992 217.098 111.104 214.553 110.484L213.255 109.911L213 109.797L213.268 109.881C214.612 110.278 215.662 110.27 216.482 109.995C219.781 108.892 219.415 103.472 219.293 102.247C219.293 102.125 219.272 102.046 219.267 102.015C219.267 102.01 219.267 102.005 219.267 102L219.288 102.031C219.332 102.105 219.382 102.176 219.438 102.242C219.484 102.296 219.534 102.348 219.587 102.397L220.749 104.713C220.749 104.713 220.749 104.746 220.749 104.81L223 109.393Z" fill="black"/>
<path d="M230.703 93L229.587 93.3229L229.427 95.6296C229.427 95.6296 228.111 95.4297 227.753 97.0007C227.396 98.5718 226.757 99.3074 226.757 99.3074C226.757 99.3074 224.563 101.16 224.444 102.731L223.087 103.577C223.087 103.577 219.937 102.852 219.219 101.563C219.219 101.563 220.654 111.958 213 109.421C213 109.421 221.573 113.209 221.971 113.732C222.369 114.254 225.002 115.782 227.393 114.5C229.785 113.219 230.305 111.197 230.305 111.197C230.305 111.197 232.618 107.934 232.697 107.45C232.775 106.965 234.571 106.402 234.571 106.402L238 98.0234L230.703 93Z" fill="#65617D"/>
<path opacity="0.1" d="M259.826 80.3292L261.034 75C261.034 75 261.564 76.7362 262.118 77.1394C262.671 77.5426 263.909 78.4723 263.909 78.4723C263.909 78.4723 265.699 79.2813 266.322 79.2813C266.944 79.2813 270.322 80.1289 270.738 80.5655C271.154 81.0021 272.82 80.6862 272.82 80.6862C272.82 80.6862 274.195 81.1305 275.402 81.413C276.61 81.6955 277.193 83.6346 276.942 84.4C276.737 85.1756 276.957 85.9986 277.524 86.5804C278.025 87.0659 278.274 88.6351 278.274 88.6351C278.887 88.8287 279.397 89.2497 279.691 89.8062C280.107 90.6949 279.983 92.6313 279.983 92.6313L273.779 101.107C273.779 101.107 273.861 104.376 273.612 105.103C273.363 105.83 274.486 118.186 274.486 118.186L275.776 139.423C275.776 139.423 274.07 140.836 273.694 140.997C273.318 141.159 272.944 133.488 272.944 133.205C272.944 132.923 263.326 119.234 263.326 119.234C263.326 119.234 262.033 117.215 262.033 116.771C262.033 116.326 260.825 112.251 260.825 112.251L259 104.394L259.826 80.3292Z" fill="black"/>
<path d="M279.999 92.1855C279.999 92.4627 279.983 92.6476 279.983 92.6476L273.783 101.12C273.783 101.12 273.868 104.39 273.619 105.117C273.473 105.538 273.791 109.882 274.085 113.448C274.294 116.015 274.493 118.192 274.493 118.192L275.038 127.198L275.78 139.424C275.78 139.424 274.074 140.836 273.701 140.997C273.328 141.159 272.952 133.491 272.952 133.206C272.952 132.921 263.327 119.237 263.327 119.237C263.327 119.237 262.038 117.217 262.038 116.772C262.038 116.328 260.83 112.251 260.83 112.251L259 104.383L259.832 80.3271L260.539 75C260.539 75 261.58 76.7381 262.128 77.1386C262.676 77.5391 263.915 78.471 263.915 78.471C263.915 78.471 265.706 79.2797 266.331 79.2797C266.956 79.2797 270.327 80.1269 270.745 80.5633C271.164 80.9998 272.827 80.684 272.827 80.684C272.827 80.684 274.199 81.1281 275.407 81.4105C276.614 81.6929 277.197 83.6312 276.948 84.3963C276.742 85.1716 276.962 85.995 277.531 86.5759C278.028 87.0586 278.28 88.6298 278.28 88.6298C278.893 88.8241 279.402 89.2447 279.697 89.8005C279.98 90.4372 280.007 91.5565 279.999 92.1855Z" fill="#65617D"/>
<path opacity="0.1" d="M237 200.412C236.34 200.616 235.678 200.806 235.015 201C232.939 200.541 231 200 231 200C233.008 200.054 235.011 200.192 237 200.412Z" fill="black"/>
<path opacity="0.1" d="M256 180C256 180 259.778 180.595 260 181L256 180Z" fill="black"/>
<path opacity="0.1" d="M236.527 183C236.527 183 235.366 183.864 236.49 185.592C237.615 187.32 236.527 183 236.527 183Z" fill="black"/>
<path opacity="0.1" d="M247 144C247.293 144 251.854 142.505 253.442 143.171C255.031 143.836 257 143.834 257 143.834L247 144Z" fill="black"/>
<path opacity="0.1" d="M249 149.265L248.954 149.673L245.01 159.679C245.01 159.679 244.375 162.715 243.823 164.437C243.477 165.608 243.203 166.798 243 168L246.498 147L249 149.265Z" fill="black"/>
<path d="M254 130.975L252.145 131H252.087L251 127.069C251.533 127.05 252.072 127.027 252.611 127L254 130.975Z" fill="#3F3D56"/>
<path d="M273 125.994L272.011 126.85L268.715 129.703C268.715 129.703 259.767 134.701 257.303 129.952C255.13 125.769 265.274 122.784 267.718 122.132C268.049 122.045 268.239 122 268.239 122L273 125.994Z" fill="#A5636D"/>
<path opacity="0.1" d="M236 87C236 87 236.799 87.3696 236.981 87.8858C237.162 88.4021 236 87 236 87Z" fill="black"/>
<path opacity="0.1" d="M229 99C229 99 227.556 101.774 228.139 102.847C228.721 103.92 229 99 229 99Z" fill="black"/>
<path opacity="0.1" d="M275 88C275 88 272.098 88.3092 272 91L275 88Z" fill="black"/>
<path opacity="0.1" d="M253 122C253.253 121.783 258.728 114.39 260 115.04L253 122Z" fill="black"/>
<path opacity="0.1" d="M263 68.8253C263.001 70.4572 262.615 72.0641 261.875 73.5021H261.804C261.203 73.3697 260.89 72.6388 260.431 72.178C259.851 71.603 258.985 71.4764 258.275 71.8629C257.562 72.3073 257.151 73.1356 257.217 74C256.912 72.6759 257.009 71.2485 256.709 69.9137C256.409 68.579 255.518 67.2258 254.295 67.2019C253.767 67.2019 253.152 67.4059 252.771 66.9927C252.54 66.7438 252.495 66.3519 252.322 66.0499C251.446 64.5749 248.786 65.3217 247.699 66.0791C246.612 66.8365 245.351 68.0441 244 68.6929C244.114 63.2779 248.374 58.9612 253.566 59.0003C258.759 59.0393 262.959 63.4197 262.997 68.8359L263 68.8253Z" fill="black"/>
<path d="M251.801 66.5369C251.975 66.8204 252.021 67.1885 252.253 67.4223C252.635 67.8077 253.252 67.6088 253.783 67.6187C255.012 67.6386 255.909 68.9094 256.208 70.1628C256.506 71.4162 256.409 72.7491 256.718 74C256.653 73.1891 257.065 72.4126 257.781 71.9956C258.492 71.6323 259.362 71.7513 259.943 72.2915C260.405 72.7193 260.708 73.4056 261.325 73.535C261.942 73.6643 262.514 73.0923 262.733 72.4706C262.952 71.8489 262.934 71.1675 263.077 70.5234C263.35 69.3023 264.166 68.3026 264.607 67.1437C265.145 65.7328 265.13 64.178 264.566 62.7768C264.265 62.0308 263.819 61.3817 263.513 60.6481C263.054 59.534 262.932 58.2781 262.371 57.2162C261.427 55.4381 259.204 54.5503 257.378 55.2267C256.506 55.5475 255.749 56.1668 254.864 56.4428C253.681 56.8133 252.413 56.5348 251.187 56.3682C249.96 56.2016 248.604 56.1866 247.617 56.9725C246.482 57.8777 246.171 59.5787 245.105 60.5735C244.657 60.9913 244.101 61.2573 243.629 61.6428C243.157 62.0283 242.749 62.6027 242.803 63.2294C242.874 64.0401 243.688 64.7762 243.387 65.5248C243.279 65.7426 243.127 65.9371 242.94 66.0968C242.048 67.0105 241.384 68.1126 241 69.3172C243.147 69.9713 245.467 67.6635 247.148 66.5817C248.252 65.8531 250.924 65.1493 251.801 66.5369Z" fill="#4C3E42"/>
<path opacity="0.1" d="M274 125.295L272.91 126C271.949 124.745 268 122.238 268 122.238L268.17 122.109C268.535 122.037 268.744 122 268.744 122L274 125.295Z" fill="black"/>
<path d="M274 125.408C274 125.408 273.653 126.241 273.296 126.963C272.939 127.685 272.557 128.337 272.528 127.806C272.488 126.756 268 123.236 268 123.236L268.608 122.664L269.315 122L274 125.408Z" fill="#E7EFFD"/>
<path opacity="0.1" d="M274.464 119.477L275 128C273.731 126.156 270.242 121.426 268 121.579L273.439 115.748C273.666 115.513 273.875 115.263 274.064 115C274.269 117.425 274.464 119.477 274.464 119.477Z" fill="black"/>
<path opacity="0.1" d="M274 125.12C274 125.12 273.613 126.128 273.215 127C271.711 124.835 269.647 122.281 268 121.803L268.788 121L274 125.12Z" fill="black"/>
<path d="M278.255 93L279.744 94.1318C279.744 94.1318 282.225 94.173 282.472 96.1897C282.719 98.2063 284.994 99.1427 284.994 99.1427C284.994 99.1427 286.691 100.799 286.691 101.568C286.691 102.337 287.972 103.711 287.972 103.832C287.972 103.953 289.213 106.42 289.047 106.865C288.882 107.31 290.363 109.252 289.915 109.98C289.542 110.633 289.211 111.308 288.924 112.002C288.924 112.002 286.98 115.641 285.986 116.328C284.992 117.015 280.446 122.798 280.446 122.798C280.446 122.798 275.567 128.297 275.567 130C275.567 130 270.812 122.234 268 122.437L273.5 116.251C273.5 116.251 274.449 115.24 274.492 114.633C274.534 114.026 277.138 111.235 278.379 111.114C278.379 111.114 278.584 109.455 278.048 109.416C277.511 109.378 277.056 108.081 277.056 108.081C277.056 108.081 273.416 103.876 273.374 101.206C273.332 98.5356 278.255 93 278.255 93Z" fill="#65617D"/>
<path opacity="0.1" d="M281 97C281 97 277.323 99.197 278.111 99.9075C278.898 100.618 281 97 281 97Z" fill="black"/>
<path opacity="0.1" d="M280 107C280 107 286.357 104.75 287 107H280Z" fill="black"/>
<path opacity="0.1" d="M237 96C237 96 237 105.053 236.219 105.948C235.438 106.842 237 96 237 96Z" fill="black"/>
<path opacity="0.1" d="M272 99L272.95 102C272.95 102 273.328 99.0562 272 99Z" fill="black"/>
<g opacity="0.1">
<path d="M243.668 64.495C243.958 63.7575 243.198 63.035 243.097 62.245C242.997 62.468 242.953 62.7117 242.97 62.955C243.021 63.5525 243.476 64.1075 243.584 64.66C243.617 64.6077 243.645 64.5524 243.668 64.495Z" fill="black"/>
<path d="M256.838 72.96C256.552 71.71 256.635 70.4075 256.347 69.17C256.059 67.9325 255.163 66.63 253.945 66.61C253.419 66.61 252.808 66.8 252.429 66.4125C252.199 66.1775 252.154 65.8075 251.982 65.5225C251.113 64.13 248.465 64.835 247.382 65.55C245.757 66.6175 243.526 68.8525 241.442 68.3475C241.344 68.585 241.25 68.825 241.172 69.0725C243.299 69.73 245.598 67.41 247.263 66.3225C248.347 65.61 250.992 64.9025 251.863 66.2975C252.035 66.5825 252.081 66.9525 252.31 67.1875C252.689 67.575 253.301 67.375 253.826 67.385C255.044 67.405 255.933 68.6825 256.229 69.9425C256.524 71.2025 256.428 72.5425 256.734 73.8C256.712 73.5159 256.747 73.2303 256.838 72.96Z" fill="black"/>
<path d="M262.81 71.485C262.593 72.11 262.027 72.6825 261.416 72.555C260.804 72.4275 260.506 71.74 260.049 71.305C259.471 70.7638 258.609 70.6453 257.904 71.01C257.23 71.4076 256.826 72.136 256.851 72.9125C257.01 72.4324 257.343 72.0274 257.785 71.775C258.49 71.4098 259.352 71.5294 259.928 72.0725C260.385 72.5025 260.686 73.1925 261.297 73.3225C261.908 73.4525 262.474 72.8775 262.691 72.2525C262.804 71.8844 262.876 71.5057 262.909 71.1225C262.882 71.245 262.85 71.366 262.81 71.485Z" fill="black"/>
<path d="M264.677 66.1325C264.23 67.2975 263.414 68.3025 263.161 69.5275C263.106 69.7775 263.075 70.0275 263.045 70.2775C263.315 69.0575 264.121 68.055 264.561 66.8925C264.76 66.3689 264.883 65.8202 264.927 65.2625C264.867 65.5586 264.783 65.8495 264.677 66.1325Z" fill="black"/>
</g>
<path d="M207 94.0997C207.055 94.0997 207.099 94.0551 207.099 94C207.099 93.9449 207.055 93.9003 207 93.9003C206.945 93.9003 206.9 93.9449 206.9 94C206.9 94.0551 206.945 94.0997 207 94.0997Z" fill="#E6E8EC"/>
<path d="M126 150.555C126 150.555 128.942 149.603 132 150.193C132 150.193 131.144 151.011 127.346 151L126 150.555Z" fill="#9E7E44"/>
<path d="M127.054 150C127.054 150 126.709 153.64 127.76 156C127.76 156 128.349 154.459 127.682 150.875L127.054 150Z" fill="#9E7E44"/>
<path d="M123 148.022C123 148.022 123.096 145.476 128.999 146.098C128.999 146.098 129.093 147.737 127.062 148.59C125.031 149.442 124.062 148.825 123 148.022Z" fill="#9E7E44"/>
<path d="M123.125 147C123.125 147 120.613 147.989 123.096 154C123.096 154 124.771 153.524 124.972 151.084C125.173 148.643 124.259 147.849 123.125 147Z" fill="#9E7E44"/>
<path d="M119.011 142.827C119.011 142.827 118.471 137.762 124.978 138.009C124.978 138.009 125.599 142.589 120.2 144L119.011 142.827Z" fill="#9E7E44"/>
<path d="M115 138.652C115 138.652 115.667 132.769 121.999 134.235C121.999 134.235 122.19 139.299 116.07 140L115 138.652Z" fill="#9E7E44"/>
<path d="M112 133.268C112 133.268 113.163 129.131 119 130.166C119 130.166 117.782 133.883 112.411 134L112 133.268Z" fill="#9E7E44"/>
<path d="M108 128.95C108 128.95 109.176 122.668 115 124.258C115 124.258 113.251 130.255 108.416 129.992L108 128.95Z" fill="#9E7E44"/>
<path d="M106 123.13C106 123.13 106.908 117.007 113 118.14C113 118.14 111.485 123.739 106.487 124L106 123.13Z" fill="#9E7E44"/>
<path d="M103 117.096C103 117.096 104.091 110.621 110 112.269C110 112.269 107.946 118.426 103.449 117.977L103 117.096Z" fill="#9E7E44"/>
<path d="M103 110.854C103 110.854 104.761 104.998 109 105C109 105 107.206 111.182 103.401 112L103 110.854Z" fill="#9E7E44"/>
<path d="M101 106.743C101 106.743 103.116 98.5413 107 99.0202C107 99.0202 105.558 105.283 101.18 108L101 106.743Z" fill="#9E7E44"/>
<path d="M100 98.2499C100 98.2499 102.078 91.4109 106 91C106 91 104.666 97.7012 100.161 100L100 98.2499Z" fill="#9E7E44"/>
<path d="M100 93.0624C100 93.0624 102.026 87.2106 104 87C104 87 103.233 92.7122 100.231 94L100 93.0624Z" fill="#9E7E44"/>
<path d="M99 87.4399C99 87.4399 100.481 79.7306 103 79C103 79 102.89 85.2616 99.2784 88L99 87.4399Z" fill="#9E7E44"/>
<path d="M99 79.469C99 79.469 100.337 73.0489 102 72C102 72 101.888 79.4944 99.4392 81L99 79.469Z" fill="#9E7E44"/>
<path d="M97.3504 75.2139L97 65C97 65 98.8613 72.5773 97.5052 77L97.3504 75.2139Z" fill="#9E7E44"/>
<path d="M93.7952 65.1185C93.7952 65.1185 91.5071 58.3596 91 58C91 58 95.1927 62.2583 94.9931 68L93.7952 65.1185Z" fill="#9E7E44"/>
<path d="M119.771 144.006C119.771 144.006 114.593 143.588 115.026 149.988C115.026 149.988 119.711 150.485 121 145.149L119.771 144.006Z" fill="#9E7E44"/>
<path d="M113.862 139C113.862 139 108.35 139.191 109.064 145.982C109.064 145.982 113.721 146.623 115 140.236L113.862 139Z" fill="#9E7E44"/>
<path d="M111.496 134.31C111.496 134.31 106.129 132.477 103 137.728C103 137.728 107.948 139.241 112 135.126L111.496 134.31Z" fill="#9E7E44"/>
<path d="M108.513 128.387C108.513 128.387 102.959 126.321 100 131.737C100 131.737 105.754 133.203 109 129.214L108.513 128.387Z" fill="#9E7E44"/>
<path d="M105.737 122.835C105.737 122.835 100.699 118.463 97 123.215C97 123.215 102.113 126.775 106 123.84L105.737 122.835Z" fill="#9E7E44"/>
<path d="M104.787 116.784C104.787 116.784 99.681 112.44 96 117.31C96 117.31 101.675 120.819 105 117.725L104.787 116.784Z" fill="#9E7E44"/>
<path d="M102.989 110.58C102.989 110.58 98.702 104.743 94 106.248C94 106.248 98.4502 112.434 103 111.976L102.989 110.58Z" fill="#9E7E44"/>
<path d="M100.868 105.805C100.868 105.805 97.1886 98.8079 94 100.178C94 100.178 96.6633 105.561 101 107L100.868 105.805Z" fill="#9E7E44"/>
<path d="M101.513 98.4767C101.513 98.4767 96.9817 93.3036 93 94.0792C93 94.0792 96.7495 99.3502 102 100L101.513 98.4767Z" fill="#9E7E44"/>
<path d="M100 92.9707C100 92.9707 96.5753 86.9714 94 87.0001C94 87.0001 95.7825 93.0137 99.8301 94L100 92.9707Z" fill="#9E7E44"/>
<path d="M100 87.4118C100 87.4118 96.4736 80.9164 94 81.0008C94 81.0008 95.8942 86.5986 99.9118 88L100 87.4118Z" fill="#9E7E44"/>
<path d="M98 79.6121C98 79.6121 95.7427 74.5111 94 74C94 74 95.2536 80.2806 97.8185 81L98 79.6121Z" fill="#9E7E44"/>
<path d="M97.0959 74.3943L91 66C91 66 92.8082 74.4358 98 76L97.0959 74.3943Z" fill="#9E7E44"/>
<path d="M92.124 65.9299C92.124 65.9299 85.2639 61.7105 85 61C85 61 88.657 67.1336 95 68L92.124 65.9299Z" fill="#9E7E44"/>
<path d="M92.8325 63C92.8325 63 84.9424 55.9189 83 56.0007C83 56.0007 89.2827 56.0482 93 62.5988L92.8325 63Z" fill="#9E7E44"/>
<path d="M98 80.9546L97.7169 81C95.8207 70.2581 93.4437 63.9543 91 63.2525L91.0828 63C93.6654 63.7372 96.0557 69.9501 98 80.9546Z" fill="#444053"/>
<path d="M102 107.949L101.643 108C101.533 106.974 101.441 105.933 101.365 104.892C100.718 95.8308 99.9072 87.5205 99 81.3026L99.1976 81C100.096 87.2282 101.077 95.7846 101.726 104.846C101.798 105.895 101.892 106.938 102 107.949Z" fill="#444053"/>
<path d="M134.8 155C134.726 154.969 127.385 152.035 119.598 144.659C115.038 140.342 111.194 135.333 108.208 129.818C104.475 122.924 102.03 114.365 101 106L101.436 106.184C103.742 124.957 112.848 137.504 119.959 144.245C127.669 151.555 134.928 154.459 135 154.492L134.8 155Z" fill="#444053"/>
<g opacity="0.7">
<path d="M140.408 146.851C140.408 146.851 143.773 145.767 146.244 147.819C146.244 147.819 144.917 149.23 141.376 148.127L140.408 146.851Z" fill="#9E7E44"/>
<path d="M140.028 146.856C140.028 146.856 138.264 149.858 139.835 152.63C139.835 152.63 141.517 151.642 141.117 148.036L140.028 146.856Z" fill="#9E7E44"/>
<path d="M137.322 142.819C137.322 142.819 138.296 140.126 144.388 142.714C144.388 142.714 143.927 144.501 141.462 144.756C138.997 145.011 138.186 144.021 137.322 142.819Z" fill="#9E7E44"/>
<path d="M136.94 142.709C136.94 142.709 134.017 142.844 134.805 149.291C134.805 149.291 136.684 149.373 137.639 147.142C138.594 144.912 137.869 143.847 136.94 142.709Z" fill="#9E7E44"/>
<path d="M134.416 137.86C134.416 137.86 135.306 133.245 141.675 135.42C141.675 135.42 141.003 139.631 135.264 139.248L134.416 137.86Z" fill="#9E7E44"/>
<path d="M131.535 131.62C131.535 131.62 133.846 126.732 139.909 129.971C139.909 129.971 138.708 134.404 132.25 133.118L131.535 131.62Z" fill="#9E7E44"/>
<path d="M129.857 125.517C129.857 125.517 132.736 120.911 138.755 124.111C138.755 124.111 135.981 128.195 130.03 126.551L129.857 125.517Z" fill="#9E7E44"/>
<path d="M128.305 119.581C128.305 119.581 131.199 114.788 136.979 117.978C136.979 117.978 133.544 122.35 128.47 120.571L128.305 119.581Z" fill="#9E7E44"/>
<path d="M127.738 114.18C127.738 114.18 130.617 108.144 136.018 111.072C136.018 111.072 132.739 116.388 127.906 115.214L127.738 114.18Z" fill="#9E7E44"/>
<path d="M127.572 107.795C127.572 107.795 130.686 101.767 136.027 105.166C136.027 105.166 132.057 110.592 127.737 108.783L127.572 107.795Z" fill="#9E7E44"/>
<path d="M127.98 101.999C127.98 101.999 131.885 96.1798 136.37 97.5452C136.37 97.5452 132.317 103.711 127.996 103.38L127.98 101.999Z" fill="#9E7E44"/>
<path d="M128.76 96.4427C128.76 96.4427 133.209 89.3705 136.736 90.9376C136.736 90.9376 133.499 96.384 128.559 97.6729L128.76 96.4427Z" fill="#9E7E44"/>
<path d="M130.138 89.9218C130.138 89.9218 134.089 84.0952 137.8 84.7996C137.8 84.7996 134.573 90.7079 129.756 91.6088L130.138 89.9218Z" fill="#9E7E44"/>
<path d="M131.347 83.8374C131.347 83.8374 135.84 78.1434 138.286 78.6334C138.286 78.6334 135.358 84.6311 131.297 84.9527L131.347 83.8374Z" fill="#9E7E44"/>
<path d="M132.584 78.197C132.584 78.197 136.182 71.6761 138.747 71.7323C138.747 71.7323 136.842 77.3471 132.681 78.7815L132.584 78.197Z" fill="#9E7E44"/>
<path d="M133.695 70.6833C133.695 70.6833 136.987 65.5994 139.17 65.265C139.17 65.265 136.972 71.7042 133.771 72.156L133.695 70.6833Z" fill="#9E7E44"/>
<path d="M134.266 65.7039L136.621 55.8295C136.621 55.8295 138.21 64.1675 134.057 67.5007L134.266 65.7039Z" fill="#9E7E44"/>
<path d="M134.149 55.2425C134.149 55.2425 133.511 47.4097 132.99 46.8457C132.99 46.8457 136.845 52.8332 134.691 58.6624L134.149 55.2425Z" fill="#9E7E44"/>
<path d="M134.247 137.773C134.247 137.773 129.799 135.969 128.182 142.367C128.182 142.367 132.162 144.126 134.985 139.23L134.247 137.773Z" fill="#9E7E44"/>
<path d="M131.364 131.39C131.364 131.39 126.044 129.971 124.678 136.586C124.678 136.586 128.93 138.544 132.078 132.896L131.364 131.39Z" fill="#9E7E44"/>
<path d="M129.69 125.926C129.69 125.926 125.469 122.439 120.793 127.332C120.793 127.332 124.747 130.351 129.86 126.959L129.69 125.926Z" fill="#9E7E44"/>
<path d="M128.182 119.601C128.182 119.601 123.885 115.944 119.434 120.76C119.434 120.76 124.11 123.848 128.346 120.594L128.182 119.601Z" fill="#9E7E44"/>
<path d="M127.762 114.336C127.762 114.336 124.226 108.642 119.184 112.128C119.184 112.128 123.038 117.064 127.707 115.38L127.762 114.336Z" fill="#9E7E44"/>
<path d="M127.887 107.713C127.887 107.713 124.35 101.912 119.252 105.672C119.252 105.672 123.601 110.814 127.783 108.716L127.887 107.713Z" fill="#9E7E44"/>
<path d="M128.521 101.945C128.521 101.945 126.398 95.3095 121.701 95.4243C121.701 95.4243 123.871 102.438 128.112 103.267L128.521 101.945Z" fill="#9E7E44"/>
<path d="M128.879 96.4351C128.879 96.4351 127.133 88.314 123.273 88.6279C123.273 88.6279 124.435 94.8221 128.643 97.6601L128.879 96.4351Z" fill="#9E7E44"/>
<path d="M130.49 89.6233C130.49 89.6233 128.221 82.9875 124.447 82.7323C124.447 82.7323 125.996 89.2557 130.408 91.3409L130.49 89.6233Z" fill="#9E7E44"/>
<path d="M131.785 83.817C131.785 83.817 130.568 76.7321 128.171 76.0404C128.171 76.0404 127.862 82.6761 131.293 84.8251L131.785 83.817Z" fill="#9E7E44"/>
<path d="M132.754 78.0898C132.754 78.0898 131.229 70.8364 128.756 70.178C128.756 70.178 128.929 76.0812 132.49 78.6283L132.754 78.0898Z" fill="#9E7E44"/>
<path d="M134.115 71.2141C134.115 71.2141 133.113 65.2803 131.236 64.142C131.236 64.142 130.684 70.9079 133.453 72.5438L134.115 71.2141Z" fill="#9E7E44"/>
<path d="M134.025 65.4437L130.783 55.8091C130.783 55.8091 129.959 64.2543 134.397 67.2149L134.025 65.4437Z" fill="#9E7E44"/>
<path d="M132.704 55.5692C132.704 55.5692 127.494 49.5715 127.471 48.816C127.471 48.816 129.064 55.707 134.798 58.3664L132.704 55.5692Z" fill="#9E7E44"/>
<path d="M132.856 53.5299C132.856 53.5299 127.416 44.7018 125.529 44.2144C125.529 44.2144 131.517 46.0826 133.118 53.2083L132.856 53.5299Z" fill="#9E7E44"/>
<path d="M133.759 72.2171L133.481 72.1788C135.02 61.2733 134.732 54.5099 132.67 53.1394L132.83 52.9148C135.015 54.367 135.336 61.0385 133.759 72.2171Z" fill="#444053"/>
<path d="M128.808 97.9638L128.395 97.8898C128.583 96.8817 128.795 95.8481 129.03 94.8425C131.061 86.0144 132.694 77.8423 133.56 71.6174L133.872 71.3979C132.992 77.6228 131.475 86.0833 129.439 94.9216C129.208 95.9425 128.994 96.9608 128.808 97.9638Z" fill="#444053"/>
<path d="M146.565 153.86C146.502 153.811 140.238 148.832 134.897 139.488C131.762 134.019 129.537 128.099 128.305 121.949C126.766 114.262 126.996 105.36 128.538 97.0858L128.907 97.3895C125.439 115.99 130.477 130.66 135.362 139.2C140.651 148.459 146.842 153.385 146.905 153.433L146.565 153.86Z" fill="#444053"/>
</g>
<path d="M84.6867 130.669C84.0815 130.915 83.4527 131.1 82.81 131.222C81.6867 131.429 80.5467 131.535 79.404 131.539C79.4375 131.836 79.4632 132.113 79.489 132.364C79.5508 133.055 79.5868 133.53 79.5868 133.53L78.3794 133.448L68.4216 132.778L62.5983 131.928C62.8794 132.3 63.1847 132.653 63.5122 132.986C63.8515 133.34 64.2439 133.641 64.6759 133.877C64.6759 133.877 69.9302 138.074 70.839 138.112C70.9677 138.112 71.0089 138.239 70.9883 138.439C73.1997 138.439 80.0759 138.756 78.1683 142.531C77.8527 143.204 77.2962 143.738 76.6056 144.031C74.3994 144.953 71.0707 143.295 69.3561 142.277C69.1888 142.6 69.0292 142.899 68.8876 143.156C68.5967 143.696 68.3933 144.054 68.3933 144.054L68.2208 143.932L59.3855 137.728L57.4495 136.109C56.8808 136.083 56.3177 135.987 55.7736 135.822L55.5161 135.741C55.505 135.763 55.4955 135.786 55.4878 135.809C55.4173 136.007 55.3648 136.211 55.3308 136.418C55.3308 136.449 55.3308 136.479 55.3308 136.51C55.2947 136.746 55.2706 136.984 55.2587 137.223C55.2587 137.386 55.2458 137.558 55.2458 137.731C55.2304 141.188 56.636 146.745 56.636 146.745C56.636 146.745 60.2788 155.907 58.9864 158.021C58.9198 158.129 58.8323 158.222 58.729 158.296C58.2733 158.62 58.0004 159.199 57.8588 159.887C57.3774 162.131 58.2218 165.556 58.2218 165.556C58.2218 165.556 58.1446 165.683 58.0133 165.881C57.7292 166.328 57.409 166.753 57.0556 167.15C57.0016 167.211 56.9449 167.274 56.8857 167.333C56.7263 167.498 56.5542 167.651 56.3708 167.79C56.4043 167.889 56.4404 167.99 56.4764 168.099C56.5124 168.208 56.5588 168.379 56.5948 168.531C56.8815 169.778 56.7691 171.083 56.273 172.265C55.9356 173.127 55.7174 174.029 55.6243 174.948C55.4569 176.631 55.501 178.328 55.7556 180C55.7169 179.98 55.6835 179.959 55.6449 179.942C52.7976 178.474 49.9906 176.942 47.224 175.344C46.4131 174.882 45.6073 174.41 44.8066 173.935C43.8215 173.35 42.8406 172.758 41.8641 172.158C40.5769 171.366 39.2897 170.554 38.0025 169.724L37.4001 169.328L37.1684 169.173C36.8414 168.957 36.5196 168.742 36.1953 168.523C34.8643 166.827 33.6482 165.046 32.555 163.192C32.3723 162.87 32.2075 162.563 32.0711 162.281V162.266L31.9835 162.08L31.6205 161.954C30.9383 161.717 30.5058 161.552 30.5058 161.552C30.8207 160.42 30.9715 159.249 30.9538 158.075C30.9332 155.79 30.2921 152.744 27.6508 150.302C23.748 146.664 23.21 143.072 23.1533 141.693C23.1533 141.597 23.1533 141.511 23.1533 141.44C23.152 141.323 23.1572 141.207 23.1688 141.092L23.4674 140.81C22.7105 140.66 22 140.592 22 140.592C22 140.592 24.5898 131.351 28.9509 128.267C31.1134 126.744 32.9129 124.205 34.1846 122.027C36.5046 118.091 39.1098 114.325 41.9799 110.759L42.7651 109.782L42.9942 109.495L43.0432 109.436L43.1049 109.355C42.9985 109.196 42.8904 109.039 42.7806 108.883L42.7085 108.779C42.3661 108.271 42.0726 107.763 42.119 107.157C42.119 107.157 42.119 107.144 42.119 107.139C42.119 107.096 42.119 107.055 42.119 107.009C42.1299 106.908 42.1488 106.808 42.1756 106.71C42.1844 106.726 42.1947 106.741 42.2065 106.756C42.5746 105.7 43.9931 105.232 45.0383 104.649C47.502 103.283 48.5524 100.295 49.0801 97.5153C49.4895 95.3525 49.8293 92.9282 51.5284 91.5396C52.6251 90.646 54.1028 90.3515 55.2124 89.4656C55.8543 88.9062 56.3851 88.2339 56.7776 87.483C57.035 87.0514 57.2564 86.6047 57.4959 86.1731C58.5926 84.2184 60.0342 82.4008 61.9418 81.2306C63.8495 80.0603 66.2694 79.6059 68.3598 80.3928C69.1656 80.6949 69.9045 81.1544 70.6768 81.492C71.1537 81.6838 71.6463 81.835 72.1494 81.9439C73.7223 82.3069 75.3777 82.4008 76.8554 83.0482C79.2573 84.0991 80.8199 86.4244 82.2462 88.6329C82.985 89.7753 84.1461 91.4456 84.8051 93.1262C84.8051 93.0652 84.8051 93.0094 84.8051 92.951C85.1229 93.691 85.2975 94.4831 85.32 95.2865C85.3329 95.6284 85.2956 95.9704 85.2093 96.3019C84.9725 97.165 84.3675 97.7108 83.608 98.1118L83.487 98.1702C83.3246 98.2525 83.1579 98.3262 82.9876 98.3911C82.9618 98.5307 82.9335 98.6729 82.9026 98.8099C82.8898 98.8683 82.8743 98.9293 82.8589 98.9876C82.8254 99.1298 82.7868 99.2694 82.7456 99.409C82.1953 101.223 81.122 102.841 79.6563 104.065C78.6413 104.921 77.4682 105.576 76.2015 105.994C76.1114 106.024 76.0161 106.047 75.926 106.075C75.8494 106.288 75.74 106.487 75.6016 106.667C75.5014 106.793 75.3835 106.905 75.2515 106.999C75.1693 107.054 75.0833 107.103 74.9941 107.147C74.9722 107.16 74.9489 107.171 74.9246 107.18C73.9978 107.591 72.7286 107.268 71.8353 106.654C71.7889 106.624 71.7452 106.588 71.7014 106.555C71.7014 106.7 71.6782 106.852 71.6525 107.009C71.6268 107.167 71.6087 107.263 71.5804 107.395C71.5521 107.527 71.5418 107.591 71.5238 107.685C71.5058 107.779 71.4929 107.842 71.4774 107.916L71.4465 108.045C70.9366 110.495 69.9637 112.829 68.5787 114.925C68.3778 115.225 68.1604 115.514 67.9273 115.79L67.2889 116.75V116.879C67.4099 119.088 66.6736 121.147 65.6335 122.918C65.2853 123.506 64.9028 124.073 64.4879 124.617L64.6321 124.7C66.0738 125.51 68.9159 126.95 70.7128 126.828C70.7128 126.828 77.5093 127.693 78.297 127.259C78.4052 127.198 78.5107 127.282 78.6085 127.462C79.7078 126.802 82.2359 125.404 84.231 125.218C85.6264 125.086 86.7617 125.546 86.9728 127.249C87.1839 128.953 86.1438 130.052 84.6867 130.669Z" fill="url(#paint1_linear)"/>
<path d="M49.205 165.115C50.1098 166.616 50.2502 168.44 49.5854 170.055C48.9435 171.619 48.8722 173.569 48.9382 175C48.1061 174.532 47.2793 174.055 46.4577 173.574C45.4469 172.982 44.4404 172.382 43.4384 171.776C42.1176 170.975 40.7967 170.153 39.4759 169.313L38.8578 168.912L38.6201 168.755C38.5993 168.718 38.5735 168.683 38.5435 168.652C38.1895 168.288 36.1264 165.411 34.9007 163.227C34.6788 162.826 34.4859 162.456 34.3327 162.117V162.099C34.0686 161.529 33.9444 161.072 34.0236 160.864C34.2177 160.202 34.6802 159.646 35.3048 159.322C36.8264 158.552 39.2673 159.263 41.6817 160.396C43.759 161.417 45.75 162.597 47.6359 163.923L47.8499 164.075L47.871 164.09C48.6635 164.637 49.1231 165 49.1231 165C49.1231 165 49.1575 165.041 49.205 165.115Z" fill="#FBBEBE"/>
<path opacity="0.05" d="M48.253 165.111C49.1035 166.612 49.2352 168.438 48.6098 170.054C48.0076 171.618 47.9407 173.567 48.0026 175C47.2228 174.529 46.4471 174.053 45.6755 173.572C44.7254 172.98 43.7812 172.381 42.8427 171.775C41.6035 170.971 40.3643 170.149 39.1375 169.309L38.5576 168.909L38.3345 168.752C38.3144 168.715 38.2903 168.681 38.2627 168.649C37.9306 168.287 35.995 165.411 34.845 163.226C34.6368 162.825 34.4559 162.455 34.3122 162.116V162.101C34.0643 161.528 33.9478 161.074 34.0222 160.863C34.205 160.202 34.6387 159.646 35.2242 159.322C36.6517 158.552 38.9417 159.263 41.207 160.396C43.1559 161.416 45.0239 162.595 46.7932 163.922L46.994 164.073L47.0138 164.089C47.7573 164.635 48.1885 164.998 48.1885 164.998C48.1885 164.998 48.2084 165.036 48.253 165.111Z" fill="black"/>
<path d="M57.8976 171.714C57.8209 172.135 57.6964 172.547 57.5261 172.944C57.2343 173.658 57.0336 174.401 56.928 175.159C56.7206 176.767 56.7276 178.393 56.9491 180C54.0352 178.578 51.1626 177.092 48.3313 175.543C47.5014 175.095 46.6767 174.637 45.8573 174.177C45.6729 172.868 45.4095 171.716 45.1117 171.433C44.7218 171.049 42.4956 168.076 41.1124 165.731C40.9332 165.435 40.7778 165.15 40.6329 164.879V164.867C40.5776 164.759 40.5249 164.655 40.4748 164.552C40.1191 163.838 39.9294 163.282 40.0243 163.014C40.2092 162.43 40.5897 161.918 41.1098 161.552C43.4467 159.957 48.3049 162.115 52.0355 164.259L52.1278 164.311C52.8338 164.722 53.503 165.128 54.1037 165.507L54.4541 165.728C55.998 166.713 57.0229 167.478 57.0229 167.478C57.2775 167.845 57.482 168.24 57.6315 168.654C57.7195 168.888 57.7925 169.126 57.8502 169.368C58.0325 170.139 58.0486 170.937 57.8976 171.714Z" fill="#FBBEBE"/>
<path opacity="0.1" d="M34.914 163.438C36.8294 164.122 39.6563 165.029 41.1949 165.053C41.3542 165.058 41.5137 165.05 41.6717 165.029C42.7545 164.878 46.0925 165.12 49.1565 165.403C50.3842 165.513 51.5672 165.629 52.5446 165.731L55 166V165.031C54.3176 164.552 53.5246 164.02 52.6763 163.481C48.9326 161.119 44.0138 158.705 41.6585 160.462C38.3416 158.826 34.9746 158.04 34.0183 160.952C33.9076 161.331 34.3107 162.295 34.914 163.438Z" fill="black"/>
<path d="M25.0049 141.066C25.0553 142.503 25.5638 146.232 29.2063 149.999C33.8533 154.798 31.8722 161.697 31.8722 161.697C31.8722 161.697 37.4103 164 39.7992 164.062C39.9514 164.067 40.1038 164.059 40.2548 164.038C41.6872 163.827 47.3813 164.384 50.6539 164.733L53 165V144.601L27.3385 138L25.015 140.453C24.9993 140.657 24.9959 140.861 25.0049 141.066Z" fill="#5C5C8E"/>
<g opacity="0.1">
<path d="M53.3229 166.606L53.7515 166.651V166.868L51.3597 166.603C48.9652 166.354 45.3056 165.999 42.8906 165.896C44.5613 165.743 50.0919 166.269 53.3229 166.606Z" fill="black"/>
<path d="M25.2206 142.496L27.5893 140.061L29.1702 140.455L27.1967 142.496C27.1841 142.699 27.1841 142.902 27.1967 143.105C27.248 144.532 27.7664 148.232 31.48 151.975C36.2175 156.74 34.1977 163.588 34.1977 163.588C34.1977 163.588 38.8685 165.481 41.5453 165.87C41.288 165.869 41.0309 165.884 40.7754 165.915C40.6214 165.936 40.4661 165.943 40.3108 165.939C37.8754 165.875 32.2293 163.588 32.2293 163.588C32.2293 163.588 34.2491 156.74 29.5116 151.975C25.78 148.232 25.2616 144.532 25.2103 143.113C25.2008 142.907 25.2042 142.701 25.2206 142.496Z" fill="black"/>
</g>
<path d="M78 129.47C78 129.47 86.3618 124.277 86.972 128.951C87.5823 133.624 78 132.968 78 132.968V129.47Z" fill="#FBBEBE"/>
<path d="M64.8128 125C64.8128 125 69.1214 127.715 71.507 127.555C71.507 127.555 78.0202 128.389 78.7775 127.972C79.5348 127.555 80 134 80 134L69.2971 133.277L62.4324 132.277C62.4324 132.277 59 130.278 59 128.555C59 126.832 64.8128 125 64.8128 125Z" fill="#F7CDDD"/>
<path d="M64.8128 125C64.8128 125 69.1214 127.715 71.507 127.555C71.507 127.555 78.0202 128.389 78.7775 127.972C79.5348 127.555 80 134 80 134L69.2971 133.277L62.4324 132.277C62.4324 132.277 59 130.278 59 128.555C59 126.832 64.8128 125 64.8128 125Z" fill="#9E7E44"/>
<path d="M70.0275 138.009C70.0275 138.009 79.8864 137.602 77.6774 142.188C75.4684 146.775 68 141.206 68 141.206L70.0275 138.009Z" fill="#FBBEBE"/>
<path d="M60 130C60 130 68.0184 124.212 66.8914 117.163C65.7644 110.114 60 122.551 60 122.551L60 130Z" fill="#5C5C8E"/>
<path d="M63 97.5008C63.0014 99.962 63.9593 102.326 65.6717 104.096C66.5952 105.048 67.7073 105.798 68.9371 106.298C69.3336 106.464 69.7421 106.599 70.1591 106.703C70.6021 106.818 71.0526 106.9 71.5073 106.951C71.8338 106.983 72.1629 107 72.4968 107C73.5598 106.998 74.6147 106.815 75.6162 106.459C80.1869 104.872 82.8339 100.106 81.763 95.3916C80.6921 90.6768 76.2456 87.5196 71.4373 88.0601C66.6291 88.6006 62.9957 92.666 63 97.5008Z" fill="#FBBEBE"/>
<path opacity="0.1" d="M25.005 142.896C25.8919 143.055 26.9876 143.347 26.9876 143.795C26.9876 144.551 39.3628 148.633 39.3628 148.633C39.3628 148.633 38.8987 149.689 40.1363 151.504C41.3738 153.32 51.4363 163.747 51.4363 163.747L51.4028 164.054L51.2739 165.255L50.6603 171C50.6603 171 54.5275 169.64 55.7651 169.791C56.1647 169.839 56.6004 169.59 57 169.227C56.8529 168.541 56.5795 167.886 56.193 167.295C56.193 167.295 55.1901 166.525 53.6768 165.505V146.236L27.395 140L25.0153 142.317C24.9993 142.51 24.9958 142.703 25.005 142.896Z" fill="black"/>
<path d="M25 142.188C25 142.188 28.0234 142.494 28.0234 143.267C28.0234 144.039 40.1168 148.199 40.1168 148.199C40.1168 148.199 39.6633 149.274 40.8727 151.126C42.082 152.977 51.9155 163.606 51.9155 163.606L51.1596 171C51.1596 171 54.9388 169.614 56.1482 169.768C56.6899 169.837 57.287 169.326 57.7808 168.741C58.1904 168.247 58.5556 167.717 58.8717 167.157C58.8717 167.157 57.5087 161.298 59.3252 159.911C61.1418 158.525 57.3601 148.358 57.3601 148.358C57.3601 148.358 55.6493 141.128 56.1532 138.027C56.1853 137.82 56.2342 137.616 56.2994 137.418C56.2994 137.395 56.312 137.372 56.322 137.349C57.4004 134.386 69 109.531 69 109.531C68.9925 108.826 68.9437 108.122 68.8539 107.423C68.8312 107.228 68.801 107.025 68.7632 106.822C68.7046 106.453 68.6264 106.087 68.5289 105.726C68.4634 105.49 68.3928 105.264 68.3097 105.048C67.9519 104.108 67.4027 103.387 66.5813 103.369C66.5813 103.369 65.6743 102.342 63.5579 102.07C61.9959 101.862 59.7787 102.07 56.7554 103.369C49.6505 106.45 47.9876 106.604 47.9876 106.604L44.415 111.372L43.6793 112.352C40.9905 115.926 38.5563 119.692 36.3956 123.621C35.2064 125.798 33.5234 128.337 31.5053 129.862C27.4212 132.946 25 142.188 25 142.188Z" fill="#9E7E44"/>
<path opacity="0.1" d="M52 124C52 124 41.1905 126.554 37 133L52 124Z" fill="black"/>
<path opacity="0.1" d="M48 134C48 134 46.7033 147.904 47.0631 148.951C47.4228 149.998 48 134 48 134Z" fill="black"/>
<path opacity="0.1" d="M48.2425 142.292C48.9812 143.275 51.9737 150.859 51.9737 150.859L51.1086 163.593L50.3497 171C50.3497 171 54.1441 169.611 55.3608 169.765C55.9022 169.835 56.5042 169.326 57 168.737C56.2108 164.398 54.5261 155.321 54.2174 155.147C53.8152 154.915 51.7663 147.621 51.6575 145.594C51.5487 143.568 48.6953 139 48.6953 139C48.6953 139 47.5014 141.31 48.2425 142.292Z" fill="black"/>
<path opacity="0.1" d="M51.0508 128.984C51.2441 129.551 51.5512 132.844 51.5512 132.844C51.7682 135.748 54.0715 136.697 55.501 137C55.5347 136.797 55.5861 136.597 55.6546 136.402C56.6076 133.831 69 108.995 69 108.995C68.9872 107.734 68.821 106.48 68.5049 105.256C65.8073 104.499 61.5344 105.664 61.5344 105.664C60.3007 105.51 56.2741 113.143 56.2741 113.143C56.2741 113.143 53.5896 118.989 53.2958 119.784C53.0019 120.579 53.2958 121.889 53.1767 122.343C53.0575 122.797 51.8027 123.19 51.6253 123.819C51.4479 124.447 51.5644 125.688 51.4453 125.916C51.3261 126.143 50.8443 128.416 51.0508 128.984Z" fill="black"/>
<path d="M53.0473 129.61C53.2367 130.192 53.5311 133.571 53.5311 133.571C53.7051 136.052 55.2819 137.142 56.6027 137.618C57.1958 137.833 57.8167 137.958 58.4456 137.991L60.2988 139.617L68.8506 146C68.8506 146 72.0399 140.045 71.1748 140.006C70.3096 139.967 65.3208 135.733 65.3208 135.733C63.7851 134.91 62.2646 132.155 61.5556 130.741C61.5975 130.571 61.6282 130.398 61.6477 130.223C61.9575 127.585 68.4078 117.484 68.4078 117.484C68.4078 117.484 70.9009 114.514 71.8736 109.012C71.9017 108.887 71.9196 108.753 71.9427 108.626C71.9702 108.454 71.9873 108.281 71.9939 108.108C72.109 105.992 70.5886 105.223 68.7815 105.04C67.8426 104.966 66.8985 104.995 65.9659 105.128C65.0329 105.246 64.1092 105.429 63.2015 105.677C62.4336 105.576 60.5241 108.825 59.2749 111.127C58.6018 112.375 58.118 113.351 58.118 113.351C58.118 113.351 55.5097 119.353 55.2179 120.169C54.9261 120.985 55.2179 122.326 55.1027 122.795C54.9875 123.263 53.7743 123.665 53.6053 124.309C53.4364 124.954 53.5439 126.228 53.4287 126.461C53.3135 126.694 52.8528 129.027 53.0473 129.61Z" fill="#9E7E44"/>
<path opacity="0.1" d="M43 114.615C44.6346 116.286 47.3005 116.291 49.4302 115.443C51.5598 114.595 53.3671 113.047 55.3447 111.855C56.6338 111.086 57.9848 110.438 59.2481 109.636C59.4338 109.515 59.6142 109.395 59.7895 109.272C61.2488 108.247 62.5096 106.932 64.0179 105.992C65.0288 105.327 66.2047 104.953 67.416 104.91C67.9749 104.905 68.5283 105.02 69.0377 105.248C69.1267 105.287 69.2128 105.331 69.2955 105.382C69.7913 105.667 70.2502 106.011 70.662 106.407C71.0874 106.789 71.4974 107.196 71.9511 107.55C71.9795 107.427 71.9976 107.293 72.0208 107.168C72.0485 106.998 72.0658 106.827 72.0723 106.655C72.4126 106.689 72.7556 106.707 73.1036 106.707C74.214 106.701 75.3153 106.507 76.3599 106.133C76.3599 106.092 76.3754 106.048 76.3832 106.007C76.7544 104.07 77.4145 102.017 78.9923 100.928C79.9025 100.295 81.3566 100.038 82.6148 99.5566C83.8138 95.4057 82.15 90.9627 78.5121 88.6014C74.8743 86.24 70.1127 86.5121 66.7711 89.2723C63.4295 92.0325 62.2889 96.6357 63.9586 100.623C62.3601 100.415 60.0912 100.623 56.9973 101.919C49.7266 104.995 48.025 105.148 48.025 105.148L44.3897 109.915C44.7841 110.515 45.2302 111.107 45.2714 111.806C45.3539 113.103 44.0958 113.998 43 114.615Z" fill="black"/>
<path d="M78.0747 100.878C76.545 101.974 75.8944 104.032 75.5327 105.973C75.4197 106.58 75.3117 107.221 74.95 107.702C74.1387 108.779 72.506 108.473 71.4461 107.702C70.3861 106.93 69.5522 105.757 68.3691 105.209C66.7967 104.484 64.9506 105.014 63.4812 105.958C62.0118 106.902 60.781 108.221 59.3593 109.248C57.9854 110.24 56.4532 110.948 55.0214 111.84C53.0974 113.041 51.3392 114.592 49.2619 115.441C47.1846 116.29 44.59 116.29 43 114.613C44.0675 114.006 45.2933 113.108 45.2104 111.809C45.1275 110.51 43.648 109.536 43.7485 108.208C43.849 106.881 45.3787 106.351 46.4763 105.698C48.7746 104.33 49.7417 101.326 50.244 98.548C50.6258 96.3797 50.9398 93.9543 52.5247 92.5629C53.5445 91.6652 54.9285 91.372 55.9558 90.4847C56.9304 89.641 57.4629 88.3627 58.0858 87.1873C59.1081 85.2249 60.4494 83.4039 62.2253 82.231C64.0011 81.0582 66.2592 80.6055 68.2084 81.3951C68.9619 81.696 69.6351 82.1667 70.3735 82.4934C72.2071 83.3061 74.3095 83.1981 76.128 84.052C78.366 85.1066 79.8204 87.4368 81.1516 89.6487C82.2895 91.5392 84.5149 94.8854 83.892 97.3288C83.2565 99.8211 79.735 99.6874 78.0747 100.878Z" fill="#7C5C5C"/>
<g opacity="0.1">
<path d="M43.7898 108.231C43.7979 108.13 43.8155 108.029 43.8423 107.932C44.2448 108.581 44.7473 109.211 44.7948 109.978C44.8063 110.154 44.792 110.331 44.7523 110.503C44.3048 109.766 43.7273 109.078 43.7898 108.231Z" fill="black"/>
<path d="M48.8277 113.588C50.8952 112.738 52.6452 111.196 54.5602 110.006C55.9852 109.119 57.5102 108.415 58.8777 107.428C60.2927 106.404 61.5177 105.092 62.9802 104.156C64.4427 103.22 66.2802 102.69 67.8452 103.411C69.0227 103.956 69.8452 105.11 70.9077 105.89C71.9702 106.67 73.5877 106.975 74.3952 105.903C74.7577 105.425 74.8627 104.79 74.9752 104.186C75.3352 102.253 75.9752 100.206 77.5052 99.1162C79.1602 97.9344 82.6627 98.0674 83.2977 95.5732C83.4034 95.1307 83.4314 94.6725 83.3802 94.22C83.7877 95.3276 83.9952 96.443 83.7502 97.4151C83.1127 99.9093 79.6102 99.7762 77.9552 100.958C76.4352 102.048 75.7852 104.094 75.4252 106.028C75.3127 106.632 75.2077 107.269 74.8477 107.745C74.0377 108.817 72.4127 108.512 71.3477 107.732C70.2827 106.952 69.4627 105.798 68.2852 105.253C66.7202 104.532 64.8827 105.061 63.4202 105.998C61.9577 106.934 60.7327 108.249 59.3177 109.27C57.9502 110.26 56.4252 110.96 55.0002 111.848C53.0852 113.045 51.3352 114.585 49.2677 115.43C47.2002 116.274 44.6177 116.271 43.0352 114.603C43.4441 114.377 43.8323 114.113 44.1952 113.815C45.6402 114.355 47.3652 114.186 48.8277 113.588Z" fill="black"/>
</g>
<path d="M200.719 95.6355L192.411 87.3207C191.589 86.4835 190.464 86.0081 189.288 86.0001C188.111 85.9921 186.981 86.4523 186.147 87.2783L133.981 138.761L111.924 116.635C110.219 114.914 107.434 114.894 105.704 116.591L97.3076 124.86C95.5808 126.576 95.5619 129.355 97.2651 131.095L130.762 164.697C132.486 166.417 135.278 166.437 137.026 164.742L200.672 101.869C201.513 101.051 201.991 99.9325 202 98.762C202.009 97.5915 201.547 96.466 200.719 95.6355Z" fill="#1E1E1F"/>
<g opacity="0.5">
<path d="M197.705 172.262C197.705 172.262 190.323 171.785 191.188 177.341C191.097 177.918 191.361 178.494 191.844 178.767C191.844 178.767 191.844 178.354 192.6 178.494C192.865 178.543 193.135 178.557 193.403 178.536C193.765 178.511 194.11 178.359 194.383 178.103C194.383 178.103 196.457 177.183 197.265 173.537C197.265 173.537 197.862 172.744 197.838 172.539L196.592 173.112C196.592 173.112 197.019 174.077 196.684 174.878C196.684 174.878 196.643 173.146 196.404 173.187C196.355 173.187 195.757 173.522 195.757 173.522C195.757 173.522 196.481 175.202 195.935 176.426C195.935 176.426 196.145 174.351 195.528 173.644L194.651 174.193C194.651 174.193 195.506 175.93 194.927 177.346C194.927 177.346 195.076 175.173 194.465 174.328L193.671 174.992C193.671 174.992 194.475 176.703 193.985 177.88C193.985 177.88 193.922 175.35 193.502 175.158C193.502 175.158 192.807 175.816 192.701 176.088C192.701 176.088 193.251 177.33 192.911 177.986C192.911 177.986 192.701 176.298 192.53 176.293C192.53 176.293 191.837 177.408 191.764 178.173C191.798 177.466 192.003 176.78 192.361 176.184C191.961 176.267 191.593 176.472 191.301 176.776C191.301 176.776 191.407 175.998 192.532 175.915C192.532 175.915 193.104 175.07 193.256 175.018C193.256 175.018 192.139 174.917 191.46 175.241C191.46 175.241 192.057 174.494 193.459 174.834L194.243 174.147C194.243 174.147 192.773 173.929 192.148 174.167C192.148 174.167 192.872 173.509 194.456 173.988L195.31 173.441C195.31 173.441 194.055 173.151 193.307 173.255C193.307 173.255 194.096 172.798 195.561 173.294L196.172 172.998C196.172 172.998 195.252 172.804 194.982 172.775C194.712 172.747 194.7 172.664 194.7 172.664C195.282 172.56 195.879 172.632 196.425 172.871C196.425 172.871 197.727 172.35 197.705 172.262Z" fill="#9E7E44"/>
</g>
<g opacity="0.5">
<path d="M185.181 134.09C185.181 134.09 182.075 140.881 186.223 142.558C186.586 142.905 187.081 142.913 187.451 142.578C187.451 142.578 187.173 142.38 187.547 141.737C187.68 141.507 187.791 141.258 187.879 140.994C187.996 140.638 188.02 140.243 187.949 139.868C187.949 139.868 188.095 137.484 185.895 135.077C185.895 135.077 185.573 134.152 185.425 134.082L185.349 135.522C185.349 135.522 186.171 135.553 186.597 136.232C186.597 136.232 185.397 135.491 185.329 135.736C185.317 135.787 185.315 136.507 185.315 136.507C185.315 136.507 186.747 136.569 187.379 137.644C187.379 137.644 186.035 136.512 185.313 136.78L185.361 137.86C185.361 137.86 186.877 137.829 187.633 139.017C187.633 139.017 186.195 137.896 185.385 138.094L185.543 139.148C185.543 139.148 187.023 139.148 187.645 140.148C187.645 140.148 185.883 139.071 185.593 139.377C185.593 139.377 185.793 140.333 185.929 140.557C185.929 140.557 186.991 140.593 187.313 141.213C187.313 141.213 186.075 140.652 186.005 140.812C186.005 140.812 186.513 141.971 187.005 142.385C186.532 142.034 186.138 141.53 185.863 140.922C185.764 141.341 185.764 141.789 185.863 142.208C185.863 142.208 185.361 141.75 185.737 140.665C185.737 140.665 185.369 139.742 185.391 139.572C185.391 139.572 184.903 140.588 184.869 141.372C184.869 141.372 184.581 140.47 185.341 139.289L185.165 138.235C185.165 138.235 184.463 139.536 184.391 140.236C184.391 140.236 184.209 139.256 185.137 137.965L185.081 136.908C185.081 136.908 184.409 137.968 184.201 138.724C184.201 138.724 184.183 137.77 185.073 136.602L185.101 135.89C185.101 135.89 184.621 136.677 184.501 136.919C184.381 137.16 184.319 137.137 184.319 137.137C184.466 136.539 184.74 136.004 185.109 135.594C185.109 135.594 185.249 134.108 185.181 134.09Z" fill="#9E7E44"/>
</g>
<g opacity="0.5">
<path d="M160.157 81.1646C160.157 81.1646 157.053 87.9583 161.199 89.6323C161.561 89.9807 162.057 89.989 162.427 89.6529C162.427 89.6529 162.149 89.4549 162.525 88.812C162.657 88.5817 162.768 88.3323 162.855 88.0689C162.973 87.7131 162.997 87.3178 162.925 86.9426C162.925 86.9426 163.073 84.5589 160.871 82.152C160.871 82.152 160.549 81.2289 160.401 81.1594L160.325 82.5969C160.325 82.5969 161.149 82.6277 161.573 83.3066C161.573 83.3066 160.373 82.566 160.307 82.8103C160.293 82.8617 160.293 83.5817 160.293 83.5817C160.293 83.5817 161.723 83.6434 162.355 84.7183C162.355 84.7183 161.011 83.5869 160.289 83.8543L160.339 84.9343C160.339 84.9343 161.853 84.9034 162.609 86.0914C162.609 86.0914 161.171 84.9729 160.361 85.1683L160.519 86.2226C160.519 86.2226 161.999 86.2226 162.623 87.2254C162.623 87.2254 160.859 86.1454 160.569 86.454C160.569 86.454 160.769 87.408 160.907 87.6317C160.907 87.6317 161.967 87.6677 162.289 88.2874C162.289 88.2874 161.051 87.7269 160.983 87.8863C160.983 87.8863 161.489 89.0486 161.983 89.46C161.509 89.1098 161.115 88.6063 160.839 87.9994C160.743 88.4139 160.743 88.8552 160.839 89.2697C160.839 89.2697 160.337 88.812 160.713 87.714C160.713 87.714 160.345 86.7909 160.367 86.6211C160.367 86.6211 159.879 87.6369 159.845 88.4211C159.845 88.4211 159.557 87.5186 160.319 86.3383L160.141 85.284C160.141 85.284 159.439 86.5851 159.369 87.2846C159.369 87.2846 159.185 86.3049 160.113 85.014L160.057 83.9571C160.057 83.9571 159.385 85.0166 159.177 85.7726C159.177 85.7726 159.159 84.8186 160.049 83.6537L160.077 82.9389C160.077 82.9389 159.597 83.7257 159.477 83.9674C159.357 84.2091 159.295 84.186 159.295 84.186C159.445 83.5863 159.722 83.0522 160.095 82.6431C160.095 82.6431 160.225 81.1954 160.157 81.1646Z" fill="#9E7E44"/>
</g>
<g opacity="0.5">
<path d="M74.7187 29.1392C74.7187 29.1392 59.6405 39.7657 69.6213 48.1834C69.6213 48.1834 70.7509 50.1771 73.0283 49.6736C73.0283 49.6736 72.4387 48.9298 74.0952 48.0189C74.6824 47.6917 75.2271 47.2976 75.7178 46.8449C76.3815 46.2387 76.8238 45.4394 76.9778 44.5678C76.9778 44.5678 79.6439 39.7252 75.7805 32.069C75.7805 32.069 75.757 29.7439 75.4048 29.4225L73.8396 32.3625C73.8396 32.3625 76.1065 33.3974 76.6518 35.3278C76.6518 35.3278 73.9883 32.3448 73.5839 32.7977C73.5031 32.8863 72.8222 34.3917 72.8222 34.3917C72.8222 34.3917 76.7587 36.2083 77.5048 39.2141C77.5048 39.2141 74.8231 35.2469 72.5483 34.9584L71.6639 37.2887C71.6639 37.2887 75.9187 39.0117 76.9048 42.4021C76.9048 42.4021 73.9518 38.3539 71.5048 37.8099L70.9518 40.216C70.9518 40.216 75.0683 41.9745 75.8691 44.8006C75.8691 44.8006 71.9561 40.4539 70.8631 40.7752C70.8631 40.7752 70.4926 43.0118 70.6883 43.6519C70.6883 43.6519 73.6152 44.9802 73.9283 46.6628C73.9283 46.6628 71.0039 44.0264 70.6596 44.2794C70.6596 44.2794 70.9778 47.3155 71.9796 48.7754C71.9796 48.7754 70.3387 46.7286 70.1718 44.3528C70.1718 44.3528 69.0526 45.6178 68.99 47.0372C68.99 47.0372 68.0196 45.4812 70.1039 43.614C70.1039 43.614 69.9552 41.2357 70.177 40.9068C70.177 40.9068 67.85 42.4678 67.0126 44.0871C67.0126 44.0871 67.0622 41.8505 70.2996 40.2641L70.8005 37.8377C70.8005 37.8377 67.6152 39.7429 66.757 41.1269C66.757 41.1269 67.1718 38.8498 70.9778 37.2254L71.8231 34.9357C71.8231 34.9357 68.9535 36.3753 67.6491 37.7188C67.6491 37.7188 68.5022 35.6947 72.0839 34.2854L72.8326 32.818C72.8326 32.818 70.7457 33.9059 70.1848 34.2702C69.6239 34.6346 69.4674 34.5233 69.4674 34.5233C70.4446 33.435 71.7145 32.6317 73.1352 32.2031C73.1352 32.2031 74.8935 29.2581 74.7187 29.1392Z" fill="#9E7E44"/>
</g>
<g opacity="0.5">
<path d="M59.8173 64.4927C59.8173 64.4927 41.1248 55.9181 38.6748 71.379C38.6748 71.379 37.3973 73.7899 39.1748 75.7808C39.1748 75.7808 39.5573 74.7118 41.3648 75.8163C42.0095 76.2053 42.6943 76.5092 43.4048 76.7218C44.3643 77.0105 45.3838 76.9512 46.3098 76.5527C46.3098 76.5527 52.4548 76.1899 57.6273 67.4163C57.6273 67.4163 59.8423 65.9218 59.9548 65.3599L56.2473 65.6327C56.2473 65.6327 56.5323 68.5918 54.9973 70.3672C54.9973 70.3672 56.3598 65.7745 55.7048 65.6463C55.5723 65.619 53.7473 65.8808 53.7473 65.8808C53.7473 65.8808 54.2198 71.0272 51.7473 73.689C51.7473 73.689 54.0423 68.4554 53.0423 65.9736L50.3098 66.549C50.3098 66.549 51.0598 71.9627 48.3548 75.1099C48.3548 75.1099 50.5773 69.5463 49.7198 66.7208L47.0998 67.6808C47.0998 67.6808 47.7323 72.9745 45.4698 75.5899C45.4698 75.5899 47.4448 68.8781 46.5148 67.9536C46.5148 67.9536 44.1598 68.9954 43.6548 69.5899C43.6548 69.5899 44.0298 73.4081 42.5898 74.7854C42.5898 74.7854 43.4748 70.149 43.0373 69.9581C43.0373 69.9581 40.2998 72.2054 39.4648 74.1445C39.4648 74.1445 40.5073 71.1827 42.6923 69.5081C42.6923 69.5081 40.8573 69.1672 39.4423 70.0072C39.4423 70.0072 40.3898 68.0408 43.3548 68.9736C43.3548 68.9736 45.5523 67.3127 45.9923 67.3372C45.9923 67.3372 43.1873 65.9736 41.1598 66.1427C41.1598 66.1427 43.3323 64.779 46.6773 67.0563L49.2848 66.0254C49.2848 66.0254 45.6623 63.999 43.8448 64.0072C43.8448 64.0072 46.2598 62.9872 49.9648 65.8236L52.6398 65.2208C52.6398 65.2208 49.6398 63.2163 47.6148 62.7527C47.6148 62.7527 50.0423 62.3327 53.4098 65.0845L55.2398 64.9181C55.2398 64.9181 53.0248 63.4945 52.3548 63.1481C51.6848 62.8018 51.7148 62.5781 51.7148 62.5781C53.3094 62.8802 54.7957 63.6601 56.0073 64.8308C56.0073 64.8308 59.7998 64.7463 59.8173 64.4927Z" fill="#9E7E44"/>
</g>
<g opacity="0.5">
<path d="M49.8724 44.8694C49.8724 44.8694 43.0657 28.5307 33.2807 36.0241C33.2807 36.0241 31.2087 36.6481 31.2267 38.8774C31.2267 38.8774 32.0329 38.488 32.5413 40.2294C32.7308 40.8462 32.9893 41.4378 33.3115 41.9921C33.7417 42.7435 34.3961 43.3287 35.1756 43.6587C35.1756 43.6587 39.1194 47.184 46.9864 45.2294C46.9864 45.2294 49.1406 45.7067 49.5103 45.4507L47.1045 43.352C47.1045 43.352 45.6924 45.2454 43.7975 45.3361C43.7975 45.3361 47.0917 43.4961 46.7605 43.0241C46.6937 42.9281 45.4407 41.9734 45.4407 41.9734C45.4407 41.9734 42.9682 45.248 40.0488 45.2987C40.0488 45.2987 44.2571 43.6507 44.976 41.6054L42.999 40.2721C42.999 40.2721 40.5161 43.8801 37.1809 44.0694C37.1809 44.0694 41.5201 42.1894 42.5137 40.0241L40.4006 39.0027C40.4006 39.0027 37.946 42.4694 35.1705 42.6C35.1705 42.6 39.9744 39.9014 39.8999 38.8001C39.8999 38.8001 37.9049 37.9734 37.2733 38.0214C37.2733 38.0214 35.458 40.4614 33.8379 40.3921C33.8379 40.3921 36.8651 38.2347 36.6982 37.8587C36.6982 37.8587 33.8225 37.5014 32.2742 38.1254C32.2742 38.1254 34.4978 37.0374 36.729 37.3947C36.729 37.3947 35.7918 36.0801 34.4824 35.7147C34.4824 35.7147 36.1179 35.1467 37.4248 37.4881C37.4248 37.4881 39.656 37.8614 39.9153 38.1387C39.9153 38.1387 38.9397 35.6347 37.6045 34.5067C37.6045 34.5067 39.6586 35.0401 40.4828 38.3921L42.6267 39.3814C42.6267 39.3814 41.5047 36.0001 40.3903 34.9041C40.3903 34.9041 42.411 35.7787 43.1505 39.6774L45.0992 40.9547C45.0992 40.9547 44.3444 37.9681 43.361 36.4667C43.361 36.4667 45.0659 37.6987 45.6461 41.3441L46.8529 42.3574C46.8529 42.3574 46.2624 40.1867 46.039 39.5787C45.8156 38.9707 45.9568 38.8587 45.9568 38.8587C46.7667 40.0028 47.2547 41.3581 47.3664 42.7734C47.3664 42.7734 49.7286 45.0107 49.8724 44.8694Z" fill="#9E7E44"/>
</g>
<g opacity="0.5">
<path d="M180.77 52.66C180.77 52.66 179.012 45.16 173.458 47.4375C172.824 47.4914 172.301 47.9023 172.164 48.455C172.164 48.455 172.6 48.3625 172.682 49.1425C172.712 49.4193 172.779 49.692 172.881 49.955C173.022 50.3097 173.287 50.6148 173.638 50.825C173.638 50.825 175.235 52.665 179.294 52.55C179.294 52.55 180.309 52.945 180.517 52.87L179.536 51.77C179.536 51.77 178.655 52.44 177.716 52.3075C177.716 52.3075 179.516 51.83 179.403 51.6C179.378 51.5525 178.855 51.0375 178.855 51.0375C178.855 51.0375 177.319 52.195 175.871 51.9525C175.871 51.9525 178.101 51.6375 178.658 50.84L177.814 50.1025C177.814 50.1025 176.256 51.3975 174.597 51.175C174.597 51.175 176.917 50.775 177.617 49.9525L176.678 49.3275C176.678 49.3275 175.131 50.5625 173.75 50.37C173.75 50.37 176.38 49.665 176.45 49.195C176.45 49.195 175.55 48.6675 175.233 48.63C175.233 48.63 174.108 49.495 173.312 49.32C173.312 49.32 174.999 48.685 174.968 48.51C174.968 48.51 173.587 48.1 172.763 48.2225C173.514 48.0778 174.294 48.1097 175.027 48.315C174.82 47.936 174.493 47.6195 174.085 47.405C174.085 47.405 174.946 47.3125 175.362 48.405C175.362 48.405 176.422 48.7625 176.523 48.905C176.523 48.905 176.287 47.7625 175.742 47.155C175.742 47.155 176.703 47.5625 176.779 49.0525L177.738 49.6625C177.738 49.6625 177.516 48.1375 177.075 47.5725C177.075 47.5725 177.983 48.125 177.966 49.8225L178.81 50.5375C178.81 50.5375 178.731 49.21 178.394 48.49C178.394 48.49 179.111 49.1625 179.041 50.74L179.536 51.2775C179.536 51.2775 179.46 50.31 179.409 50.0275C179.358 49.745 179.437 49.715 179.437 49.715C179.725 50.2712 179.833 50.8874 179.749 51.495C179.749 51.495 180.686 52.705 180.77 52.66Z" fill="#9E7E44"/>
</g>
<g opacity="0.5">
<path d="M154.877 193.69C154.877 193.69 153.122 186.19 147.564 188.468C146.93 188.521 146.406 188.932 146.268 189.485C146.268 189.485 146.704 189.393 146.785 190.173C146.815 190.45 146.883 190.722 146.988 190.985C147.127 191.339 147.392 191.644 147.741 191.855C147.741 191.855 149.339 193.695 153.4 193.58C153.4 193.58 154.415 193.975 154.621 193.9L153.642 192.8C153.642 192.8 152.762 193.47 151.819 193.338C151.819 193.338 153.619 192.86 153.507 192.63C153.484 192.583 152.959 192.068 152.959 192.068C152.959 192.068 151.423 193.225 149.974 192.983C149.974 192.983 152.208 192.668 152.762 191.87L151.918 191.12C151.918 191.12 150.377 192.42 148.712 192.19C148.712 192.19 151.032 191.79 151.732 190.968L150.793 190.343C150.793 190.343 149.249 191.578 147.868 191.385C147.868 191.385 150.498 190.683 150.568 190.21C150.568 190.21 149.665 189.683 149.35 189.645C149.35 189.645 148.225 190.51 147.426 190.335C147.426 190.335 149.114 189.7 149.083 189.525C149.083 189.525 147.702 189.115 146.878 189.238C147.63 189.093 148.411 189.125 149.145 189.33C148.937 188.952 148.61 188.635 148.203 188.42C148.203 188.42 149.06 188.328 149.477 189.42C149.477 189.42 150.54 189.778 150.641 189.92C150.641 189.92 150.405 188.778 149.859 188.17C149.859 188.17 150.821 188.578 150.894 190.068L151.856 190.678C151.856 190.678 151.631 189.153 151.189 188.588C151.189 188.588 152.101 189.14 152.084 190.838L152.928 191.553C152.928 191.553 152.849 190.225 152.509 189.505C152.509 189.505 153.229 190.178 153.158 191.755L153.653 192.293C153.653 192.293 153.574 191.325 153.524 191.043C153.473 190.76 153.552 190.733 153.552 190.733C153.84 191.288 153.948 191.903 153.864 192.51C153.864 192.51 154.798 193.728 154.877 193.69Z" fill="#9E7E44"/>
</g>
<defs>
<linearGradient id="paint0_linear" x1="291.023" y1="203.02" x2="291.023" y2="52.9826" gradientUnits="userSpaceOnUse">
<stop stop-color="#808080" stop-opacity="0.25"/>
<stop offset="0.54" stop-color="#808080" stop-opacity="0.12"/>
<stop offset="1" stop-color="#808080" stop-opacity="0.1"/>
</linearGradient>
<linearGradient id="paint1_linear" x1="87.007" y1="180.015" x2="87.007" y2="79.9994" gradientUnits="userSpaceOnUse">
<stop stop-color="#808080" stop-opacity="0.25"/>
<stop offset="0.54" stop-color="#808080" stop-opacity="0.12"/>
<stop offset="1" stop-color="#808080" stop-opacity="0.1"/>
</linearGradient>
</defs>
</svg>
