<svg width="300" height="209" viewBox="0 0 300 209" fill="none" xmlns="http://www.w3.org/2000/svg">
<path opacity="0.1" d="M174.301 32.9757C155.07 32.3107 136.753 26.1249 119.261 19.3589C101.769 12.5929 84.4449 5.09576 65.671 1.51143C53.5992 -0.796 39.7907 -1.12185 30.0619 5.32624C20.7002 11.5306 17.6763 22.2412 16.0486 32.1809C14.8252 39.6595 14.1072 47.5276 17.4582 54.5294C19.7853 59.3879 23.9183 63.473 26.7667 68.1276C36.7109 84.3273 29.6923 104.299 18.905 120.118C13.8518 127.535 7.98482 134.614 4.08588 142.511C0.186943 150.408 -1.61093 159.458 1.81726 167.527C5.20024 175.512 13.2534 181.51 21.9955 185.73C39.7189 194.284 60.6205 196.737 81.0008 198.125C126.118 201.198 171.477 199.868 216.714 198.536C233.453 198.04 250.269 197.542 266.737 194.962C275.884 193.532 285.325 191.253 291.966 185.772C300.394 178.807 302.485 167.013 296.836 158.279C287.362 143.629 261.168 140 254.549 124.269C250.902 115.617 254.647 105.976 259.945 97.952C271.307 80.7323 290.352 65.632 291.355 45.9513C292.046 32.4405 282.889 18.898 268.732 12.5029C253.892 5.80044 233.317 6.64288 222.368 17.7403C211.094 29.1662 191.283 33.5611 174.301 32.9757Z" fill="#9E7E44"/>
<path d="M240 181.364C238.993 181.045 237.929 180.934 236.876 181.038C235.593 181.174 235.774 183.087 237.062 182.997C237.706 182.948 238.343 182.833 238.963 182.654L240 181.364Z" fill="#9E7E44"/>
<path d="M240.244 181C240.702 181.937 240.959 182.959 240.999 184.001C241.041 185.271 239.105 185.361 239.017 184.094C238.978 183.459 239.006 182.823 239.1 182.194L240.244 181Z" fill="#9E7E44"/>
<path d="M244 176.652C244 176.652 243.344 174.297 239.336 175.211C237.522 175.623 237.571 178.6 239.388 178.915H239.465C242.111 179.336 243.031 178.135 244 176.652Z" fill="#9E7E44"/>
<path d="M244.466 177C244.466 177 246.85 177.169 246.999 181.276C247.068 183.125 244.253 183.685 243.499 181.969C243.499 181.943 243.479 181.92 243.467 181.894C242.414 179.388 243.312 178.246 244.466 177Z" fill="#9E7E44"/>
<path d="M247 171.439C246.681 169.876 245.535 168.607 244.005 168.121C241.196 167.242 239.712 171.412 242.457 172.472C243.593 172.884 244.803 173.058 246.01 172.983L247 171.439Z" fill="#9E7E44"/>
<path d="M251 164.174C251 164.174 249.857 161.568 246.893 161.047C243.75 160.492 242.799 165.045 245.904 165.772C247.297 166.064 248.737 166.076 250.135 165.806L251 164.174Z" fill="#9E7E44"/>
<path d="M253 157.645C252.004 156.297 250.414 155.357 248.596 155.039C245.843 154.593 244.915 158.14 247.619 158.747C249.316 159.104 251.092 159.083 252.777 158.685L253 157.645Z" fill="#9E7E44"/>
<path d="M254 151.345C253.216 149.82 251.996 148.676 250.561 148.118C248.104 147.228 246.891 151.623 249.333 152.58C250.78 153.147 252.345 153.14 253.789 152.56L254 151.345Z" fill="#9E7E44"/>
<path d="M255 144.801C255 144.801 253.87 142.521 251.567 141.316C249.001 139.972 246.557 143.26 249.024 144.74C250.544 145.657 252.491 146.289 254.765 145.866L255 144.801Z" fill="#9E7E44"/>
<path d="M256 137.663C256 137.663 254.788 135.361 252.463 134.26C249.863 133.045 247.601 136.404 250.05 137.853C251.652 138.798 253.653 139.411 255.777 138.672L256 137.663Z" fill="#9E7E44"/>
<path d="M255 131.327C254.137 129.872 253.079 128.565 251.862 127.449C250.13 125.913 247.939 128.679 249.579 130.321C251.093 131.83 252.978 133.096 254.927 132.994L255 131.327Z" fill="#9E7E44"/>
<path d="M254.841 124.697C253.885 123.133 252.733 121.69 251.412 120.4C250.102 119.173 248.165 121.042 249.389 122.335C250.803 123.807 252.709 125.333 255 126L254.841 124.697Z" fill="#9E7E44"/>
<path d="M253.627 118.058C252.772 116.755 251.776 115.546 250.656 114.452C249.224 113.077 247.065 115.146 248.44 116.574C249.899 118.093 251.786 119.516 254 120L253.627 118.058Z" fill="#9E7E44"/>
<path d="M251.981 110.723C251.119 109.556 250.185 108.445 249.183 107.397C248.059 106.238 246.263 107.867 247.322 109.088C248.567 110.524 250.164 111.796 252 112L251.981 110.723Z" fill="#9E7E44"/>
<path d="M251 103.399C250.162 102.013 249.204 100.681 248.134 99.4142C247.237 98.3774 245.369 99.4869 246.214 100.553C247.32 101.951 248.856 103.334 250.874 104L251 103.399Z" fill="#9E7E44"/>
<path d="M250 95.1726C250 95.1726 249.288 93.9514 248.269 92.532C247.329 91.2234 245.345 92.5757 246.216 93.931C247.197 95.4495 248.425 96.7435 249.856 97L250 95.1726Z" fill="#9E7E44"/>
<path d="M249.814 88.9386L248.902 84.7159C248.66 83.5988 246.863 83.8659 247.008 84.9857C247.335 87.2414 248.174 89.5106 250 91L249.814 88.9386Z" fill="#9E7E44"/>
<path d="M250 77.4592C249.795 77.1091 249.26 76.9245 248.754 77.0292C248.248 77.1339 247.93 77.4949 248.013 77.8701C248.249 78.933 248.608 79.98 249.085 81L250 77.4592Z" fill="#9E7E44"/>
<path d="M246.863 171.214C248.388 170.732 250.066 171.078 251.249 172.118C253.394 174.037 250.493 177.256 248.206 175.486C247.285 174.737 246.534 173.815 246 172.776L246.863 171.214Z" fill="#9E7E44"/>
<path d="M250.892 164.113C250.892 164.113 253.861 163.404 256.158 165.532C258.593 167.789 255.226 171.484 252.661 169.37C251.54 168.399 250.634 167.209 250 165.876L250.892 164.113Z" fill="#9E7E44"/>
<path d="M252.224 158.136C253.692 157.173 255.525 156.8 257.3 157.103C259.971 157.592 259.306 161.297 256.616 160.981C254.938 160.758 253.349 160.147 252 159.206L252.224 158.136Z" fill="#9E7E44"/>
<path d="M254.225 151.274C255.588 150.363 257.272 149.916 258.973 150.013C261.875 150.237 261.564 154.158 258.66 153.995C256.941 153.9 255.304 153.306 254 152.305L254.225 151.274Z" fill="#9E7E44"/>
<path d="M255 145.358C255 145.358 256.51 143.096 258.921 142.171C261.595 141.143 263.312 145.036 260.714 146.233C259.081 146.98 257.114 147.358 255.024 146.537L255 145.358Z" fill="#9E7E44"/>
<path d="M255 137.282C255 137.282 256.504 135.019 258.91 134.155C261.592 133.19 263.305 136.997 260.728 138.218C259.041 139.015 257.017 139.412 255.07 138.378L255 137.282Z" fill="#9E7E44"/>
<path d="M255 131.591C255.512 130.173 256.225 128.842 257.117 127.641C258.392 125.974 260.872 127.889 259.688 129.628C258.601 131.226 257.148 132.689 255.358 133L255 131.591Z" fill="#9E7E44"/>
<path d="M255 125.54C255.494 123.534 256.226 121.601 257.181 119.783C258.145 118.05 260.688 119.485 259.823 121.274C258.835 123.322 257.353 125.565 255.22 127L255 125.54Z" fill="#9E7E44"/>
<path d="M253 117C253.58 115.482 254.323 114.035 255.216 112.685C256.322 111.044 258.772 112.653 257.76 114.349C256.66 116.198 255.109 118.059 253.03 119L253 117Z" fill="#9E7E44"/>
<path d="M252 110.867C252.331 109.493 252.761 108.138 253.287 106.812C253.881 105.335 256.44 106.048 255.934 107.551C255.34 109.317 254.321 111.081 252.571 112L252 110.867Z" fill="#9E7E44"/>
<path d="M251 103.403C251.444 101.781 252.021 100.192 252.726 98.6472C253.325 97.3797 255.454 98.1511 254.913 99.4393C254.211 101.127 253.083 102.888 251.293 104L251 103.403Z" fill="#9E7E44"/>
<path d="M250 95.5166C250 95.5166 250.254 94.2859 250.716 92.7973C251.143 91.4248 253.315 91.964 252.961 93.3546C252.567 94.9025 251.88 96.3602 250.692 97L250 95.5166Z" fill="#9E7E44"/>
<path d="M249.519 88.8742L251.116 84.6226C251.538 83.4889 253.299 84.0387 252.956 85.1895C252.266 87.4854 251.069 89.7245 249 91L249.519 88.8742Z" fill="#9E7E44"/>
<path d="M252.307 77.6858C252.307 77.6858 252.525 77.492 252.857 77.1871C253.534 76.5602 254.418 77.6544 253.779 78.327C252.667 79.4544 251.389 80.3587 250 81L252.307 77.6858Z" fill="#9E7E44"/>
<path d="M252.273 76C253.073 74.2105 253.964 72.4717 254.943 70.7919C255.059 70.5522 254.994 70.2555 254.792 70.0989C254.59 69.9423 254.313 69.9747 254.145 70.1746C253.358 71.3553 252.586 73.0832 252 75.6226L252.273 76Z" fill="#9E7E44"/>
<path d="M249.827 97L250.187 96.9678C248.637 84.4688 249.291 76.7618 252 75.2682L251.805 75C248.934 76.5902 248.252 84.1953 249.827 97Z" fill="#444053"/>
<path d="M254.551 127L255 126.931C254.831 125.793 254.637 124.637 254.419 123.499C252.531 113.51 251.063 104.277 250.329 97.264L250 97C250.737 104.026 252.075 113.579 253.976 123.581C254.188 124.711 254.383 125.865 254.551 127Z" fill="#444053"/>
<path d="M233.372 189C233.44 188.945 240.463 183.579 246.629 173.288C250.242 167.266 252.876 160.709 254.431 153.862C256.379 145.303 256.435 135.335 255.03 126L254.619 126.329C257.782 147.28 251.748 163.547 246.117 172.951C240.012 183.148 233.071 188.458 233 188.51L233.372 189Z" fill="#444053"/>
<path d="M51.5 189C61.165 189 69 187.433 69 185.5C69 183.567 61.165 182 51.5 182C41.835 182 34 183.567 34 185.5C34 187.433 41.835 189 51.5 189Z" fill="#9E7E44"/>
<path d="M51 187C52.1046 187 53 185.881 53 184.5C53 183.119 52.1046 182 51 182C49.8954 182 49 183.119 49 184.5C49 185.881 49.8954 187 51 187Z" fill="#3F3D56"/>
<path d="M51 183C52.1046 183 53 181.881 53 180.5C53 179.119 52.1046 178 51 178C49.8954 178 49 179.119 49 180.5C49 181.881 49.8954 183 51 183Z" fill="#3F3D56"/>
<path d="M51 180C52.1046 180 53 178.881 53 177.5C53 176.119 52.1046 175 51 175C49.8954 175 49 176.119 49 177.5C49 178.881 49.8954 180 51 180Z" fill="#3F3D56"/>
<path d="M51 177C52.1046 177 53 175.881 53 174.5C53 173.119 52.1046 172 51 172C49.8954 172 49 173.119 49 174.5C49 175.881 49.8954 177 51 177Z" fill="#3F3D56"/>
<path d="M51 173C52.1046 173 53 171.881 53 170.5C53 169.119 52.1046 168 51 168C49.8954 168 49 169.119 49 170.5C49 171.881 49.8954 173 51 173Z" fill="#3F3D56"/>
<path d="M51 170C52.1046 170 53 168.881 53 167.5C53 166.119 52.1046 165 51 165C49.8954 165 49 166.119 49 167.5C49 168.881 49.8954 170 51 170Z" fill="#3F3D56"/>
<path d="M51 167C52.1046 167 53 165.881 53 164.5C53 163.119 52.1046 162 51 162C49.8954 162 49 163.119 49 164.5C49 165.881 49.8954 167 51 167Z" fill="#3F3D56"/>
<path d="M58.8549 141.922C59.1407 141.565 59.4006 141.189 59.6327 140.796L54.1533 139.911L60.0741 139.953C61.2237 137.494 61.2928 134.676 60.2651 132.165L52.3152 136.223L59.6461 130.925C57.7777 127.732 54.2533 125.836 50.5147 126.011C46.7761 126.186 43.4507 128.404 41.899 131.757C40.3474 135.11 40.8297 139.035 43.1488 141.927C42.7056 142.483 42.3239 143.085 42.0104 143.721L49.1234 147.358L41.5448 144.852C40.4642 148 41.0715 151.473 43.1596 154.084C39.9367 158.116 40.4031 163.908 44.2308 167.389C48.0585 170.87 53.9614 170.87 57.7891 167.389C61.6167 163.908 62.0831 158.116 58.8603 154.084C61.7127 150.518 61.7127 145.493 58.8603 141.927L58.8549 141.922Z" fill="#9E7E44"/>
<path opacity="0.1" d="M41.0028 148.144C41.0006 150.335 41.7541 152.463 43.1418 154.184C39.9158 158.19 40.3827 163.946 44.2141 167.405C48.0456 170.865 53.9544 170.865 57.7859 167.405C61.6173 163.946 62.0842 158.19 58.8582 154.184C60.1997 152.522 41.0028 147.046 41.0028 148.144Z" fill="black"/>
<path d="M61 69V186.885C61 187.976 61.4302 189.023 62.1958 189.795C62.9615 190.566 64 191 65.0829 191H232.917C235.172 191 237 189.158 237 186.885V69H61Z" fill="white"/>
<rect opacity="0.1" x="76" y="79" width="42" height="25" rx="8.65" fill="black"/>
<rect opacity="0.1" x="129" y="79" width="42" height="25" rx="8.65" fill="black"/>
<rect x="77" y="80" width="41" height="24" rx="8.65" fill="#9E7E44"/>
<rect opacity="0.1" x="223" y="104" width="41" height="24" rx="8.65" transform="rotate(-180 223 104)" fill="#444053"/>
<rect x="170" y="104" width="41" height="24" rx="8.65" transform="rotate(-180 170 104)" fill="#9E7E44"/>
<rect opacity="0.1" x="77" y="116" width="41" height="24" rx="8.65" fill="#444053"/>
<rect opacity="0.1" x="223" y="140" width="41" height="24" rx="8.65" transform="rotate(-180 223 140)" fill="#444053"/>
<rect opacity="0.1" x="170" y="140" width="41" height="24" rx="8.65" transform="rotate(-180 170 140)" fill="#444053"/>
<rect opacity="0.1" x="77" y="150" width="41" height="24" rx="8.65" fill="#444053"/>
<rect opacity="0.1" x="223" y="174" width="41" height="24" rx="8.65" transform="rotate(-180 223 174)" fill="#444053"/>
<rect opacity="0.1" x="170" y="174" width="41" height="24" rx="8.65" transform="rotate(-180 170 174)" fill="#444053"/>
<path fill-rule="evenodd" clip-rule="evenodd" d="M61 49.0317V70H237V49.0317C237.001 47.9626 236.571 46.9372 235.805 46.181C235.039 45.4248 234 45 232.917 45H65.0829C63.9996 45 62.9607 45.4248 62.1949 46.181C61.4291 46.9372 60.9993 47.9626 61 49.0317ZM104.556 55.2346C102.756 55.2346 101.296 53.7946 101.296 52.0182C101.296 50.2418 102.756 48.8017 104.556 48.8017C106.356 48.8017 107.815 50.2418 107.815 52.0182C107.815 53.7946 106.356 55.2346 104.556 55.2346ZM190.185 52.0182C190.185 53.7946 191.644 55.2346 193.444 55.2346C193.442 55.2346 193.441 55.2346 193.439 55.2346M190.185 52.0182C190.185 50.2418 191.644 48.8017 193.444 48.8017L190.185 52.0182ZM193.444 48.8017C195.244 48.8017 196.704 50.2418 196.704 52.0182L193.444 48.8017ZM196.704 52.0182C196.704 52.8721 196.359 53.6911 195.747 54.2944L196.704 52.0182ZM195.747 54.2944C195.136 54.8965 194.308 55.2346 193.444 55.2346L195.747 54.2944Z" fill="#9E7E44"/>
<path opacity="0.1" fill-rule="evenodd" clip-rule="evenodd" d="M102.305 50.4673C102.925 48.9727 104.385 47.9989 106.003 48C107.063 48 108.081 48.4215 108.83 49.1717C109.58 49.9219 110.001 50.9393 110 51.9999C110 53.618 109.025 55.0767 107.53 55.6957C106.035 56.3146 104.314 55.9719 103.171 54.8274C102.027 53.6828 101.685 51.9619 102.305 50.4673ZM102.619 51.9999C102.619 53.869 104.134 55.3841 106.003 55.3841C107.872 55.3841 109.387 53.869 109.387 51.9999C109.387 50.1309 107.872 48.6158 106.003 48.6158C104.134 48.6158 102.619 50.1309 102.619 51.9999Z" fill="black"/>
<path opacity="0.1" fill-rule="evenodd" clip-rule="evenodd" d="M190 52C190 49.7909 191.791 48 194 48C196.209 48 198 49.7909 198 52C198 54.2091 196.209 56 194 56C191.791 56 190 54.2091 190 52ZM190.616 52C190.616 53.869 192.131 55.3842 194 55.3842C195.869 55.3842 197.384 53.869 197.384 52C197.384 50.131 195.869 48.6158 194 48.6158C192.131 48.6158 190.616 50.131 190.616 52Z" fill="black"/>
<path opacity="0.1" d="M275 116C277.209 116 279 114.209 279 112C279 109.791 277.209 108 275 108C272.791 108 271 109.791 271 112C271 114.209 272.791 116 275 116Z" fill="#9E7E44"/>
<path opacity="0.1" d="M289 100C292.866 100 296 96.866 296 93C296 89.134 292.866 86 289 86C285.134 86 282 89.134 282 93C282 96.866 285.134 100 289 100Z" fill="#9E7E44"/>
<path opacity="0.1" d="M280 134C283.866 134 287 130.866 287 127C287 123.134 283.866 120 280 120C276.134 120 273 123.134 273 127C273 130.866 276.134 134 280 134Z" fill="#9E7E44"/>
<path opacity="0.1" d="M9.5 101C14.7467 101 19 96.7467 19 91.5C19 86.2533 14.7467 82 9.5 82C4.25329 82 0 86.2533 0 91.5C0 96.7467 4.25329 101 9.5 101Z" fill="#9E7E44"/>
<path d="M244.786 196.688C244.192 196.233 243.54 195.86 242.848 195.581C242.795 195.553 242.737 195.538 242.678 195.536C241.247 194.491 239.909 193.321 238.681 192.037C238.942 191.824 239.183 191.617 239.439 191.413C237.871 190.653 237.001 188.914 236.155 187.345C233.917 183.174 230.968 179.44 227.445 176.317C227.359 175.98 226.855 176.052 226.586 175.834C226.407 175.66 226.334 175.401 226.395 175.157C226.437 174.913 226.547 174.687 226.607 174.448C226.75 173.888 226.625 173.299 226.562 172.723C226.5 172.147 226.526 171.504 226.902 171.074C227.022 170.933 227.176 170.825 227.294 170.681C227.544 170.34 227.639 169.906 227.555 169.489C227.527 169.076 227.439 168.669 227.294 168.281C228.574 164.742 229.853 161.196 231.131 157.644C232.027 155.164 232.931 152.631 233.023 149.987C233.096 147.863 232.558 145.657 231.293 144.035C231.523 143.979 231.753 143.921 231.98 143.854C230.486 141.842 230.324 139.177 230.285 136.641C230.264 135.378 230.221 134.113 230.157 132.848C230.591 133.041 231.03 133.214 231.479 133.363L231.897 133.493C232.576 133.695 233.268 133.846 233.968 133.944C234.277 133.989 234.59 134.024 234.901 134.045C234.452 132.902 234.003 131.757 233.556 130.61C233.323 130.102 233.181 129.556 233.138 128.998V128.892C233.138 128.828 233.138 128.765 233.151 128.701C233.169 128.549 233.203 128.399 233.253 128.255C233.276 128.183 233.303 128.113 233.334 128.045C233.427 127.836 233.539 127.636 233.668 127.448C233.762 127.302 233.867 127.161 233.971 127.018C234.36 126.556 234.677 126.036 234.909 125.475C235.001 125.192 235.049 124.895 235.053 124.597C235.058 124.294 235.031 123.991 234.974 123.694C234.938 123.497 234.891 123.298 234.838 123.107C234.804 122.988 234.768 122.868 234.731 122.751L234.7 122.656C234.671 122.566 234.642 122.478 234.611 122.39L234.58 122.3C234.546 122.205 234.512 122.112 234.475 122.016L234.454 121.96C233.955 120.657 233.292 119.414 232.887 118.074C232.78 117.717 232.693 117.354 232.626 116.988C232.607 116.895 232.594 116.799 232.579 116.706C232.563 116.614 232.555 116.547 232.545 116.468C232.534 116.388 232.521 116.282 232.511 116.189L232.487 115.923C232.487 115.838 232.474 115.753 232.469 115.658C232.469 115.496 232.453 115.334 232.451 115.172C232.451 115.114 232.451 115.058 232.451 114.999C232.451 114.877 232.451 114.753 232.451 114.63C232.451 114.564 232.451 114.498 232.451 114.434C232.451 114.312 232.469 114.19 232.479 114.07C232.479 114.012 232.479 113.953 232.498 113.898C232.515 113.721 232.539 113.544 232.568 113.367C232.594 113.21 232.623 113.051 232.654 112.892C232.749 112.456 232.798 112.011 232.801 111.564C232.801 111.479 232.801 111.392 232.782 111.299C232.764 111.206 232.762 111.155 232.748 111.086C232.747 111.065 232.747 111.044 232.748 111.023C232.748 110.975 232.725 110.927 232.715 110.879C232.704 110.831 232.701 110.834 232.694 110.813C232.686 110.792 232.665 110.72 232.649 110.675C232.634 110.63 232.636 110.635 232.628 110.614C232.62 110.592 232.592 110.518 232.571 110.473L232.553 110.425C232.526 110.367 232.498 110.311 232.469 110.255C232.368 110.062 232.251 109.877 232.119 109.703C231.259 108.556 229.83 107.683 229.044 106.419C228.585 105.6 228.286 104.699 228.164 103.764C228.125 103.552 228.091 103.34 228.054 103.13C228.017 102.92 227.986 102.713 227.95 102.506C227.926 102.378 227.903 102.24 227.876 102.124L227.861 102.041C227.84 101.94 227.819 101.837 227.795 101.736L227.78 101.664C227.756 101.558 227.733 101.452 227.707 101.346L227.691 101.29C227.665 101.179 227.636 101.067 227.607 100.956C227.606 100.942 227.606 100.929 227.607 100.916C227.576 100.799 227.542 100.682 227.508 100.565V100.541C227.471 100.419 227.435 100.3 227.396 100.18C227.357 100.058 227.315 99.9334 227.27 99.8113C227.223 99.6865 227.179 99.5617 227.129 99.4396C226.801 98.5843 226.356 97.78 225.807 97.0503C224.611 95.4893 222.761 94.3689 220.844 94.4433C219.815 94.4831 218.827 94.8495 217.858 95.2132L215.342 96.1556L216.045 95.8264C215.313 95.8928 214.566 95.9618 213.905 96.291C213.244 96.6202 212.685 97.2653 212.664 98.0193C212.651 98.4573 212.821 98.8927 212.766 99.3281C212.675 100.048 212.024 100.536 211.687 101.173C211.49 101.557 211.4 101.989 211.426 102.421V102.442C211.426 102.493 211.426 102.54 211.426 102.591C211.425 102.605 211.425 102.619 211.426 102.633V102.718C210.381 102.256 209.336 101.776 208.291 101.261C206.565 100.398 204.817 99.3839 203.741 97.7485C203.396 97.2176 203.129 96.6441 202.787 96.1185C202.394 95.5527 201.958 95.0201 201.481 94.5256L198.275 91C198.03 91.4699 198.346 92.0248 198.594 92.492C198.858 92.9821 199.057 93.5051 199.187 94.0477C199.25 94.2245 199.245 94.4192 199.172 94.5919C199.055 94.7344 198.904 94.8433 198.733 94.9079C198.131 95.293 197.859 96.0418 198.072 96.7317C198.303 97.4039 198.866 97.9023 199.553 98.0432C199.779 98.0694 200.001 98.1247 200.214 98.2078C200.6 98.4016 200.783 98.8529 201.06 99.1901C201.564 99.806 202.366 100.037 203.132 100.239C204.318 101.63 205.551 102.963 206.737 104.354C208.532 106.459 210.368 108.601 212.709 110.024C212.952 110.173 213.2 110.311 213.451 110.438C213.451 110.481 213.451 110.523 213.438 110.566C213.372 110.88 213.412 111.207 213.55 111.495C213.759 111.832 214.19 111.933 214.574 112.002L216.345 112.323C216.33 112.557 216.301 112.789 216.259 113.019C216.236 113.16 216.207 113.298 216.181 113.438L216.149 113.619C216.149 113.619 216.149 113.638 216.149 113.645C216.149 113.653 216.149 113.741 216.131 113.791C216.113 113.842 216.131 113.826 216.131 113.842V113.969V114.022C216.131 114.078 216.131 114.137 216.131 114.195C216.191 114.901 216.654 115.485 217.116 116.024L217.364 116.329C216.97 116.833 216.694 117.422 216.557 118.05C216.478 118.444 216.44 118.845 216.442 119.247C216.205 119.477 216.026 119.761 215.92 120.075C215.796 120.51 215.75 120.965 215.784 121.416V121.448C215.784 121.615 215.784 121.78 215.784 121.947C215.753 122.581 215.857 123.215 216.087 123.805C216.11 123.853 216.136 123.896 216.16 123.941C215.768 124.721 215.115 125.329 214.647 126.065C213.678 127.737 213.844 129.848 215.063 131.342C215.421 131.762 215.88 132.165 215.922 132.723C215.916 132.976 215.891 133.228 215.849 133.477C215.807 134.077 216.079 134.645 216.225 135.226C216.348 135.71 216.353 136.288 216.081 136.676C215.807 137.083 215.68 137.575 215.724 138.067C215.857 138.818 215.551 139.57 215.499 140.332C215.475 140.658 215.499 140.99 215.47 141.316C215.433 141.629 215.369 141.938 215.279 142.24C215.279 142.272 215.264 142.307 215.253 142.341C214.608 142.631 213.968 142.931 213.352 143.278C213.019 143.429 212.743 143.686 212.568 144.011C212.464 144.337 212.449 144.686 212.526 145.02L213.082 148.954L212.986 148.912C213.029 149.556 213.075 150.203 213.122 150.853C213.156 151.344 213.2 151.864 213.487 152.257C213.634 152.415 213.766 152.587 213.882 152.769C214.101 153.221 213.84 153.746 213.647 154.208C213.453 154.67 213.385 155.326 213.811 155.575C214.033 155.732 214.273 155.863 214.524 155.963C214.002 158.177 214.483 160.497 214.969 162.72C215.34 164.419 215.711 166.116 216.084 167.811C216.23 168.532 216.312 169.264 216.33 169.999C216.33 170.105 216.33 170.211 216.33 170.318C216.382 171.329 216.558 172.329 216.852 173.296C217.432 175.282 216.876 177.666 217.059 179.83C217.18 180.87 217.385 181.899 217.67 182.907C218.932 187.993 220.058 192.979 220.491 198.209C220.955 198.809 221.584 199.256 222.299 199.491C222.247 200.134 222.317 200.869 222.299 201.243C222.298 201.553 222.251 201.861 222.158 202.157C221.936 202.746 221.374 203.131 220.792 203.338C220.609 203.402 220.423 203.452 220.235 203.497L220.444 203.317C219.25 203.053 218.001 203.276 216.967 203.938C216.639 204.108 216.392 204.404 216.28 204.761C216.237 205.098 216.323 205.439 216.52 205.714C217.095 206.57 217.952 207.188 218.937 207.458C219.91 207.719 220.909 207.86 221.915 207.88L223.759 207.989C223.63 208.211 223.681 208.495 223.879 208.656C224.077 208.802 224.312 208.889 224.556 208.905C225.31 209.019 226.075 209.03 226.831 208.94C227.021 208.934 227.204 208.867 227.354 208.749C227.424 208.684 227.464 208.592 227.464 208.495C227.464 208.398 227.424 208.306 227.354 208.241C227.58 208.234 227.779 208.087 227.855 207.87C227.928 207.654 227.951 207.424 227.923 207.198C227.874 206.325 227.798 205.056 227.351 204.278C227.193 203.987 226.862 203.839 226.544 203.917C226.255 202.362 226.08 200.788 226.022 199.207C226.482 199.032 226.93 198.826 227.364 198.591C226.082 196.486 226.058 193.813 226.45 191.365C226.605 190.592 226.72 189.811 226.792 189.026C226.878 187.46 226.646 185.686 225.792 184.391C227.349 185.397 228.727 186.665 229.867 188.139C231.672 190.529 232.772 193.422 234.985 195.413C235.276 195.125 235.57 194.838 235.868 194.553C236.334 195.357 236.776 196.177 237.192 197.014C237.519 197.63 237.776 198.281 237.96 198.955C238.164 199.986 238.188 201.045 238.031 202.085C237.97 202.637 237.896 203.187 237.809 203.734C237.774 203.968 237.72 204.198 237.649 204.424C237.648 204.352 237.631 204.281 237.6 204.217C237.461 203.97 237.077 204.081 236.868 204.251C236.496 204.535 236.189 204.897 235.967 205.313C235.845 205.516 235.788 205.753 235.805 205.99C235.873 206.279 236.065 206.522 236.327 206.654C237.297 207.23 238.514 206.813 239.554 206.388C239.841 206.283 240.115 206.143 240.369 205.972C240.891 205.589 241.176 204.96 241.696 204.588C241.973 204.434 242.241 204.262 242.498 204.073C242.981 203.625 243.02 202.868 243.373 202.3C243.958 201.32 245.267 201.068 245.779 200.03C246.372 198.883 245.68 197.436 244.786 196.688Z" fill="url(#paint0_linear)"/>
<path d="M222.438 200.923C222.437 201.228 222.386 201.53 222.288 201.819C222.06 202.396 221.471 202.772 220.866 202.975C220.262 203.178 219.619 203.238 219.003 203.415C218.733 203.474 218.482 203.599 218.276 203.778C217.731 204.305 218.058 205.253 218.695 205.646C219.333 206.038 220.145 206.025 220.902 205.975C222.509 205.884 224.105 205.665 225.675 205.319C226.241 205.19 226.903 204.937 226.993 204.381C227.01 204.205 226.995 204.026 226.95 203.855C226.563 201.969 226.358 200.053 226.337 198.132C226.337 198.005 223.177 197.924 222.882 198.108C222.223 198.527 222.474 200.275 222.438 200.923Z" fill="#A1616A"/>
<path d="M236.618 194.794C237.152 195.664 237.654 196.552 238.123 197.457C238.471 198.082 238.745 198.744 238.941 199.43C239.157 200.478 239.182 201.556 239.016 202.613C238.951 203.173 238.872 203.732 238.777 204.29C238.685 204.838 238.538 205.459 238.062 205.773C238.491 206.024 239.013 206.069 239.481 205.897C239.94 205.722 240.363 205.467 240.73 205.144C243.115 203.209 244.904 200.399 244.993 197.358C245.018 197.121 244.973 196.881 244.862 196.669C244.75 196.52 244.608 196.395 244.445 196.302C242.666 195.11 241.013 193.745 239.512 192.227C239.423 192.11 239.295 192.03 239.15 192C239.036 192.001 238.924 192.032 238.827 192.09C237.912 192.542 236.381 193.185 236 194.211C236.261 194.34 236.476 194.543 236.618 194.794Z" fill="#A1616A"/>
<path d="M225.33 204.202C223.392 205.042 221.293 205.344 219.196 205.632C218.927 205.666 218.639 205.688 218.461 205.492C218.317 205.305 218.297 205.045 218.412 204.837C218.527 204.635 218.68 204.46 218.862 204.322L220.254 203.11C219.04 202.842 217.774 203.068 216.717 203.743C216.384 203.915 216.131 204.217 216.011 204.582C215.967 204.935 216.055 205.291 216.259 205.576C216.855 206.469 217.736 207.112 218.746 207.391C219.748 207.661 220.777 207.808 221.812 207.83L223.696 207.942C223.562 208.173 223.617 208.473 223.823 208.637C224.028 208.792 224.27 208.884 224.523 208.903C225.299 209.02 226.086 209.031 226.865 208.936C227.06 208.933 227.249 208.863 227.403 208.737C227.475 208.67 227.516 208.575 227.516 208.474C227.516 208.374 227.475 208.278 227.403 208.211C227.636 208.204 227.841 208.049 227.92 207.822C227.992 207.598 228.016 207.36 227.99 207.125C227.939 206.218 227.861 204.885 227.4 204.092C226.94 203.3 225.982 203.922 225.33 204.202Z" fill="#3F3D56"/>
<path d="M245.8 197.112C245.214 196.674 244.573 196.316 243.893 196.047C243.838 196.005 243.767 195.99 243.7 196.007C243.633 196.024 243.577 196.071 243.549 196.135C242.335 197.796 241.388 199.639 240.74 201.596C240.373 202.71 240.082 203.897 239.337 204.799C239.239 204.918 239.08 205.04 238.947 204.97C238.754 204.871 238.872 204.558 238.764 204.369C238.63 204.13 238.266 204.239 238.047 204.402C237.68 204.677 237.378 205.031 237.163 205.439C237.04 205.632 236.984 205.861 237.004 206.089C237.069 206.366 237.252 206.6 237.505 206.727C238.458 207.284 239.656 206.882 240.676 206.468C240.958 206.367 241.226 206.233 241.475 206.066C241.989 205.701 242.269 205.092 242.781 204.737C243.053 204.587 243.317 204.421 243.569 204.239C244.042 203.806 244.083 203.078 244.428 202.529C245.003 201.588 246.291 201.344 246.794 200.344C247.357 199.227 246.679 197.833 245.8 197.112Z" fill="#3F3D56"/>
<path d="M231.568 144.348C233.665 145.904 234.546 148.671 234.452 151.261C234.359 153.851 233.438 156.335 232.526 158.764C231.218 162.24 229.913 165.716 228.609 169.19C228.754 169.571 228.844 169.971 228.875 170.377C228.959 170.785 228.862 171.209 228.609 171.542C228.486 171.682 228.342 171.79 228.208 171.928C227.824 172.349 227.8 172.982 227.862 173.544C227.923 174.106 228.054 174.686 227.907 175.235C227.846 175.47 227.733 175.691 227.691 175.928C227.63 176.168 227.705 176.422 227.886 176.593C228.152 176.804 228.686 176.735 228.763 177.068C232.351 180.122 235.36 183.784 237.649 187.881C238.513 189.419 239.386 191.122 241 191.866C239.427 193.098 237.919 194.408 236.483 195.793C234.228 193.842 233.105 191.001 231.264 188.672C230.098 187.224 228.692 185.982 227.106 184.998C227.979 186.267 228.216 188.008 228.128 189.54C228.054 190.31 227.938 191.075 227.779 191.832C227.365 194.232 227.403 196.843 228.713 198.916C227.315 199.633 225.708 200.166 224.147 199.952C223.168 199.815 222.279 199.313 221.661 198.549C221.218 193.422 220.06 188.527 218.782 183.55C218.488 182.558 218.281 181.542 218.16 180.515C217.973 178.405 218.541 176.058 217.946 174.111C217.647 173.165 217.467 172.185 217.413 171.194C217.413 171.089 217.413 170.986 217.413 170.88C217.395 170.161 217.311 169.444 217.162 168.739L216.025 163.749C215.529 161.568 215.033 159.294 215.569 157.124C215.313 157.026 215.07 156.9 214.843 156.747C214.408 156.501 214.478 155.861 214.675 155.407C214.873 154.953 215.137 154.439 214.915 153.996C214.797 153.816 214.662 153.647 214.512 153.492C214.219 153.107 214.173 152.598 214.139 152.118L214 150.214C214.805 150.53 215.476 151.11 215.9 151.857C214.849 150.248 215.366 147.954 216.143 146.197C216.439 145.092 217.436 144.312 218.592 144.28C222.869 143.557 228.094 141.766 231.568 144.348Z" fill="#3F3D56"/>
<path opacity="0.1" d="M230 155C230 155 227.74 156.38 227.74 157.414C227.74 158.448 227.167 167.754 227.167 167.754V174.315C227.167 174.315 227.543 177.764 227.167 178.624C226.791 179.485 227.167 183.451 227.167 183.968C227.167 184.485 227.74 178.624 227.74 178.624V172.41L228.314 158.275L230 155Z" fill="black"/>
<path d="M217 105.866L215.785 105.388C213.303 104.383 210.819 103.375 208.416 102.196C206.669 101.339 204.899 100.326 203.812 98.7085C203.462 98.174 203.192 97.6127 202.846 97.0862C202.447 96.523 202.005 95.993 201.523 95.5013L198.278 92C198.03 92.4677 198.347 93.0183 198.601 93.4807C198.867 93.968 199.069 94.4882 199.202 95.0282C199.264 95.2021 199.258 95.3937 199.183 95.5627C199.067 95.7058 198.914 95.8147 198.742 95.8781C198.134 96.2546 197.858 97.0007 198.072 97.6876C198.308 98.3589 198.878 98.8546 199.57 98.9918C199.799 99.0186 200.023 99.0734 200.239 99.1549C200.631 99.35 200.816 99.7963 201.097 100.13C201.607 100.742 202.42 100.975 203.192 101.173C204.394 102.555 205.64 103.878 206.841 105.259C208.657 107.349 210.514 109.477 212.885 110.893C213.727 111.413 214.649 111.787 215.613 112C215.932 109.925 216.396 107.875 217 105.866Z" fill="#A1616A"/>
<path opacity="0.15" d="M217 105.866L215.785 105.388C213.303 104.383 210.819 103.375 208.416 102.196C206.669 101.339 204.899 100.326 203.812 98.7085C203.462 98.174 203.192 97.6127 202.846 97.0862C202.447 96.523 202.005 95.993 201.523 95.5013L198.278 92C198.03 92.4677 198.347 93.0183 198.601 93.4807C198.867 93.968 199.069 94.4882 199.202 95.0282C199.264 95.2021 199.258 95.3937 199.183 95.5627C199.067 95.7058 198.914 95.8147 198.742 95.8781C198.134 96.2546 197.858 97.0007 198.072 97.6876C198.308 98.3589 198.878 98.8546 199.57 98.9918C199.799 99.0186 200.023 99.0734 200.239 99.1549C200.631 99.35 200.816 99.7963 201.097 100.13C201.607 100.742 202.42 100.975 203.192 101.173C204.394 102.555 205.64 103.878 206.841 105.259C208.657 107.349 210.514 109.477 212.885 110.893C213.727 111.413 214.649 111.787 215.613 112C215.932 109.925 216.396 107.875 217 105.866Z" fill="black"/>
<path d="M215.138 114.211C214.764 114.142 214.343 114.048 214.14 113.716C214.005 113.436 213.966 113.116 214.03 112.809C214.233 110.828 214.66 108.878 215.304 107C215.872 108.086 216.99 108.719 218.05 109.29C218.996 109.832 219.983 110.296 221 110.678C220.745 110.593 220.121 114.636 219.77 114.883C219.326 115.204 218.256 114.77 217.765 114.684L215.138 114.211Z" fill="#9E7E44"/>
<path d="M217.5 113C220.538 113 223 110.538 223 107.5C223 104.462 220.538 102 217.5 102C214.462 102 212 104.462 212 107.5C212 110.538 214.462 113 217.5 113Z" fill="#A1616A"/>
<path d="M216 111.933C216 111.933 219.726 115.13 218.129 117.261C216.532 119.393 215.643 120.815 217.773 120.994C219.902 121.172 227 117.44 227 117.44C227 117.44 220.434 112.111 221.499 108.914C222.563 105.717 216 111.933 216 111.933Z" fill="#FBBEBE"/>
<path d="M219.721 116.904C218.149 117.285 216.925 118.525 216.556 120.11C216.15 121.98 217.013 124.071 216.2 125.793C215.817 126.612 215.106 127.224 214.627 127.993C213.658 129.632 213.824 131.709 215.041 133.171C215.4 133.583 215.862 133.982 215.904 134.526C215.897 134.774 215.873 135.021 215.83 135.265C215.788 135.854 216.061 136.414 216.208 136.985C216.331 137.457 216.336 138.025 216.063 138.405C215.788 138.804 215.662 139.287 215.707 139.771C215.838 140.51 215.531 141.247 215.479 141.994C215.455 142.316 215.479 142.638 215.45 142.961C215.412 143.267 215.349 143.57 215.261 143.866L214.8 145.58C217.301 146.658 219.96 147.046 222.666 146.996C225.088 146.948 227.477 146.444 229.847 145.939C230.568 145.786 231.289 145.633 232 145.435C230.5 143.46 230.34 140.843 230.298 138.358C230.233 134.215 229.926 130.079 229.378 125.973C230.104 124.591 230.427 123.052 230.726 121.518C230.86 120.9 230.916 120.267 230.894 119.635C230.82 118.314 230.217 117.06 229.627 115.864C229.087 114.77 228.502 113.619 227.299 113.146C226.708 112.896 226.031 112.971 225.508 113.344C224.598 114.036 224.868 115.23 224.635 116.249C224.328 117.57 223.119 118.518 221.832 118.89C220.871 119.144 219.876 119.237 218.885 119.167C218.687 119.156 218.512 119.033 218.433 118.85C218.355 118.667 218.385 118.454 218.512 118.301C218.935 117.831 219.359 117.353 219.721 116.904Z" fill="#9E7E44"/>
<path d="M224.628 138C222.571 139.685 220.491 141.386 218.117 142.578C216.723 143.277 215.243 143.794 213.887 144.546C213.551 144.694 213.273 144.947 213.093 145.267C212.985 145.587 212.971 145.932 213.051 146.26L213.654 150.425C213.82 151.554 214.902 152.279 215.769 153C215.721 152.621 215.645 152.327 215.824 151.991C215.887 151.885 215.955 151.784 216.028 151.686C216.398 151.124 216.411 150.396 216.321 149.728C216.232 149.061 216.057 148.404 216.091 147.72C216.076 147.49 216.183 147.269 216.372 147.137C219.325 145.715 222.505 144.623 225.49 143.272C226.28 142.952 227.024 142.529 227.703 142.014C228.385 141.489 228.844 140.725 228.988 139.876C229.015 139.764 228.996 139.647 228.935 139.55C228.875 139.484 228.797 139.438 228.71 139.417C227.372 138.93 225.961 138.482 224.628 138Z" fill="#A1616A"/>
<path opacity="0.1" d="M218.663 121.014C217.613 121.182 216.509 121.701 216.152 122.66C216.024 123.081 215.976 123.52 216.011 123.956C215.978 124.57 216.087 125.184 216.329 125.753C216.508 126.068 216.722 126.363 216.966 126.635C219.479 129.704 220.742 133.56 223.19 136.679C223.408 136.953 223.805 137.311 223.682 137.635C223.638 137.719 223.599 137.806 223.565 137.895C223.543 138.065 223.61 138.235 223.745 138.348C223.875 138.462 223.977 138.603 224.041 138.76C224.088 138.924 223.973 139.136 223.797 139.123C224.09 139.989 224.991 140.495 225.845 140.905C227.265 141.586 228.837 142.123 230.418 141.975C230.714 140.842 231.128 139.562 230.962 138.408C230.788 137.527 230.481 136.674 230.051 135.877L228.987 133.663C228.081 131.773 227.167 129.87 225.905 128.177C225.45 127.641 225.067 127.053 224.765 126.427C224.441 125.626 223.552 125.063 223.013 124.376C222.213 123.339 221.381 122.302 220.309 121.553C219.879 121.237 219.188 120.931 218.663 121.014Z" fill="black"/>
<path d="M218.663 120.014C217.613 120.182 216.509 120.701 216.152 121.658C216.024 122.078 215.977 122.517 216.011 122.954C215.978 123.568 216.087 124.181 216.329 124.751C216.508 125.066 216.721 125.361 216.966 125.633C219.479 128.703 220.741 132.559 223.19 135.678C223.407 135.953 223.805 136.311 223.682 136.635C223.638 136.719 223.599 136.805 223.565 136.894C223.543 137.064 223.61 137.234 223.745 137.348C223.875 137.462 223.977 137.603 224.041 137.76C224.088 137.923 223.973 138.136 223.796 138.123C224.09 138.989 224.991 139.495 225.845 139.904C227.265 140.586 228.837 141.123 230.418 140.975C230.714 139.842 231.128 138.561 230.962 137.407C230.788 136.526 230.481 135.674 230.051 134.877L228.987 132.662C228.081 130.772 227.167 128.869 225.905 127.176C225.449 126.639 225.067 126.05 224.765 125.423C224.441 124.624 223.552 124.061 223.013 123.374C222.213 122.337 221.381 121.3 220.309 120.551C219.879 120.237 219.188 119.931 218.663 120.014Z" fill="#9E7E44"/>
<path d="M216.691 97.3766C215.95 97.4402 215.189 97.5091 214.52 97.8323C213.852 98.1555 213.281 98.7914 213.26 99.5332C213.26 99.965 213.419 100.394 213.364 100.821C213.271 101.531 212.61 102.01 212.271 102.638C211.676 103.73 212.138 105.118 212.907 106.082C213.677 107.047 214.719 107.789 215.51 108.748C216.772 110.299 217.297 112.322 216.948 114.29C216.85 114.668 216.803 115.057 216.807 115.448C216.868 116.142 217.338 116.717 217.805 117.247C220.076 119.899 222.178 122.692 224.098 125.608C224.674 126.455 225.191 127.34 225.647 128.257C226.098 129.206 226.443 130.218 227.069 131.058C227.647 131.779 228.355 132.385 229.157 132.846C231.179 134.091 233.473 134.83 235.843 135L234.476 131.617C234.235 131.015 233.986 130.382 234.065 129.738C234.216 128.52 235.447 127.72 235.848 126.559C236.113 125.812 235.994 124.988 235.776 124.228C235.293 122.514 234.328 120.972 233.808 119.268C233.352 117.774 233.25 116.195 233.511 114.656C233.625 113.977 233.81 113.297 233.726 112.616C233.473 110.544 231.041 109.553 229.916 107.797C229.189 106.668 229.048 105.277 228.804 103.958C228.451 102.032 227.823 100.108 226.608 98.5715C225.392 97.0349 223.519 95.9221 221.567 96.0043C220.522 96.044 219.521 96.407 218.537 96.762L215.98 97.6919" fill="#3F3D56"/>
<g opacity="0.1">
<path d="M228.043 101.918C228.259 103.092 228.395 104.324 228.943 105.373C228.867 104.965 228.804 104.554 228.729 104.152C228.552 103.126 228.27 102.122 227.889 101.154C227.954 101.408 227.998 101.662 228.043 101.918Z" fill="black"/>
<path d="M232.671 112.479C232.416 114 232.516 115.559 232.963 117.035C233.086 117.435 233.224 117.82 233.391 118.212C233.173 117.057 233.162 115.872 233.357 114.712C233.469 114.043 233.652 113.371 233.568 112.699C233.491 112.123 233.257 111.579 232.89 111.129C232.851 111.584 232.746 112.032 232.671 112.479Z" fill="black"/>
<path d="M235.586 124.162C235.442 123.671 235.267 123.188 235.064 122.718C235.152 123.223 235.118 123.741 234.965 124.23C234.571 125.373 233.358 126.165 233.212 127.368C233.134 128.004 233.377 128.629 233.617 129.223C233.705 129.445 233.794 129.67 233.877 129.892C233.871 129.796 233.871 129.699 233.877 129.602C234.026 128.399 235.237 127.609 235.63 126.463C235.912 125.726 235.8 124.913 235.586 124.162Z" fill="black"/>
<path d="M228.394 130.436C227.606 129.98 226.909 129.381 226.341 128.668C225.723 127.839 225.384 126.837 224.94 125.904C224.493 124.998 223.984 124.124 223.417 123.288C221.53 120.409 219.464 117.651 217.231 115.032C217.151 114.94 217.072 114.846 216.994 114.752C216.94 114.994 216.92 115.242 216.934 115.489C216.994 116.174 217.456 116.742 217.915 117.265C220.148 119.883 222.215 122.64 224.103 125.519C224.669 126.355 225.178 127.229 225.626 128.135C226.07 129.071 226.409 130.07 227.024 130.899C227.593 131.611 228.289 132.21 229.077 132.664C231.066 133.894 233.321 134.623 235.651 134.791L234.738 132.542C232.489 132.344 230.317 131.623 228.394 130.436Z" fill="black"/>
<path d="M214.971 106.649C214.188 105.703 213.168 104.983 212.412 104.021C212.344 103.932 212.279 103.84 212.213 103.744C212.198 104.659 212.512 105.55 213.098 106.252C213.854 107.217 214.88 107.936 215.657 108.883C215.96 109.251 216.223 109.651 216.44 110.075C216.278 108.819 215.769 107.632 214.971 106.649Z" fill="black"/>
</g>
<path d="M110.704 78.2829L108.824 76.3088C108.636 76.1112 108.381 76 108.114 76C107.848 76 107.593 76.1112 107.405 76.3088L95.5963 88.5245L90.601 83.271C90.212 82.865 89.5815 82.865 89.1926 83.271L87.2915 85.2343C86.9028 85.6447 86.9028 86.3051 87.2915 86.7155L94.8779 94.6959C95.27 95.1014 95.9018 95.1014 96.294 94.6959L110.704 79.7642C110.894 79.5684 111 79.3017 111 79.0235C111 78.7454 110.894 78.4787 110.704 78.2829Z" fill="#1E1E1F"/>
<path d="M163.704 78.2829L161.824 76.3088C161.636 76.1112 161.381 76 161.114 76C160.848 76 160.593 76.1112 160.405 76.3088L148.596 88.5245L143.601 83.271C143.212 82.865 142.582 82.865 142.193 83.271L140.291 85.2343C139.903 85.6447 139.903 86.3051 140.291 86.7155L147.878 94.6959C148.27 95.1014 148.902 95.1014 149.294 94.6959L163.704 79.7642C163.894 79.5684 164 79.3017 164 79.0235C164 78.7454 163.894 78.4787 163.704 78.2829Z" fill="#1E1E1F"/>
<defs>
<linearGradient id="paint0_linear" x1="246.015" y1="208.998" x2="246.015" y2="90.9947" gradientUnits="userSpaceOnUse">
<stop stop-color="#808080" stop-opacity="0.25"/>
<stop offset="0.54" stop-color="#808080" stop-opacity="0.12"/>
<stop offset="1" stop-color="#808080" stop-opacity="0.1"/>
</linearGradient>
</defs>
</svg>
