
<svg width="412px" height="547px" viewBox="0 0 412 547" version="1.1" xmlns="http://www.w3.org/2000/svg" xmlns:xlink="http://www.w3.org/1999/xlink">
    <g id="Page-1" stroke="none" stroke-width="1" fill="none" fill-rule="evenodd">
        <g id="Pro-Page" transform="translate(-394.000000, -3039.000000)">
            <g id="Group-2" transform="translate(0.000000, 2716.000000)">
                <g id="Iphone-Mockup" transform="translate(395.000000, 324.000000)">
                    <path d="M28.1980571,544.530139 C12.6217406,544.530139 0,532.014881 0,516.569972 L0,27.960167 C0,12.5152586 12.6217406,0 28.1980571,0 L381.801903,4.83639919e-12 C397.37822,4.83639919e-12 409.99996,12.5152586 409.99996,27.960167 L409.99996,516.569972 C410.025878,532.014881 397.37822,544.530139 381.801903,544.530139 L28.1980571,544.530139 Z" id="Shape" stroke="#CBCBCB" transform="translate(205.000000, 272.265070) scale(-1, 1) rotate(-180.000000) translate(-205.000000, -272.265070) "></path>
                    <path d="M202,10.528 C202,12.488 203.596,14.056 205.528,14.056 C207.46,14.056 209.084,12.488 209.084,10.528 C209.084,8.568 207.488,7 205.556,7 C203.624,7 202,8.568 202,10.528 L202,10.528 Z" id="Shape" fill="#DDDDDD" transform="translate(205.500000, 10.500000) scale(-1, 1) rotate(-180.000000) translate(-205.500000, -10.500000) "></path>
                    <path d="M393.5,23.209507 C393.5,22.2846506 392.454047,21.5 391.054688,21.5 L19.9453125,21.5 C18.5459533,21.5 17.5,22.2846506 17.5,23.209507 L17.5,520.790493 C17.5,521.715349 18.5459533,522.5 19.9453125,522.5 L391.054688,522.5 C392.454047,522.5 393.5,521.715349 393.5,520.790493 L393.5,23.209507 Z" id="Shape" stroke="#CBCBCB" transform="translate(205.500000, 272.000000) scale(-1, 1) rotate(-180.000000) translate(-205.500000, -272.000000) "></path>
                </g>
            </g>
        </g>
    </g>
</svg>