
<svg width="74px" height="15px" viewBox="0 0 74 15" version="1.1" xmlns="http://www.w3.org/2000/svg" xmlns:xlink="http://www.w3.org/1999/xlink">
    <defs>
        <polygon id="path-1" points="69 1 74 1 74 15 69 15"></polygon>
    </defs>
    <g id="Page-1" stroke="none" stroke-width="1" fill="none" fill-rule="evenodd">
        <g id="Pro-Page" transform="translate(-563.000000, -3084.000000)">
            <g id="Logo" transform="translate(563.000000, 3084.000000)">
                <polygon id="Fill-1" fill="#999999" points="4.91251164 0 1.08748836 0 0 0 0 1.17055669 0 10.3769122 0 10.6741839 0 13.829049 0 15 1.08748836 15 4.91251164 15 6 15 6 14.74176 4.91251164 14.74176 2.19397703 14.74176 2.19397703 10.6741839 3.99341819 10.6741839 5.08090655 10.6741839 5.08090655 10.3769122 3.99341819 10.3769122 2.19397703 10.3769122 2.19397703 0.317378962 4.91251164 0.317378962 6 0.317378962 6 0"></polygon>
                <polygon id="Fill-2" fill="#999999" points="9 1 9 2.09687294 9 13.9023882 9 15 10.1113564 15 12.8702436 15 14 15 14 14.739174 12.8702436 14.739174 11.2407448 14.739174 11.2407448 2.09687294 11.2407448 1"></polygon>
                <polygon id="Fill-3" fill="#999999" points="23.7920245 0 23.6837657 1.15681334 22.5799577 14.0391709 22.506946 13.5883682 20.3892461 0.961218765 20.2266781 0 18 0 18.0906353 1.1766845 18.3438385 13.803834 18.3438385 14.9801288 18.5434519 14.9801288 18.5434519 13.803834 18.4528166 2.54896358 20.3709032 14.0192997 20.5341905 14.9801288 22.0001798 14.9801288 22.0185227 15 22.0724722 15 22.3440183 14.9801288 22.7421661 14.9801288 22.7241829 14.9216842 22.7421661 14.86285 23.8283505 2.25479246 23.8283505 13.803834 23.8283505 14.9801288 26 14.9801288 26 13.803834 26 1.1766845 26 0"></polygon>
                <path d="M31.8558548,0 L31.8727388,0.0983120497 L31.7517946,1.27610601 L30.1733188,13.8023096 L30,15 L30.2780681,15 L30.4341584,13.8409321 L30.6767358,11.9761242 L33.4856716,11.9761242 L33.7630506,13.9981534 L33.9022569,15 L36,15 L35.8094527,13.6446982 L34.0924597,1.00145647 L33.9539425,0 L31.8558548,0 Z M32.1000732,1.15384615 L33.5294118,11.5384615 L30.7058824,11.5384615 L32.1000732,1.15384615 Z" id="Fill-4" fill="#999999"></path>
                <path d="M42.9994822,14.6153846 C43.7193524,14.6153846 44.1903226,13.8500966 44.4119798,12.3187404 C44.5366363,11.5339496 44.5989645,9.96982871 44.5989645,7.62754801 L44.5989645,7.03856485 C44.62662,2.60246852 44.1003388,0.384615385 43.0201207,0.384615385 L42.9994822,0.384615385 L41.4,0.384615385 L41.4,14.5958819 L42.9994822,14.6153846 Z M39,15 L39,13.8309489 L39.0203694,1.20882006 L39.0203694,0.019687623 L40.2461308,0.019687623 L43,0 C43.3882177,0 43.7568647,0.0594566216 44.1055417,0.178369865 C44.4538193,0.297283108 44.8120819,0.52487203 45.1807289,0.861924137 C45.5489765,1.19897624 45.8609086,1.64155401 46.115327,2.18965744 C46.3697454,2.73815461 46.5806291,3.47762174 46.7483774,4.40884631 C46.9157264,5.34007088 47,6.41383384 47,7.62895393 C47,12.5429846 45.6664004,15 43,15 L40.2261608,15 L39,15 Z" id="Fill-5" fill="#999999"></path>
                <polygon id="Fill-7" fill="#999999" points="57 0 57 0.317387305 55.9128167 0.317387305 53.1941133 0.317387305 53.1941133 10.3767906 54.9936662 10.3767906 56.0812221 10.3767906 56.0812221 10.6744644 54.9936662 10.6744644 53.1941133 10.6744644 53.1941133 14.7421475 55.9128167 14.7421475 57 14.7421475 57 15 55.9128167 15 52.0875559 15 51 15 51 13.8294125 51 10.6744644 51 10.3767906 51 1.17058746 51 0 52.0875559 0 55.9128167 0"></polygon>
                <path d="M62.5294118,11.5384615 L61.0998935,1.15384615 L59.7058824,11.5384615 L62.5294118,11.5384615 Z M65,15 L62.9017919,15 L62.7629221,13.9985175 L62.4858718,11.9764357 L59.67643,11.9764357 L59.4338387,13.8412921 L59.2773949,15 L59,15 L59.1733287,13.8022784 L60.7515507,1.2761392 L60.8728463,0.0983146067 L60.8556168,0 L61.2198484,0 L62.9538249,0 L63.0923501,1.00148252 L64.8090972,13.6450531 L65,15 Z" id="Fill-9" fill="#999999"></path>
                <mask id="mask-2" fill="white">
                    <use xlink:href="#path-1"></use>
                </mask>
                <g id="Clip-12"></g>
                <polygon id="Fill-11" fill="#999999" mask="url(#mask-2)" points="69 1 71.2407448 1 71.2407448 2.09690188 71.2407448 14.7395366 72.8706116 14.7395366 74 14.7395366 74 15 72.8706116 15 70.1113564 15 69 15 69 13.9027287 69 2.09690188"></polygon>
            </g>
        </g>
    </g>
</svg>