<svg width="120" height="24" viewBox="0 0 120 24" fill="none" xmlns="http://www.w3.org/2000/svg">
<path fill-rule="evenodd" clip-rule="evenodd" d="M7.9116 0.841681H1.7514H0V2.62308V16.6337V17.0861V21.8873V23.6693H1.7514H7.9116H9.663V23.2763H7.9116H3.5334V17.0861H6.4314H8.1828V16.6337H6.4314H3.5334V1.32468H7.9116H9.663V0.841681H7.9116Z" fill="#343434"/>
<path fill-rule="evenodd" clip-rule="evenodd" d="M14.584 0.9324V2.7138V21.8868V23.6694H16.396H20.8942H22.7362V23.2458H20.8942H18.2374V2.7138V0.9324H14.584Z" fill="#343434"/>
<path fill-rule="evenodd" clip-rule="evenodd" d="M38.4964 0.59976L38.3158 2.38116L36.4744 22.219L36.3526 21.5248L32.8198 2.07996L32.5486 0.59976H28.834L28.9852 2.41176L29.4076 21.8566V23.668H29.7406V21.8566L29.5894 4.52496L32.7892 22.1884L33.0616 23.668H35.5072L35.5378 23.6986H35.6278L36.0808 23.668H36.745L36.715 23.578L36.745 23.4874L38.557 4.07196V21.8566V23.668H42.1798V21.8566V2.41176V0.59976H38.4964Z" fill="#343434"/>
<path fill-rule="evenodd" clip-rule="evenodd" d="M51.0285 0.59976L51.0579 0.75096L50.8473 2.56236L48.0987 21.8272L47.7969 23.6692H48.2811L48.5529 21.8866L48.9753 19.0186H53.8665L54.3495 22.1284L54.5919 23.6692H58.2447L57.9129 21.5848L54.9231 2.13996L54.6819 0.59976H51.0285ZM51.3909 2.83416L53.8065 18.6562H49.0347L51.3909 2.83416Z" fill="#343434"/>
<path fill-rule="evenodd" clip-rule="evenodd" d="M69.4758 23.1851C70.5222 23.1851 71.2068 22.0079 71.529 19.6523C71.7102 18.4451 71.8008 16.0391 71.8008 12.4361V11.5301C71.841 4.70634 71.076 1.29474 69.5058 1.29474H69.4758H67.1508V23.1551L69.4758 23.1851ZM63.4668 23.6681V21.8867L63.4974 2.65314V0.84114H65.3388L69.4758 0.81114C70.059 0.81114 70.6128 0.90174 71.1366 1.08294C71.6598 1.26414 72.198 1.61094 72.7518 2.12454C73.305 2.63814 73.7736 3.31254 74.1558 4.14774C74.538 4.98354 74.8548 6.11034 75.1068 7.52934C75.3582 8.94834 75.4848 10.5845 75.4848 12.4361C75.4848 19.9241 73.4814 23.6681 69.4758 23.6681H65.3088H63.4668Z" fill="#343434"/>
<path fill-rule="evenodd" clip-rule="evenodd" d="M91.5179 0.841919V1.32492H89.7671H85.3889V16.6333H88.2869H90.0383V17.0863H88.2869H85.3889V23.2765H89.7671H91.5179V23.6689H89.7671H83.6069H81.8555V21.8875V17.0863V16.6333V2.62332V0.841919H83.6069H89.7671H91.5179Z" fill="#343434"/>
<path fill-rule="evenodd" clip-rule="evenodd" d="M101.271 18.6565L98.8551 2.83446L96.4995 18.6565H101.271ZM105.709 23.6689H102.056L101.814 22.1287L101.331 19.0189H96.4395L96.0171 21.8869L95.7447 23.6689H95.2617L95.5635 21.8269L98.3115 2.56266L98.5227 0.75126L98.4927 0.60006H99.1269H102.146L102.387 2.14026L105.377 21.5851L105.709 23.6689Z" fill="#343434"/>
<mask id="mask0" mask-type="alpha" maskUnits="userSpaceOnUse" x="110" y="0" width="10" height="24">
<path fill-rule="evenodd" clip-rule="evenodd" d="M110.902 0.9324H119.054V23.6688H110.902V0.9324Z" fill="white"/>
</mask>
<g mask="url(#mask0)">
<path fill-rule="evenodd" clip-rule="evenodd" d="M110.902 0.9324H114.556V2.7138V23.2458H117.213H119.055V23.6688H117.213H112.714H110.902V21.8868V2.7138V0.9324Z" fill="#343434"/>
</g>
</svg>
