
<svg width="350px" height="280px" viewBox="0 0 350 280" version="1.1" xmlns="http://www.w3.org/2000/svg" xmlns:xlink="http://www.w3.org/1999/xlink">
    <defs>
        <linearGradient x1="49.9899601%" y1="100.007353%" x2="49.9899601%" y2="-0.00193859288%" id="linearGradient-1">
            <stop stop-color="#808080" stop-opacity="0.25" offset="0%"></stop>
            <stop stop-color="#808080" stop-opacity="0.12" offset="54%"></stop>
            <stop stop-color="#808080" stop-opacity="0.1" offset="100%"></stop>
        </linearGradient>
    </defs>
    <g id="Page-1" stroke="none" stroke-width="1" fill="none" fill-rule="evenodd">
        <g id="Pro-Page" transform="translate(-699.000000, -863.000000)">
            <g id="undraw_business_plan_5i9d" transform="translate(673.000000, 852.000000)">
                <ellipse id="Oval" fill="#9E7E44" fill-rule="nonzero" opacity="0.1" cx="194.5" cy="281" rx="144.5" ry="10"></ellipse>
                <path d="M37.4008906,43.0610784 C28.4041689,53.6489601 26.1281727,67.0708357 26.0041493,79.9400655 C25.9169977,89.0149113 27.1505274,98.8580693 34.6857845,105.550473 C44.6043014,114.355736 63.6469153,116.091178 68.5609219,127.342908 C72.9184995,137.341077 62.7787517,147.399901 53.0378899,154.456243 C43.2970282,161.512584 32.1114618,170.152727 33.9315884,180.659733 C35.0846705,187.368986 41.4098619,192.635969 47.7182934,197.057134 C59.7116875,205.48161 73.1933621,212.851342 88.3912517,216.436799 C115.964662,222.933755 145.747028,216.207653 171.584111,206.024146 C187.489269,199.756336 205.955342,192.063104 221.749884,198.509514 C225.919751,200.211258 229.459445,202.782408 233.304169,204.912116 C244.483031,211.068723 258.135657,213.336592 271.422916,215.260742 C290.897936,218.091366 311.365142,220.453589 330.129542,215.348357 C348.893941,210.243124 365.110833,195.311582 362.238184,179.385953 C359.529782,164.383645 342.287183,154.604513 328.547406,144.35698 C323.700439,140.741195 318.76632,135.949353 319.973034,130.68911 C320.931701,126.51731 325.44347,123.61255 329.465849,120.916718 C350.636972,106.649025 366.196876,86.9525995 373.350007,65.3556123 C376.728805,55.1653659 377.948927,43.4250158 370.410318,34.8320501 C364.329821,27.900391 353.908507,24.571038 343.996694,21.8313984 C325.604365,16.7463845 306.752814,12.4499016 287.408522,11.2906937 C268.06423,10.1314858 248.079709,12.3420683 230.907501,19.6781022 C222.67168,23.1995333 215.206814,27.836365 206.890545,31.2263742 C183.279179,40.8504959 155.457722,39.5564963 129.124546,38.0367208 C119.71553,37.4941845 109.880813,36.5304245 101.712031,32.3990613 C94.6728673,28.833823 90.6504881,26.2795218 81.935333,25.8818865 C64.853629,25.1034649 47.1819761,31.5296554 37.4008906,43.0610784 Z" id="Path" fill="#9E7E44" fill-rule="nonzero" opacity="0.1"></path>
                <polygon id="Path" fill="#535461" fill-rule="nonzero" points="165 116.419067 164.628623 117.180687 162.221423 122.09599 136.971149 173.621113 94.1243478 277.953028 88 278 130.870435 173.621113 160.084316 114 162.221423 115.050164 164.628623 116.234534"></polygon>
                <polygon id="Path" fill="#535461" fill-rule="nonzero" points="240 278 235.020456 277.953028 192.689332 173.621113 168.401966 123.448118 165.370214 117.180687 165 116.419067 165.370214 116.234534 168.401966 114.724714 169.859474 114 198.285899 173.621113"></polygon>
                <rect id="Rectangle" fill="#535461" fill-rule="nonzero" x="163" y="100" width="5" height="177"></rect>
                <path d="M164.498427,71 C160.911755,71.0035895 158.005048,74.011491 158.00158,77.7230303 L158.00158,80.1257405 C157.949742,82.5635025 159.176872,84.8393984 161.208809,86.0740279 C163.240745,87.3086574 165.759255,87.3086574 167.791191,86.0740279 C169.823128,84.8393984 171.050258,82.5635025 170.99842,80.1257405 L170.99842,77.7230303 C170.993218,74.0109645 168.08561,71.0035861 164.498427,71 L164.498427,71 Z M169.371849,80.1159734 C169.371849,82.9029913 167.188535,85.1623157 164.495281,85.1623157 C161.802027,85.1623157 159.618713,82.9029913 159.618713,80.1159734 L159.618713,77.7132632 C159.618713,74.9262453 161.802027,72.6669208 164.495281,72.6669208 C167.188535,72.6669208 169.371849,74.9262453 169.371849,77.7132632 L169.371849,80.1159734 Z" id="Shape" fill="#535461" fill-rule="nonzero"></path>
                <polygon id="Path" fill="#000000" fill-rule="nonzero" opacity="0.1" points="199 173 193.341353 173 168.784578 121.897344 168.784578 173 163.314778 173 163.314778 120.520162 138.093668 173 132 173 161.180139 112.27416 163.314778 113.343783 163.314778 98 168.784578 98 168.784578 113.012302 170.258254 112.27416"></polygon>
                <path d="M170.99842,77 L170.99842,79.1531639 C171.050258,81.581201 169.823128,83.8480177 167.791191,85.0777219 C165.759255,86.307426 163.240745,86.307426 161.208809,85.0777219 C159.176872,83.8480177 157.949742,81.581201 158.00158,79.1531639 L158.00158,77 L159.625005,77 L159.625005,79.1531639 C159.625005,81.9290635 161.808319,84.1793747 164.501573,84.1793747 C167.194827,84.1793747 169.378141,81.9290635 169.378141,79.1531639 L169.378141,77 L170.99842,77 Z" id="Path" fill="#000000" fill-rule="nonzero" opacity="0.1"></path>
                <rect id="Rectangle" fill="#535461" fill-rule="nonzero" x="60" y="78" width="209" height="94"></rect>
                <rect id="Rectangle" fill="#FFFFFF" fill-rule="nonzero" x="63" y="81" width="202" height="86"></rect>
                <g id="Group" opacity="0.2" transform="translate(83.000000, 89.000000)" fill="#9E7E44" fill-rule="nonzero">
                    <rect id="Rectangle" x="0.273333333" y="0.214285714" width="9.46333333" height="4.61785714"></rect>
                </g>
                <g id="Group" opacity="0.2" transform="translate(83.000000, 97.000000)" fill="#9E7E44" fill-rule="nonzero">
                    <rect id="Rectangle" x="0.273333333" y="0.217857143" width="9.46333333" height="4.61785714"></rect>
                </g>
                <g id="Group" opacity="0.2" transform="translate(83.000000, 107.000000)" fill="#9E7E44" fill-rule="nonzero">
                    <rect id="Rectangle" x="0.273333333" y="0.217857143" width="9.46333333" height="4.61785714"></rect>
                </g>
                <g id="Group" opacity="0.2" transform="translate(83.000000, 114.000000)" fill="#9E7E44" fill-rule="nonzero">
                    <rect id="Rectangle" x="0.273333333" y="0.217857143" width="9.46333333" height="4.61785714"></rect>
                </g>
                <g id="Group" opacity="0.2" transform="translate(83.000000, 122.000000)" fill="#9E7E44" fill-rule="nonzero">
                    <rect id="Rectangle" x="0.273333333" y="0.221428571" width="9.46333333" height="4.61785714"></rect>
                </g>
                <g id="Group" opacity="0.2" transform="translate(83.000000, 132.000000)" fill="#9E7E44" fill-rule="nonzero">
                    <rect id="Rectangle" x="0.273333333" y="0.221428571" width="9.46333333" height="4.61785714"></rect>
                </g>
                <g id="Group" opacity="0.2" transform="translate(83.000000, 139.000000)" fill="#9E7E44" fill-rule="nonzero">
                    <rect id="Rectangle" x="0.273333333" y="0.221428571" width="9.46333333" height="4.61785714"></rect>
                </g>
                <g id="Group" opacity="0.2" transform="translate(83.000000, 148.000000)" fill="#9E7E44" fill-rule="nonzero">
                    <rect id="Rectangle" x="0.273333333" y="0.221428571" width="9.46333333" height="4.61785714"></rect>
                </g>
                <g id="Group" opacity="0.2" transform="translate(101.000000, 153.000000)" fill="#9E7E44" fill-rule="nonzero">
                    <rect id="Rectangle" x="0.0931034483" y="0.2" width="9.78965517" height="4.61785714"></rect>
                </g>
                <g id="Group" opacity="0.2" transform="translate(118.000000, 153.000000)" fill="#9E7E44" fill-rule="nonzero">
                    <rect id="Rectangle" x="0.0965517241" y="0.2" width="9.78965517" height="4.61785714"></rect>
                </g>
                <g id="Group" opacity="0.2" transform="translate(134.000000, 153.000000)" fill="#9E7E44" fill-rule="nonzero">
                    <rect id="Rectangle" x="0.0965517241" y="0.2" width="9.78965517" height="4.61785714"></rect>
                </g>
                <g id="Group" opacity="0.2" transform="translate(152.000000, 153.000000)" fill="#9E7E44" fill-rule="nonzero">
                    <rect id="Rectangle" x="0.1" y="0.2" width="9.78965517" height="4.61785714"></rect>
                </g>
                <g id="Group" opacity="0.2" transform="translate(169.000000, 153.000000)" fill="#9E7E44" fill-rule="nonzero">
                    <rect id="Rectangle" x="0.1" y="0.2" width="9.78965517" height="4.61785714"></rect>
                </g>
                <g id="Group" opacity="0.2" transform="translate(186.000000, 153.000000)" fill="#9E7E44" fill-rule="nonzero">
                    <rect id="Rectangle" x="0.103448276" y="0.2" width="9.78965517" height="4.61785714"></rect>
                </g>
                <g id="Group" opacity="0.2" transform="translate(202.000000, 153.000000)" fill="#9E7E44" fill-rule="nonzero">
                    <rect id="Rectangle" x="0.103448276" y="0.2" width="9.78965517" height="4.61785714"></rect>
                </g>
                <g id="Group" opacity="0.2" transform="translate(219.000000, 153.000000)" fill="#9E7E44" fill-rule="nonzero">
                    <rect id="Rectangle" x="0.106896552" y="0.2" width="9.78965517" height="4.61785714"></rect>
                </g>
                <g id="Group" opacity="0.2" transform="translate(235.000000, 153.000000)" fill="#9E7E44" fill-rule="nonzero">
                    <rect id="Rectangle" x="0.106896552" y="0.2" width="9.78965517" height="4.61785714"></rect>
                </g>
                <rect id="Rectangle" fill="#9E7E44" fill-rule="nonzero" x="101" y="121" width="10" height="27"></rect>
                <rect id="Rectangle" fill="#9E7E44" fill-rule="nonzero" x="118" y="109" width="10" height="39"></rect>
                <rect id="Rectangle" fill="#9E7E44" fill-rule="nonzero" x="134" y="97" width="10" height="50"></rect>
                <rect id="Rectangle" fill="#9E7E44" fill-rule="nonzero" x="152" y="105" width="10" height="45"></rect>
                <rect id="Rectangle" fill="#9E7E44" fill-rule="nonzero" x="169" y="94" width="10" height="55"></rect>
                <g id="Group" opacity="0.2" transform="translate(186.000000, 115.000000)" fill="#9E7E44" fill-rule="nonzero">
                    <rect id="Rectangle" x="0.103448276" y="0.205346535" width="9.78965517" height="33.6667327"></rect>
                </g>
                <g id="Group" opacity="0.2" transform="translate(202.000000, 115.000000)" fill="#9E7E44" fill-rule="nonzero">
                    <rect id="Rectangle" x="0.103448276" y="0.205346535" width="9.78965517" height="33.6667327"></rect>
                </g>
                <g id="Group" opacity="0.2" transform="translate(219.000000, 115.000000)" fill="#9E7E44" fill-rule="nonzero">
                    <rect id="Rectangle" x="0.106896552" y="0.205346535" width="9.78965517" height="33.6667327"></rect>
                </g>
                <g id="Group" opacity="0.2" transform="translate(235.000000, 115.000000)" fill="#9E7E44" fill-rule="nonzero">
                    <rect id="Rectangle" x="0.106896552" y="0.205346535" width="9.78965517" height="33.6667327"></rect>
                </g>
                <polygon id="Path" fill="#535461" fill-rule="nonzero" points="235.268326 115 154 119.556345 154 121 237 118"></polygon>
                <path d="M330.692271,148.153705 C330.692271,148.153705 334.937329,141.127713 333.809319,130.105101 C332.681308,119.082488 328.599778,101.242111 328.599778,101.242111 C328.599778,101.242111 330.37189,91.247201 320.760438,89.843346 C320.760438,89.843346 314.786654,88.7249639 310.514897,86.0213676 C308.926338,85.0138162 307.574727,83.794679 306.843857,82.3270124 C306.843857,82.3270124 306.787122,82.4915792 306.676991,82.7938446 C306.582506,82.6427199 306.495626,82.4869127 306.416681,82.3270124 C306.416681,82.3270124 306.39332,82.3874655 306.356609,82.4949377 L304.724665,79.9357571 C304.724665,79.9357571 304.501065,80.1742109 304.123949,80.567156 C303.467605,79.6189751 302.908525,78.6062402 302.455294,77.5445017 C302.861069,77.4458855 303.259243,77.31793 303.646714,77.1616322 C304.017197,77.0382996 304.351077,76.823536 304.617871,76.5369503 C304.851738,76.2101227 305.002941,75.8308662 305.058396,75.4320022 C305.318539,74.1554586 305.392737,72.8476158 305.278658,71.5495708 C305.188551,70.5420194 304.984975,69.5344679 305.055059,68.510124 C305.128479,67.41861 305.51227,66.3640395 305.565667,65.2691669 C305.659112,63.3413852 304.707978,61.5076416 303.533245,59.979522 C302.83241,59.0693672 302.044805,58.223024 301.437415,57.2490577 C300.91012,56.4027145 300.526329,55.4690501 299.958987,54.6462165 C298.624063,52.7318688 296.398077,51.6034112 294.115358,51.2037491 C291.832638,50.8040871 289.483172,51.0526164 287.197115,51.4321275 C285.194729,51.7679779 283.192343,52.2549611 281.189957,52.3725088 C279.441207,52.4732639 278.016176,51.8788086 276.414267,53.0442097 C275.340829,53.8406543 274.661869,55.0651568 274.552048,56.4027145 C274.52602,56.6277787 274.543012,56.855776 274.602108,57.0744154 C274.696625,57.3009488 274.808193,57.519888 274.935839,57.7293238 C275.646686,59.1398958 274.565398,60.8157897 274.705565,62.3909284 C274.881499,63.8249585 276.01474,64.9487073 277.442159,65.1046002 C277.37875,65.2389404 277.308666,65.3699221 277.248595,65.5076208 C275.45057,69.5955376 275.711208,74.3034832 277.94933,78.1651063 C280.187452,82.0267294 284.131133,84.5728545 288.552062,85.0104577 L289.172802,85.4907239 C290.574472,86.5822379 292.149682,87.8886963 293.668158,89.3093438 L293.638122,89.3328533 L293.391161,89.1917961 C292.928866,89.5597313 292.442772,89.8963243 291.936094,90.1993475 C290.531087,91.0658417 288.265054,92.1909408 285.715349,92.318564 C285.715349,92.318564 281.14991,94.7534799 279.578037,102.783665 C277.322015,104.818919 272.492928,108.493123 266.111992,109.450297 C257.144641,110.793698 246.088134,111.233663 246.088134,111.233663 C246.088134,111.233663 245.998027,111.394871 245.871209,111.690419 L244.849992,111.502343 C244.849992,111.502343 244.849992,111.626608 244.806607,111.838193 L244.40613,111.656834 C241.239023,110.263055 234.911484,108.231159 234.11053,113.829787 C233.035916,121.339403 240.15106,120.476268 240.15106,120.476268 C241.558028,119.938319 242.999739,119.497337 244.466202,119.156375 L244.863342,119.07913 C244.930815,119.274981 245.025174,119.460375 245.143676,119.629924 L246.111496,119.629924 C246.447687,120.329957 246.85358,120.993862 247.322939,121.611442 L269.876478,121.114384 C269.876478,121.114384 273.73107,120.26804 277.288642,120.805401 C275.736793,132.479564 273.90461,145.282184 273.90461,145.282184 C273.90461,145.282184 270.066704,165.557477 272.753238,167.676693 C274.312501,167.153151 275.901721,166.724724 277.512242,166.393744 C277.536687,167.64659 277.668442,168.894981 277.906045,170.125043 L279.624759,181.446562 C279.624759,181.446562 280.292221,193.013253 282.524881,199.918338 L284.493894,209.355737 L286.142525,216.489201 L287.070297,228.59661 C288.344364,233.725621 289.265422,238.93695 289.826915,244.193506 C290.697952,252.327805 295.42692,265.472992 296.057672,267.202622 C294.442414,269.503198 291.125128,273.40578 286.963503,273.808801 C281.023092,274.386464 280.879587,277.990139 285.031201,279.286522 C289.182814,280.582905 297.919891,279.286522 297.919891,279.286522 L310.241238,276.220207 C309.870796,278.507349 309.677232,280.314225 309.947555,280.509018 C310.73516,281.086681 322.69274,284.203373 323.123253,279.212635 C323.156626,278.800658 323.186662,278.400996 323.21336,278.013649 C323.39135,274.816573 322.96672,271.614471 321.961869,268.576251 C321.865087,268.277344 321.778317,267.975078 321.701559,267.672813 C321.878917,267.473282 322.041755,267.261146 322.188806,267.038055 C322.188806,267.038055 323.049832,253.563734 323.693933,248.734205 C323.743993,248.347977 323.777366,247.877786 323.794052,247.347142 C324.091073,241.55708 321.991905,226.326261 321.991905,226.326261 C321.991905,226.326261 319.398815,216.418672 319.495597,211.86454 C319.510458,211.486112 319.574408,211.111262 319.685824,210.749516 C319.685824,210.749516 319.685824,210.658837 319.652451,210.507704 C319.652451,210.443892 319.682487,210.376722 319.702511,210.316269 C319.702511,210.316269 318.387611,201.248306 318.571163,195.854548 C318.596828,195.049933 318.70872,194.250456 318.904894,193.470009 C319.113565,192.445481 319.219776,191.402501 319.221938,190.356675 C319.388804,186.66232 319.19524,180.281161 318.928255,174.296306 C318.958291,174.195551 318.988326,174.094796 319.011688,173.977248 C319.065528,173.500658 319.009572,173.017993 318.848159,172.566676 C318.828136,172.180448 318.811449,171.797578 318.791425,171.418067 C318.901556,171.038556 318.991664,170.635536 319.071759,170.219081 L319.245299,170.219081 L319.245299,170.242591 C319.245299,170.242591 330.465334,169.701871 333.045075,166.675859 C333.045075,166.675859 330.438636,158.524768 328.993581,151.898438 L330.692271,148.153705 Z M282.341329,122.800353 L282.164452,122.736541 C282.448123,121.72899 282.785191,120.556872 283.165645,119.327659 C282.841926,120.657627 282.561592,121.866689 282.341329,122.800353 Z M293.72823,89.3865894 L293.778289,89.4336084 L293.724892,89.4033819 L293.72823,89.3865894 Z M307.74493,264.203477 C307.140877,262.111129 304.741351,253.580527 304.81811,249.513378 C304.834869,249.159869 304.896555,248.809976 305.001662,248.472241 C305.224174,247.735151 305.336645,246.968886 305.335393,246.198534 C305.575679,241.953384 303.960421,234.34637 303.960421,234.34637 C303.960421,234.34637 300.346115,224.086138 300.623111,215.938406 C300.623111,215.733537 300.646473,215.528668 300.659822,215.3238 C300.719893,214.551343 300.766616,213.715076 300.799989,212.831789 L300.799989,212.814997 C300.936818,209.668078 300.906783,205.879684 300.816675,202.346537 L300.796651,202.215556 C300.673171,197.537159 300.442897,193.325594 300.346115,191.659775 C300.679846,194.067823 302.815724,209.05683 303.736821,211.508538 C303.736821,211.508538 304.240755,218.423699 306.530149,224.270856 L309.039806,239.471449 C309.039806,239.471449 309.683907,257.560355 310.755183,262.675358 C311.235756,264.952424 311.642908,266.487261 311.946603,267.488095 C311.512753,269.526707 310.811918,272.942307 310.341357,275.770168 C310.06436,273.926349 309.089866,266.900357 307.748267,264.203477 L307.74493,264.203477 Z" id="Shape" fill="url(#linearGradient-1)" fill-rule="nonzero"></path>
                <path d="M298.381332,264.350923 C298.381332,264.350923 294.03679,271.689618 287.926736,272.238004 C281.816683,272.78639 281.671288,276.215416 285.939671,277.450897 C290.208054,278.686379 299.19139,277.450897 299.19139,277.450897 L312,274.502516 C312,274.502516 310.452581,262.70254 308.392818,262.086412 C306.333055,261.470284 298.381332,264.350923 298.381332,264.350923 Z" id="Path" fill="#4C4C78" fill-rule="nonzero"></path>
                <path d="M312.405187,265.884445 C312.405187,265.884445 309.355338,279.96495 310.124317,280.536866 C310.893296,281.108783 322.457306,284.162346 322.874379,279.255908 C322.906963,278.843415 322.936288,278.44876 322.962355,278.071942 C323.133116,274.91646 322.721873,271.756257 321.750236,268.757403 C321.424397,267.754041 321.19631,266.680445 321.281028,265.884445 C321.473273,263.894444 312.405187,265.884445 312.405187,265.884445 Z" id="Path" fill="#4C4C78" fill-rule="nonzero"></path>
                <path d="M308,86.2875769 C308,86.2875769 298.269171,110.145777 300.00113,102.48287 C301.146731,97.4080964 293.740997,90.6654146 288.619686,86.7037083 C286.013275,84.6737991 284,83.3848067 284,83.3848067 C284,83.3848067 302.268606,62.1248905 300.973874,71.2966971 C300.618758,73.808687 300.963518,76.3697797 301.970343,78.6990995 C303.987007,83.482919 308,86.2875769 308,86.2875769 Z" id="Path" fill="#FFB9B9" fill-rule="nonzero"></path>
                <path d="M247,119.424355 C246.475138,119.284354 245.618784,119.374098 244.731353,119.571536 C243.228209,119.932419 241.750363,120.398966 240.308009,120.96796 C240.308009,120.96796 233.011736,121.883353 234.113255,113.928404 C234.931626,107.99809 241.419888,110.151957 244.669198,111.623766 C245.774171,112.129925 246.506215,112.553519 246.506215,112.553519 L247,119.424355 Z" id="Path" fill="#FFB9B9" fill-rule="nonzero"></path>
                <path d="M247,119.87037 C246.607007,119.747064 245.965808,119.826107 245.30134,120 C244.70668,118.166215 245.159139,113.81888 245.254801,113 C246.082155,113.445799 246.630276,113.81888 246.630276,113.81888 L247,119.87037 Z" id="Path" fill="#000000" fill-rule="nonzero" opacity="0.1"></path>
                <path d="M246.588618,113.291667 L245.250417,113 C245.250417,113 244.565587,118.541667 245.460948,120 L247,120 L246.588618,113.291667 Z" id="Path" fill="#CBCDDA" fill-rule="nonzero"></path>
                <path d="M284.508636,125.277918 C284.508636,125.277918 278.844805,121.878208 278.167827,126.169038 C277.490848,130.459869 276.599381,137.790598 276.599381,137.790598 L275.030936,147.122145 L273,165.818867 L273.284867,169 C273.284867,169 279.31735,166.962192 280.731632,167.678451 C282.145914,168.39471 283.298788,159.81305 283.298788,159.81305 L285.644754,150.945558 L286,132.141229 L284.508636,125.277918 Z" id="Path" fill="#4C4C78" fill-rule="nonzero"></path>
                <path d="M284.508636,125.277918 C284.508636,125.277918 278.844805,121.878208 278.167827,126.169038 C277.490848,130.459869 276.599381,137.790598 276.599381,137.790598 L275.030936,147.122145 L273,165.818867 L273.284867,169 C273.284867,169 279.31735,166.962192 280.731632,167.678451 C282.145914,168.39471 283.298788,159.81305 283.298788,159.81305 L285.644754,150.945558 L286,132.141229 L284.508636,125.277918 Z" id="Path" fill="#000000" fill-rule="nonzero" opacity="0.1"></path>
                <path d="M281,102 C281,102 275.068635,108.63202 266.063376,109.966471 C257.058117,111.300922 245.946108,111.733445 245.946108,111.733445 C245.946108,111.733445 243.142743,116.705784 247.187163,122 L269.84403,121.503772 C269.84403,121.503772 274.858975,120.424141 278.744458,121.503772 L281,102 Z" id="Path" fill="#4C4C78" fill-rule="nonzero"></path>
                <path d="M281,102 C281,102 275.068635,108.63202 266.063376,109.966471 C257.058117,111.300922 245.946108,111.733445 245.946108,111.733445 C245.946108,111.733445 243.142743,116.705784 247.187163,122 L269.84403,121.503772 C269.84403,121.503772 274.858975,120.424141 278.744458,121.503772 L281,102 Z" id="Path" fill="#000000" fill-rule="nonzero" opacity="0.05"></path>
                <g id="Group"></g>
                <path d="M300.968261,79.1066957 C298.756774,83.6505386 294.912032,87 289.335974,87 C289.089126,87 288.849041,87 288.608956,86.983772 C286.008598,85.0364107 284,83.7998363 284,83.7998363 C284,83.7998363 302.226171,63.4044727 300.934446,72.2033 C300.535431,74.8971497 300.078932,77.0846856 300.968261,79.1066957 Z" id="Path" fill="#000000" fill-rule="nonzero" opacity="0.1"></path>
                <path d="M303.999938,70.5098695 C303.994092,77.9648487 297.49893,84.0042306 289.491738,83.9999978 C281.484546,83.9957649 274.996755,77.9495198 275.000001,70.4945392 C275.003248,63.0395586 281.496303,56.9982135 289.503496,57.0000258 C293.352942,56.9930173 297.046686,58.4145424 299.767336,60.9500303 C302.487986,63.4855182 304.011212,66.9259071 303.999938,70.5098695 Z" id="Path" fill="#FFB9B9" fill-rule="nonzero"></path>
                <path d="M313,156.090631 C313,156.090631 282.314453,158.790661 281.18936,154.885797 C280.064268,150.980934 284.320197,140.407765 284.320197,140.407765 L282.933923,125.646046 L282.883696,125.08201 C282.883696,125.08201 286.72776,109.112119 286.587124,107.837198 C286.453184,106.689102 292.77513,93.2890786 294.074344,90.5489991 C294.228374,90.2319375 294.308738,90.0583881 294.308738,90.0583881 L294.553178,90.1985626 L294.660329,90.261975 L296.1638,91.1363974 L302.10067,89.7346515 L309.25639,86 L309.926088,126.854217 L313,156.090631 Z" id="Path" fill="#CBCDDA" fill-rule="nonzero"></path>
                <path d="M296.805333,90.0692175 C296.805333,90.0692175 294.894476,89.5093168 294.14781,91.5743622 C293.85557,92.4620668 293.509421,93.3279532 293.111619,94.1663729 L292.368,98.9617574 L291.005714,106.536884 L290,140.048585 L290.454095,146 L292.950095,141.204616 L293.40419,109.87982 L293.40419,105.98357 C293.550339,102.614911 294.254306,99.3018757 295.482667,96.2017765 L295.830095,95.3224031 L298,92.3088201 L296.805333,90.0692175 Z" id="Path" fill="#000000" fill-rule="nonzero" opacity="0.1"></path>
                <path d="M295.802742,90.0692094 C295.802742,90.0692094 293.889566,89.5093745 293.14623,91.574177 C292.853545,92.4620448 292.506497,93.3278617 292.107388,94.1658829 L291.364052,98.9639965 L290.002285,106.538232 L289,140.045992 L289.453922,146 L291.948972,141.188714 L292.402894,109.887362 L292.402894,105.981691 C292.551919,102.613863 293.2555,99.3017725 294.480579,96.2010471 L294.830922,95.3217771 L297,92.3118417 L295.802742,90.0692094 Z" id="Path" fill="#4C4C78" fill-rule="nonzero"></path>
                <path d="M305.085911,82 C305.085911,82 297.632302,89.4082027 295,90.2875242 C295,90.2875242 296.316151,95.9048744 297.632302,97 C297.632302,97 305.453608,89.5241572 306.838488,88.9186171 L308,86.2548851 L305.085911,82 Z" id="Path" fill="#000000" fill-rule="nonzero" opacity="0.1"></path>
                <path d="M305.085911,81 C305.085911,81 297.632302,88.4082027 295,89.2875242 C295,89.2875242 296.316151,94.9048744 297.632302,96 C297.632302,96 305.453608,88.5241572 306.838488,87.9186171 L308,85.2581061 L305.085911,81 Z" id="Path" fill="#CBCDDA" fill-rule="nonzero"></path>
                <path d="M295,90 L294.925403,90.2026266 L292.568805,96.4941839 L288.354055,108.364728 C288.354055,108.364728 288.316756,108.486304 288.242159,108.702439 C287.543656,110.86379 283.790054,122.592495 283.050862,126 L283,125.429268 C283,125.429268 286.892625,109.269794 286.750212,107.979737 C286.61458,106.818011 293.016389,93.2589118 294.332015,90.4863039 C294.542244,90.3444653 294.705001,90.2228893 294.816897,90.1317073 L295,90 Z" id="Path" fill="#000000" fill-rule="nonzero" opacity="0.1"></path>
                <path d="M294,89 L291.647508,95.4814719 L287.574879,107.322622 C287.574879,107.322622 287.538838,107.443897 287.466756,107.659497 C286.75249,109.956984 282.67986,123.071521 282.352215,125.47007 C281.981976,128.104431 276.860883,142.344131 276.860883,142.344131 L273.935012,167 C271.313851,164.908007 275.035899,144.766261 275.035899,144.766261 C275.035899,144.766261 279.216651,114.895569 280.20614,104.957761 C281.195628,95.0199534 286.532967,92.1160923 286.532967,92.1160923 C288.996859,91.9880798 291.218293,90.8696554 292.584573,90.0106245 C293.077963,89.7068808 293.550847,89.3692384 294,89 Z" id="Path" fill="#4C4C78" fill-rule="nonzero"></path>
                <path d="M323.891175,249.203518 C323.26618,253.974962 322.431762,267.284778 322.431762,267.284778 C319.509665,271.768261 313.037203,269.347381 313.037203,269.347381 C313.037203,269.347381 312.343492,268.008029 311.299652,262.938579 C310.255812,257.869129 309.630817,240.01221 309.630817,240.01221 L307.193009,225.011461 C304.967896,219.242199 304.480334,212.408152 304.480334,212.408152 C303.498667,209.772976 301.139392,192.471888 301.139392,192.471888 C301.139392,192.471888 302.12106,207.991637 301.48952,216.181778 C300.857981,224.37192 304.686484,235.391444 304.686484,235.391444 C304.686484,235.391444 306.846153,245.717852 305.730324,248.922254 C304.614496,252.126655 308.514988,265.366156 308.514988,265.366156 C308.187766,269.213446 297.108011,267.646404 297.108011,267.646404 C297.108011,267.646404 291.895356,253.332072 290.982405,244.716686 C290.435303,239.525692 289.539872,234.379358 288.302452,229.314131 L287.399318,217.350364 L285.795928,210.278582 L283.884948,200.953339 C281.72528,194.119292 281.067562,182.691266 281.067562,182.691266 L279.395455,171.477536 C278.302532,165.932616 279.722678,159.423362 280.665079,156.018058 C281.074107,154.541422 281.401329,153.640707 281.401329,153.640707 C282.360091,154.33717 287.850885,155.154175 290.691177,155.817155 C292.24562,156.183755 293.844273,156.314624 295.435904,156.205567 C302.616798,155.622124 309.720621,154.28924 316.636651,152.22769 C317.104579,152.08371 317.353269,152 317.353269,152 L317.500519,153.28243 L317.847375,156.336154 L318.465825,161.757184 C318.465825,161.757184 320.344082,190.663762 319.231526,194.571324 C318.118969,198.478885 319.997227,211.64807 319.997227,211.64807 C318.953387,214.77211 322.22234,227.469173 322.22234,227.469173 C322.22234,227.469173 324.519442,244.432074 323.891175,249.203518 Z" id="Path" fill="#000000" fill-rule="nonzero" opacity="0.1"></path>
                <path d="M323.891175,248.199494 C323.26618,252.971562 322.431762,266.283121 322.431762,266.283121 C319.509665,270.770539 313.037203,268.345994 313.037203,268.345994 C313.037203,268.345994 312.343492,267.006466 311.299652,261.939701 C310.255812,256.872937 309.630817,239.006984 309.630817,239.006984 L307.193009,223.984178 C304.984257,218.214162 304.480334,211.362476 304.480334,211.362476 C303.498667,208.726955 301.139392,191.423603 301.139392,191.423603 C301.139392,191.423603 302.12106,206.945383 301.48952,215.136596 C300.857981,223.327809 304.686484,234.362171 304.686484,234.362171 C304.686484,234.362171 306.846153,244.689931 305.730324,247.894751 C304.614496,251.099572 308.514988,264.344154 308.514988,264.344154 C308.187766,268.188599 297.108011,266.621352 297.108011,266.621352 C297.108011,266.621352 291.895356,252.321891 290.982405,243.702029 C290.435303,238.510355 289.539872,233.363348 288.302452,228.297458 L287.399318,216.335474 L285.795928,209.286208 L283.884948,199.959745 C281.72528,193.121455 281.067562,181.691933 281.067562,181.691933 L279.395455,170.476736 C278.302532,164.93109 279.722678,158.420985 280.665079,155.015235 C281.074107,153.541754 281.401329,152.640922 281.401329,152.640922 C282.360091,153.337476 287.850885,154.151239 290.691177,154.814306 C292.245372,155.182598 293.844263,155.313503 295.435904,155.202769 C302.616798,154.61925 309.720621,153.286191 316.636651,151.224371 L317.353269,151 L317.500519,152.279249 L317.847375,155.336722 L318.465825,160.758461 C318.465825,160.758461 320.344082,189.665473 319.231526,193.576895 C318.118969,197.488316 319.997227,210.655875 319.997227,210.655875 C318.953387,213.776975 322.22234,226.4757 322.22234,226.4757 C322.22234,226.4757 324.519442,243.420728 323.891175,248.199494 Z" id="Path" fill="#474463" fill-rule="nonzero"></path>
                <path d="M302.986777,70.9245645 C302.990942,73.3600465 302.37078,75.7538835 301.18843,77.8662181 C299.072727,78.2492293 296.821488,77.8255444 295.238017,76.3917946 C294.153719,75.4122351 293.452893,74.0733908 292.520661,72.9379152 C291.917223,72.2401221 291.268944,71.5844896 290.580165,70.9754067 C290.130436,70.516052 289.614145,70.1307497 289.049587,69.8331522 C288.474159,69.5351234 287.796454,69.5276114 287.214876,69.8128153 C286.467769,70.2398897 286.22314,71.1923334 285.790083,71.9515767 C285.464375,72.6033686 284.907009,73.1020466 284.233058,73.3446527 C283.541329,73.5715256 282.7862,73.3088593 282.371901,72.6972622 C281.912397,71.8871766 282.249587,70.6229008 281.479339,70.1280369 C281.276166,70.0251729 281.066299,69.9368358 280.85124,69.8636575 C279.859504,69.4026883 279.743802,68.0367281 279.657851,66.9181999 C279.614876,66.3691043 279.499174,65.7488296 279.049587,65.4539449 C278.6,65.1590602 278.008264,65.3081973 277.472727,65.3183657 C277.314275,65.3247602 277.155634,65.3122481 277,65.2810814 C279.601828,59.2676014 285.95268,55.9408689 292.229767,57.3033549 C298.506855,58.6658409 302.998069,64.3459204 303,70.9245645 L302.986777,70.9245645 Z" id="Path" fill="#000000" fill-rule="nonzero" opacity="0.1"></path>
                <path d="M275.87051,54.0805458 C274.79653,54.8847977 274.118467,56.1217856 274.011449,57.4720245 C273.985979,57.6950296 274.0031,57.9209268 274.061875,58.1373548 C274.155711,58.3670478 274.268155,58.5884462 274.398053,58.7992732 C275.104025,60.2220565 274.024896,61.9075601 274.162728,63.494117 C274.356161,65.0442034 275.648889,66.2104457 277.188326,66.2236773 C277.732933,66.2236773 278.331329,66.0599037 278.791892,66.3601554 C279.252455,66.660407 279.366756,67.281382 279.410459,67.834118 C279.497865,68.9600616 279.608804,70.3350776 280.620698,70.7991029 C280.838756,70.8745172 281.052066,70.9633937 281.259435,71.065235 C282.04609,71.5633798 281.703189,72.8394492 282.170476,73.6514934 C282.591792,74.2671452 283.35971,74.5315529 284.063155,74.303176 C284.747204,74.0599571 285.312917,73.5590973 285.643189,72.9042763 C286.076858,72.1365874 286.335715,71.1983011 287.095476,70.7513356 C287.686038,70.4615987 288.375939,70.4679068 288.961261,70.7683953 C289.535496,71.0691935 290.060517,71.4581908 290.517763,71.9216346 C291.219019,72.5338618 291.878335,73.1938986 292.491125,73.8971539 C293.439145,75.0367453 294.151842,76.3844657 295.254504,77.3705194 C297.332081,79.2232085 300.51232,79.4176897 303.073992,78.3497492 C303.443719,78.2246177 303.777394,78.0090031 304.045545,77.7219503 C304.2794,77.3918429 304.43055,77.0089131 304.485937,76.6062425 C304.746055,75.3218103 304.820796,74.0058187 304.707815,72.6995593 C304.617047,71.6759741 304.411978,70.652389 304.482576,69.6288039 C304.553173,68.5301558 304.939777,67.4690393 304.993565,66.3703912 C305.087695,64.4255795 304.136313,62.5797143 302.976501,61.0409246 C302.277251,60.12311 301.490596,59.2735343 300.885477,58.2908926 C300.357678,57.437905 299.974436,56.4996186 299.409657,55.6739266 C298.085118,53.7461746 295.8529,52.6031712 293.573616,52.203973 C291.294333,51.8047748 288.951176,52.0504353 286.668531,52.4359857 C284.67836,52.7771807 282.674742,53.2616777 280.657677,53.3810959 C278.892746,53.5073381 277.470715,52.9034229 275.87051,54.0805458 Z" id="Path" fill="#472727" fill-rule="nonzero"></path>
                <path d="M293,90 L290.839519,96.2467532 L287.099298,107.659091 C287.099298,107.659091 287.066199,107.775974 287,107.983766 L287,108 L291.706118,90.9675325 C292.156996,90.6766339 292.589263,90.353396 293,90 L293,90 Z" id="Path" fill="#000000" fill-rule="nonzero" opacity="0.1"></path>
                <path d="M319.991509,163.107367 C319.991509,163.107367 320.224349,171.013323 318.251498,173 L313,162.312696 L317.405091,160 L319.991509,163.107367 Z" id="Path" fill="#FFB9B9" fill-rule="nonzero"></path>
                <path d="M333,166.42872 C330.427771,169.457355 319.232194,170 319.232194,170 L308.15079,152.36405 C308.15079,152.36405 305.528191,150.525841 300.602003,142.247119 C295.675815,133.968397 295.836999,127.592323 296.112355,122.830616 C296.387711,118.06891 299.470356,104.384091 299.470356,104.384091 C299.95055,101.304582 306.857959,82 306.857959,82 C307.583287,83.4617489 308.933204,84.6826993 310.511465,85.6899834 C314.776126,88.4032065 320.729863,89.515628 320.729863,89.515628 C330.320315,90.9231125 328.550648,100.928123 328.550648,100.928123 C328.550648,100.928123 328.658104,139.818784 328.067096,144.471962 C327.476088,149.12514 333,166.42872 333,166.42872 Z" id="Path" fill="#000000" fill-rule="nonzero" opacity="0.1"></path>
                <polygon id="Path" fill="#CBCDDA" fill-rule="nonzero" points="319 164.306962 318.726366 167 315.422803 165.655063 313 161.582278 314.818527 160"></polygon>
                <path d="M320,155.13545 L317.974768,155.302172 L298.447656,156.872586 C295.311852,157.126009 292.146584,157.00093 289.05673,156.501495 L280,155.044022 C280.417746,153.860833 280.751943,153.137475 280.751943,153.137475 C281.731139,153.6968 287.338959,154.350243 290.239786,154.882678 C291.827106,155.178412 293.460075,155.283528 295.085638,155.194609 C302.41958,154.72605 309.674808,153.655619 316.73824,152 L317.62052,152.847055 L320,155.13545 Z" id="Path" fill="#000000" fill-rule="nonzero" opacity="0.1"></path>
                <g id="Group" opacity="0.1" transform="translate(280.000000, 151.000000)" fill="#000000" fill-rule="nonzero">
                    <path d="M0.533333333,1.74492918 C0.469003347,1.71310626 0.406665726,1.67738385 0.346666667,1.63796034 C0.346666667,1.63796034 0.346666667,1.658017 0.326666667,1.68810198 L0.533333333,1.74492918 Z" id="Path"></path>
                    <path d="M41.93,75.3461756 C41.93,75.3461756 38.5966667,62.6703683 39.6633333,59.5549008 C39.6633333,59.5549008 37.75,46.4177904 38.8866667,42.5067422 C40.0233333,38.5956941 38.1033333,9.74753541 38.1033333,9.74753541 L37.4733333,4.33558074 L37.12,1.28362606 L36.9733333,0.00668555241 L36.24,0.230651558 L35.7866667,0.364362606 L35.8433333,0.859093484 L36.1966667,3.90770538 L36.8266667,9.31966006 C36.8266667,9.31966006 38.74,38.177847 37.61,42.0788669 C36.48,45.9798867 38.3866667,59.1270255 38.3866667,59.1270255 C37.3233333,62.2458357 40.6533333,74.9183003 40.6533333,74.9183003 C40.6533333,74.9183003 42.9866667,91.8394334 42.3566667,96.5995467 C41.7266667,101.35966 40.8666667,114.650538 40.8666667,114.650538 C38.6933333,117.923116 34.59,117.515297 32.5333333,117.057337 L32.57,117.137564 C32.57,117.137564 39.1633333,119.557734 42.14,115.078414 C42.14,115.078414 42.99,101.784193 43.63,97.0274221 C44.27,92.2706516 41.93,75.3461756 41.93,75.3461756 Z" id="Path"></path>
                    <path d="M25.1333333,96.7432861 C26.2666667,93.5442493 24.07,83.2351275 24.07,83.2351275 C24.07,83.2351275 20.1733333,72.203966 20.81,64.0442493 C21.0766667,60.6379603 21.06,55.9647592 20.9466667,51.6759773 C20.0433333,46.1436827 19.1766667,39.9762606 19.1766667,39.9762606 C19.1766667,39.9762606 20.1766667,55.4700283 19.5366667,63.6431161 C18.8966667,71.816204 22.7933333,82.8373371 22.7933333,82.8373371 C22.7933333,82.8373371 24.9933333,93.1431161 23.8566667,96.342153 C22.72,99.5411898 26.6866667,112.745156 26.6866667,112.745156 C26.4033333,115.82051 19.12,115.419377 16.23,115.151955 L16.34,115.446119 C16.34,115.446119 27.61,117.010538 27.9633333,113.173031 C27.97,113.163003 24,99.9423229 25.1333333,96.7432861 Z" id="Path"></path>
                </g>
                <path d="M333,166.42872 C330.431295,169.457355 319.233083,170 319.233083,170 L308.152394,152.36405 C308.152394,152.36405 305.529964,150.525841 300.600736,142.247119 C295.671508,133.968397 295.839398,127.592323 296.111378,122.830616 C296.383359,118.06891 299.469163,104.384091 299.469163,104.384091 C299.949326,101.304582 306.856289,82 306.856289,82 C307.578213,83.4617489 308.928042,84.6826993 310.509559,85.6899834 C314.773945,88.4032065 320.727297,89.515628 320.727297,89.515628 C330.313772,90.9231125 328.54422,100.928123 328.54422,100.928123 C328.54422,100.928123 328.651669,139.818784 328.060699,144.471962 C327.469729,149.12514 333,166.42872 333,166.42872 Z" id="Path" fill="#4C4C78" fill-rule="nonzero"></path>
                <path d="M308.439366,91.3861616 L306.095149,92.2732785 L307.655784,93.3863278 L296,122 C296.270989,117.348451 299.264925,103.928732 299.264925,103.928732 C299.73181,100.91187 306.447761,82 306.447761,82 C307.14972,83.4320126 308.46222,84.6281253 310,85.6149182 L308.439366,91.3861616 Z" id="Path" fill="#000000" fill-rule="nonzero" opacity="0.1"></path>
                <polygon id="Path" fill="#000000" fill-rule="nonzero" opacity="0.1" points="313 142.752612 324.492617 140 326 144.338069 314.255628 147"></polygon>
                <path d="M318.470785,93.7168293 C318.470785,93.7168293 312.585679,98.9933141 314.80634,110.753013 C317.027001,122.512713 320.577929,135.27971 320.577929,135.27971 L311,160.56357 C311,160.56357 317.676171,167.195514 320.957499,168 L330.517691,147.783052 C330.517691,147.783052 334.987392,140.775907 333.799019,129.780132 C332.610646,118.784357 328.31122,100.991009 328.31122,100.991009 C328.31122,100.991009 328.314768,90.1608639 318.470785,93.7168293 Z" id="Path" fill="#000000" fill-rule="nonzero" opacity="0.1"></path>
                <path d="M319.479207,93.7168293 C319.479207,93.7168293 313.595091,98.9933141 315.806952,110.753013 C318.018812,122.512713 321.570549,135.27971 321.570549,135.27971 L312,160.56357 C312,160.56357 318.671027,167.195514 321.949826,168 L331.520375,147.783052 C331.520375,147.783052 335.986631,140.775907 334.799174,129.780132 C333.611717,118.784357 329.315604,100.991009 329.315604,100.991009 C329.315604,100.991009 329.315604,90.1608639 319.479207,93.7168293 Z" id="Path" fill="#4C4C78" fill-rule="nonzero"></path>
                <path d="M314.199029,162.042913 C314.199029,162.042913 320.446447,171.815252 319.974552,174.417631 C319.502657,177.020011 317.671466,175.628275 317.671466,175.628275 L315.211081,171.815252 L313,164.682182 C313,164.682182 313.216656,161.603594 314.199029,162.042913 Z" id="Path" fill="#000000" fill-rule="nonzero" opacity="0.1"></path>
                <path d="M313.199284,162.042913 C313.199284,162.042913 319.433185,171.815252 318.976032,174.417631 C318.518879,177.020011 316.672457,175.628275 316.672457,175.628275 L314.208582,171.815252 L312,164.682182 C312,164.682182 312.216702,161.603594 313.199284,162.042913 Z" id="Path" fill="#000000" fill-rule="nonzero" opacity="0.1"></path>
                <path d="M313.19974,162.042913 C313.19974,162.042913 319.436014,171.815252 318.975718,174.417631 C318.515421,177.020011 316.671266,175.628275 316.671266,175.628275 L314.209423,171.815252 L312,164.682182 C312,164.682182 312.213815,161.603594 313.19974,162.042913 Z" id="Path" fill="#474463" fill-rule="nonzero"></path>
            </g>
        </g>
    </g>
</svg>