
<svg width="24px" height="25px" viewBox="0 0 24 25" version="1.1" xmlns="http://www.w3.org/2000/svg" xmlns:xlink="http://www.w3.org/1999/xlink">
    <g id="Symbols" stroke="none" stroke-width="1" fill="none" fill-rule="evenodd">
        <g id="Footers-#6" transform="translate(-704.000000, -71.000000)" fill="#45007D">
            <path d="M720.48,81.4 L720.49,81.67 C720.49,84.46 718.36,87.68 714.48,87.68 C713.29,87.68 712.18,87.33 711.24,86.73 C711.41,86.75 711.58,86.76 711.75,86.76 C712.74,86.76 713.65,86.43 714.37,85.86 C713.44,85.84 712.67,85.23 712.4,84.39 C712.53,84.42 712.66,84.43 712.79,84.43 C712.99,84.43 713.17,84.4 713.35,84.36 C712.38,84.16 711.66,83.31 711.66,82.29 L711.66,82.26 C711.94,82.42 712.27,82.51 712.61,82.52 C712.05,82.14 711.67,81.5 711.67,80.77 C711.67,80.38 711.78,80.02 711.96,79.7 C713,80.98 714.56,81.82 716.31,81.91 C716.28,81.76 716.26,81.59 716.26,81.43 C716.26,80.26 717.2,79.32 718.37,79.32 C718.98,79.32 719.52,79.57 719.91,79.98 C720.39,79.89 720.84,79.71 721.25,79.47 C721.09,79.97 720.76,80.38 720.32,80.64 C720.75,80.59 721.16,80.48 721.53,80.31 C721.25,80.73 720.89,81.1 720.48,81.4 L720.48,81.4 Z M716,71.5 C709.37,71.5 704,76.87 704,83.5 C704,90.13 709.37,95.5 716,95.5 C722.63,95.5 728,90.13 728,83.5 C728,76.87 722.63,71.5 716,71.5 L716,71.5 Z" id="Twitter-Icon-"></path>
        </g>
    </g>
</svg>